<?xml version="1.0" encoding="utf-8"?>
<!-- Generator: Adobe Illustrator 22.0.0, SVG Export Plug-In . SVG Version: 6.00 Build 0)  -->
<svg version="1.1" id="Capa_1" xmlns="http://www.w3.org/2000/svg" xmlns:xlink="http://www.w3.org/1999/xlink" x="0px" y="0px"
	 viewBox="0 0 793.6 787.4" style="enable-background:new 0 0 793.6 787.4;" xml:space="preserve">
<style type="text/css">
	.st0{opacity:0.1;fill:#FFFFFF;}
</style>
<path id="SVGID_10_" class="st0" d="M427.1,1.7c-20.4,5.2-39.7,12.6-48.5,18.7s-18.4,21.2-27.7,43.3c-1.8,4.3-3.5,8-3.8,8.3
	c-0.3,0.3-2,0.9-3.8,1.1c-3.2,0.3-20.1,3.7-22.8,4.3c-0.9,0.3-2.3-0.3-4.7-2.3c-10.2-7.7-16.9-14.9-19.3-20.7
	c-2-4.9-1.2-11.8,3.2-21.2c2-4.3,8.8-15.8,12.3-20.4c1.2-1.7,2.3-3.2,2.3-3.4c0-1.1-21.3,10.3-33,17.8
	c-14.6,9.5-23.9,17.5-27.4,24.1c-4.7,8.9-8.5,27-9.9,48.2l-0.3,6.3l-4.7,2.3c-2.3,1.1-8.2,4.6-12.6,7.2c-9.6,5.7-8.8,5.5-19,1.4
	c-8.8-3.4-13.1-6-17.2-9.8c-2.6-2.6-3.2-3.7-4.4-7.2c-2-7.2-0.3-23.5,4.1-37.6c0.6-2.3,0.9-4,0.9-4c-0.6,0-8.2,7.7-13.7,14.1
	c-16.1,18.1-26.6,34.2-28.6,43.6c-2,9.2,0.3,26.4,5.8,47.4l2.3,8l-5.8,5.7c-2.9,3.4-7.3,8.6-9.9,11.5l-4.4,5.5h-7
	c-12.6,0-21.9-2-26.6-6c-4.7-4-7.9-12.3-9.6-25.8c-0.6-3.7-0.9-9.2-0.9-11.8c0-2.6-0.3-5.5-0.6-6.6c-0.3-1.7-0.6-1.7-2.9,3.2
	c-7,14.9-14.6,34.2-17.5,46.2c-1.5,5.5-1.8,8-1.8,14.4c0,6.9,0,8,1.8,12.3c3.8,9.8,11.1,22.7,19.9,35.6l4.4,6.3l-2.3,5.5
	c-1.2,2.9-3.8,9.2-5.5,14.1l-3.2,8.6l-6.4,2c-18.1,5.5-27.4,4.9-34.4-2.9c-5-5.7-12.6-18.7-16.3-28.7c-1.8-4-2.9-5.5-2.9-3.7
	c0,0.3-0.3,5.2-0.9,10.3c-2,21.8-1.8,40.8,0.6,52.5c2.3,11.8,9.9,21,29.5,36.5c3.5,2.6,8.2,6.3,10.5,8l4.4,2.9l-0.3,6.3
	c-0.3,3.4-0.3,10.3-0.3,15.2v8.9l-6.4,4.6c-3.5,2.6-9.1,6-12.3,7.5c-5,2.3-6.4,2.9-10.2,3.2c-4.4,0.3-4.7,0.3-9.6-2
	c-6.1-3.2-14.9-10.3-23.1-18.7C3,388.4,0,385.5,0,385.5c-0.6,0.6,5.8,23.8,9.3,33.6c5.8,16.6,12,28.7,17.5,33.6
	c6.7,6.3,19.9,12.3,40,18.9l12,3.7l1.8,6c0.9,3.4,2.9,9.5,4.4,13.8l2.6,7.7l-1.2,2.3c-4.4,8-14.3,18.9-19.9,22.1
	c-2.6,1.4-3.8,1.7-7.6,1.7c-7.9,0-19.6-4-32.4-10.9c-4.1-2-7.3-3.7-7.3-3.4s1.8,3.4,4.1,6.9c14.3,21.2,29.2,38.7,38.8,45.1
	c6.7,4.6,15.2,6.3,33.3,7.7c6.1,0.3,14.9,0.6,19.6,0.3l8.8-0.6l3.8,5.5c2,2.9,6.1,8,8.8,11.5l5,6l-1.5,6
	c-4.1,17.2-9.9,26.1-18.1,28.7c-5.3,1.4-24.5,1.4-34.2-0.3c-3.8-0.6-7-1.1-7.3-0.9c-0.6,0.6,14.6,12.1,26.9,19.8
	c16.3,10.6,30.4,16.6,38.8,16.6c9.6,0,26-4,45.3-11.2l8.2-3.2l2.6,2c1.5,1.1,6.4,4.6,11.4,7.7l8.8,6l0.6,4
	c0.9,7.7,0.6,21.5-0.6,26.1c-2,7.2-7,11.2-18.1,14.9c-5.3,1.7-17.5,4.3-23.4,4.9c-5.5,0.6-6.7,0.9-5.5,1.4c0.6,0.3,5.3,2,10.2,3.7
	c26.3,8.9,50.8,13.5,61.6,11.2c9.6-2,26.3-12.3,44.4-27.3l6.1-5.2l10.2,2.9c5.5,1.4,11.4,3.2,12.8,3.4c2.3,0.9,2.6,0.9,5.8,8
	c4.7,10,6.4,16.6,6.7,23.2c0,5.7-0.9,8-5,12.9c-4.7,5.2-17.8,14.4-28,19.2c-2.3,1.1-4.1,2.3-4.1,2.6c0,0.9,26.9,0,38-1.1
	c17.2-1.7,28.9-4.6,34.7-8.3c8.8-5.5,19.9-18.9,32.4-39.3c3.2-5.2,5.3-8,6.1-8c0.9-0.3,3.8-0.3,7-0.6c3.2,0,8.2-0.3,11.1-0.3
	l5.5-0.3l6.4,6.3c9.3,9.8,14.6,17.8,15.2,24.4c0.9,7.5-5.5,18.7-19,33.3c-3.2,3.4-5.5,6.3-5.5,6.6c0.9,0.9,29.5-10,42-16.1
	c11.1-5.2,18.1-9.5,22.5-14.1c7.3-7.2,14-24.7,19-50.8c0.9-4.9,2-8.9,2.3-9.2c0.9-0.9,20.1-8.6,21.3-8.6c1.5,0,13.1,5.7,18.7,9.2
	c5.8,3.7,11.7,9.2,13.4,12.3c3.5,6.9,1.2,21.2-6.7,39c-1.5,3.4-2.6,6.6-2.3,6.6c0.3,0.3,10.2-7.2,19-14.9
	c9.9-8.6,22.5-21.5,26.6-27.6c6.4-9.5,7.6-15.2,7-35.9c-0.3-8.6-0.9-17.2-1.8-23.8l-1.5-10.3l2-1.7c1.2-0.9,5-4.3,8.5-7.5l6.1-5.7
	l5.5,0.6c15.8,1.4,28.6,5.5,33.6,10.3c2,2,4.4,7.2,5.3,12.6c1.2,5.2,1.5,25.3,0.6,30.4c-0.3,1.7-0.3,2.9,0,2.9c0.3,0,3.2-4,6.1-9.2
	c17.5-27.8,25.4-47.1,24.2-58.6c-0.9-10-7-26.7-16.3-45.1l-5.3-10.3l3.8-6.6c2-3.4,4.7-7.7,5.5-9.5c1.5-2.3,2-2.9,4.4-3.7
	c12.6-3.4,28.6-4.6,35-2.9c8.5,2.3,14.9,13.2,20.1,34.4c1.2,4.9,2.6,9.2,2.6,9.5c0.9,1.1,7-26.4,8.8-39.9c2-16.4,1.8-26.4-0.9-33.6
	c-3.2-8.3-13.1-21-28.9-36.5L717.9,463l1.8-8.3c0.9-4.6,1.8-9.5,2-10.6c0.3-2,0.9-2.6,6.4-6c8.2-4.9,12.8-7.2,19.6-9.5
	c7.6-2.6,12-2.6,16.9-0.3c6.4,3.2,15.5,12.6,24.2,25.3c4.7,6.6,4.1,6,4.7,5.7c0.3-0.3,0-4.3-0.6-9.2c-2.9-25.8-7.6-45.9-13.1-56
	c-5.3-9.8-22.8-22.1-47.9-33.3c-4.4-2-7.9-3.4-7.9-3.7c-0.3,0-2.3-14.1-2.9-19.5c-0.3-2.9-0.3-2.9,3.2-7.5
	c9.1-11.2,19.6-19.5,26-20.7c4.4-0.9,9.9,0.3,16.9,3.7c5.3,2.6,15.8,9.2,21.6,13.8c2,1.4,3.8,2.9,4.1,2.9c0.9,0-0.6-3.4-7.9-17.8
	c-10.8-21.2-19.9-35-27.2-41.3c-8.8-7.5-28.9-12.9-60.1-15.5l-4.1-0.3l-5.3-10.3l-5.3-10.3l1.2-4c5-14.9,13.1-27.3,19.9-30.4
	c2.3-1.1,4.1-1.1,9.6-1.1c7.9,0,15.5,1.4,27.4,5.2c4.4,1.4,8.2,2.3,8.5,2c0.3,0-4.7-5.2-10.8-11.2c-21-20.1-35.6-30.7-46.4-33.6
	c-4.7-1.1-17.8-1.1-27.4,0c-8.2,1.1-16.9,2.6-26.9,4.9l-6.4,1.4l-9.1-8.3l-9.1-8.6l0.3-8.3c0.6-13.8,2.6-22.7,6.4-27.8
	c4.4-6.3,16.1-9.2,37.7-9.8c5.5,0,10.5-0.3,10.5-0.6c0.3-0.3-23.9-12.1-32.7-15.5c-22.5-9.2-34.7-11.2-46.7-7.2
	c-9.6,3.2-28.9,12.9-40.6,20.7l-3.8,2.6l-7.6-3.4c-4.1-1.7-9.6-4.3-12-5.2l-4.4-1.7l-1.5-4c-4.4-12.1-6.1-27-3.5-32.4
	c3.2-6.9,13.4-13.8,30.7-20.4c3.8-1.4,7.9-2.9,8.5-3.2c2-0.9,0-1.4-8.8-2.6c-16.9-2-22.2-2.3-35.9-2.3c-16.1,0-21.3,0.9-28.3,4
	c-9.6,4.6-21.6,15.8-40.6,38.5c-1.2,1.4-1.5,1.4-6.1,0.9c-4.7-0.6-5.3-0.9-7-2.9c-7.6-8.9-13.7-19.5-15.2-25.5
	c-0.6-1.7-0.6-4.6-0.6-6.6c0.6-7.2,8.2-19.2,19.9-31.6c2.9-2.9,5-5.5,4.7-5.2C437.1-0.9,432.7,0.3,427.1,1.7z M425.7,102.5
	c23.1,2.3,42,6.3,62.2,12.6c64.5,20.7,119.7,62.3,156.8,118.3c31.2,47.1,47.9,102.5,47.9,158.7c0,102.5-54.3,196.9-144.2,249.7
	c-33,19.5-71.5,33-109.8,38.2c-16.1,2.3-23.6,2.9-42,2.9c-28,0-49.6-2.6-75-9.2c-105.1-27-186.8-108.8-212.5-212.1
	c-2.9-12.1-5-23.2-6.7-37c-1.2-9.8-1.5-14.4-1.5-32.4s0.3-22.7,1.5-32.4c4.4-34.4,12.8-64.3,27.7-94.4
	c42.6-87,127.3-147.8,224.2-161.3c8.2-1.1,19.3-2.3,28-2.9C390.4,101,416.6,101.6,425.7,102.5z"/>
</svg>
