<?xml version="1.0" encoding="utf-8"?>
<!-- Generator: Adobe Illustrator 22.0.0, SVG Export Plug-In . SVG Version: 6.00 Build 0)  -->
<svg version="1.1" id="Capa_1" xmlns="http://www.w3.org/2000/svg" xmlns:xlink="http://www.w3.org/1999/xlink" x="0px" y="0px"
	viewBox="0 0 271.9 274.3" style="enable-background:new 0 0 271.9 274.3;" xml:space="preserve">
<style type="text/css">
	.st0{fill:#262626;}
	.st1{fill:none;stroke:#262626;stroke-width:12;}
	.st2{fill:none;stroke:#262626;stroke-width:4;}
	.st3{fill:none;stroke:#262626;stroke-width:2;stroke-miterlimit:10;}
	.st4{fill:none;stroke:#262626;stroke-width:2;}
</style>
<g>
	<path class="st0" d="M146.3,0.6c-7,1.8-13.6,4.4-16.6,6.5s-6.3,7.4-9.5,15.1c-0.6,1.5-1.2,2.8-1.3,2.9c-0.1,0.1-0.7,0.3-1.3,0.4
		c-1.1,0.1-6.9,1.3-7.8,1.5c-0.3,0.1-0.8-0.1-1.6-0.8c-3.5-2.7-5.8-5.2-6.6-7.2c-0.7-1.7-0.4-4.1,1.1-7.4c0.7-1.5,3-5.5,4.2-7.1
		c0.4-0.6,0.8-1.1,0.8-1.2c0-0.4-7.3,3.6-11.3,6.2c-5,3.3-8.2,6.1-9.4,8.4c-1.6,3.1-2.9,9.4-3.4,16.8l-0.1,2.2l-1.6,0.8
		c-0.8,0.4-2.8,1.6-4.3,2.5c-3.3,2-3,1.9-6.5,0.5c-3-1.2-4.5-2.1-5.9-3.4c-0.9-0.9-1.1-1.3-1.5-2.5c-0.7-2.5-0.1-8.2,1.4-13.1
		c0.2-0.8,0.3-1.4,0.3-1.4c-0.2,0-2.8,2.7-4.7,4.9c-5.5,6.3-9.1,11.9-9.8,15.2c-0.7,3.2,0.1,9.2,2,16.5l0.8,2.8l-2,2
		c-1,1.2-2.5,3-3.4,4l-1.5,1.9h-2.4c-4.3,0-7.5-0.7-9.1-2.1c-1.6-1.4-2.7-4.3-3.3-9c-0.2-1.3-0.3-3.2-0.3-4.1c0-0.9-0.1-1.9-0.2-2.3
		c-0.1-0.6-0.2-0.6-1,1.1c-2.4,5.2-5,11.9-6,16.1c-0.5,1.9-0.6,2.8-0.6,5c0,2.4,0,2.8,0.6,4.3c1.3,3.4,3.8,7.9,6.8,12.4l1.5,2.2
		L32,93.1c-0.4,1-1.3,3.2-1.9,4.9l-1.1,3l-2.2,0.7c-6.2,1.9-9.4,1.7-11.8-1c-1.7-2-4.3-6.5-5.6-10c-0.6-1.4-1-1.9-1-1.3
		c0,0.1-0.1,1.8-0.3,3.6c-0.7,7.6-0.6,14.2,0.2,18.3c0.8,4.1,3.4,7.3,10.1,12.7c1.2,0.9,2.8,2.2,3.6,2.8l1.5,1l-0.1,2.2
		c-0.1,1.2-0.1,3.6-0.1,5.3v3.1l-2.2,1.6c-1.2,0.9-3.1,2.1-4.2,2.6c-1.7,0.8-2.2,1-3.5,1.1c-1.5,0.1-1.6,0.1-3.3-0.7
		c-2.1-1.1-5.1-3.6-7.9-6.5C1,135.3,0,134.3,0,134.3c-0.2,0.2,2,8.3,3.2,11.7c2,5.8,4.1,10,6,11.7c2.3,2.2,6.8,4.3,13.7,6.6l4.1,1.3
		l0.6,2.1c0.3,1.2,1,3.3,1.5,4.8l0.9,2.7l-0.4,0.8c-1.5,2.8-4.9,6.6-6.8,7.7c-0.9,0.5-1.3,0.6-2.6,0.6c-2.7,0-6.7-1.4-11.1-3.8
		c-1.4-0.7-2.5-1.3-2.5-1.2s0.6,1.2,1.4,2.4c4.9,7.4,10,13.5,13.3,15.7c2.3,1.6,5.2,2.2,11.4,2.7c2.1,0.1,5.1,0.2,6.7,0.1l3-0.2
		l1.3,1.9c0.7,1,2.1,2.8,3,4l1.7,2.1l-0.5,2.1c-1.4,6-3.4,9.1-6.2,10c-1.8,0.5-8.4,0.5-11.7-0.1c-1.3-0.2-2.4-0.4-2.5-0.3
		c-0.2,0.2,5,4.2,9.2,6.9c5.6,3.7,10.4,5.8,13.3,5.8c3.3,0,8.9-1.4,15.5-3.9l2.8-1.1l0.9,0.7c0.5,0.4,2.2,1.6,3.9,2.7l3,2.1l0.2,1.4
		c0.3,2.7,0.2,7.5-0.2,9.1c-0.7,2.5-2.4,3.9-6.2,5.2c-1.8,0.6-6,1.5-8,1.7c-1.9,0.2-2.3,0.3-1.9,0.5c0.2,0.1,1.8,0.7,3.5,1.3
		c9,3.1,17.4,4.7,21.1,3.9c3.3-0.7,9-4.3,15.2-9.5l2.1-1.8l3.5,1c1.9,0.5,3.9,1.1,4.4,1.2c0.8,0.3,0.9,0.3,2,2.8
		c1.6,3.5,2.2,5.8,2.3,8.1c0,2-0.3,2.8-1.7,4.5c-1.6,1.8-6.1,5-9.6,6.7c-0.8,0.4-1.4,0.8-1.4,0.9c0,0.3,9.2,0,13-0.4
		c5.9-0.6,9.9-1.6,11.9-2.9c3-1.9,6.8-6.6,11.1-13.7c1.1-1.8,1.8-2.8,2.1-2.8c0.3-0.1,1.3-0.1,2.4-0.2c1.1,0,2.8-0.1,3.8-0.1
		l1.9-0.1l2.2,2.2c3.2,3.4,5,6.2,5.2,8.5c0.3,2.6-1.9,6.5-6.5,11.6c-1.1,1.2-1.9,2.2-1.9,2.3c0.3,0.3,10.1-3.5,14.4-5.6
		c3.8-1.8,6.2-3.3,7.7-4.9c2.5-2.5,4.8-8.6,6.5-17.7c0.3-1.7,0.7-3.1,0.8-3.2c0.3-0.3,6.9-3,7.3-3c0.5,0,4.5,2,6.4,3.2
		c2,1.3,4,3.2,4.6,4.3c1.2,2.4,0.4,7.4-2.3,13.6c-0.5,1.2-0.9,2.3-0.8,2.3c0.1,0.1,3.5-2.5,6.5-5.2c3.4-3,7.7-7.5,9.1-9.6
		c2.2-3.3,2.6-5.3,2.4-12.5c-0.1-3-0.3-6-0.6-8.3l-0.5-3.6l0.7-0.6c0.4-0.3,1.7-1.5,2.9-2.6l2.1-2l1.9,0.2c5.4,0.5,9.8,1.9,11.5,3.6
		c0.7,0.7,1.5,2.5,1.8,4.4c0.4,1.8,0.5,8.8,0.2,10.6c-0.1,0.6-0.1,1,0,1s1.1-1.4,2.1-3.2c6-9.7,8.7-16.4,8.3-20.4
		c-0.3-3.5-2.4-9.3-5.6-15.7l-1.8-3.6l1.3-2.3c0.7-1.2,1.6-2.7,1.9-3.3c0.5-0.8,0.7-1,1.5-1.3c4.3-1.2,9.8-1.6,12-1
		c2.9,0.8,5.1,4.6,6.9,12c0.4,1.7,0.9,3.2,0.9,3.3c0.3,0.4,2.4-9.2,3-13.9c0.7-5.7,0.6-9.2-0.3-11.7c-1.1-2.9-4.5-7.3-9.9-12.7
		l-3.6-3.6l0.6-2.9c0.3-1.6,0.6-3.3,0.7-3.7c0.1-0.7,0.3-0.9,2.2-2.1c2.8-1.7,4.4-2.5,6.7-3.3c2.6-0.9,4.1-0.9,5.8-0.1
		c2.2,1.1,5.3,4.4,8.3,8.8c1.6,2.3,1.4,2.1,1.6,2c0.1-0.1,0-1.5-0.2-3.2c-1-9-2.6-16-4.5-19.5c-1.8-3.4-7.8-7.7-16.4-11.6
		c-1.5-0.7-2.7-1.2-2.7-1.3c-0.1,0-0.8-4.9-1-6.8c-0.1-1-0.1-1,1.1-2.6c3.1-3.9,6.7-6.8,8.9-7.2c1.5-0.3,3.4,0.1,5.8,1.3
		c1.8,0.9,5.4,3.2,7.4,4.8c0.7,0.5,1.3,1,1.4,1c0.3,0-0.2-1.2-2.7-6.2c-3.7-7.4-6.8-12.2-9.3-14.4c-3-2.6-9.9-4.5-20.6-5.4l-1.4-0.1
		l-1.8-3.6l-1.8-3.6l0.4-1.4c1.7-5.2,4.5-9.5,6.8-10.6c0.8-0.4,1.4-0.4,3.3-0.4c2.7,0,5.3,0.5,9.4,1.8c1.5,0.5,2.8,0.8,2.9,0.7
		c0.1,0-1.6-1.8-3.7-3.9c-7.2-7-12.2-10.7-15.9-11.7c-1.6-0.4-6.1-0.4-9.4,0c-2.8,0.4-5.8,0.9-9.2,1.7l-2.2,0.5l-3.1-2.9l-3.1-3
		l0.1-2.9c0.2-4.8,0.9-7.9,2.2-9.7c1.5-2.2,5.5-3.2,12.9-3.4c1.9,0,3.6-0.1,3.6-0.2c0.1-0.1-8.2-4.2-11.2-5.4
		c-7.7-3.2-11.9-3.9-16-2.5c-3.3,1.1-9.9,4.5-13.9,7.2l-1.3,0.9l-2.6-1.2c-1.4-0.6-3.3-1.5-4.1-1.8l-1.5-0.6l-0.5-1.4
		c-1.5-4.2-2.1-9.4-1.2-11.3c1.1-2.4,4.6-4.8,10.5-7.1c1.3-0.5,2.7-1,2.9-1.1c0.7-0.3,0-0.5-3-0.9c-5.8-0.7-7.6-0.8-12.3-0.8
		c-5.5,0-7.3,0.3-9.7,1.4c-3.3,1.6-7.4,5.5-13.9,13.4c-0.4,0.5-0.5,0.5-2.1,0.3s-1.8-0.3-2.4-1c-2.6-3.1-4.7-6.8-5.2-8.9
		c-0.2-0.6-0.2-1.6-0.2-2.3c0.2-2.5,2.8-6.7,6.8-11c1-1,1.7-1.9,1.6-1.8C149.7-0.3,148.2,0.1,146.3,0.6z M145.8,35.7
		c7.9,0.8,14.4,2.2,21.3,4.4c22.1,7.2,41,21.7,53.7,41.2c10.7,16.4,16.4,35.7,16.4,55.3c0,35.7-18.6,68.6-49.4,87
		c-11.3,6.8-24.5,11.5-37.6,13.3c-5.5,0.8-8.1,1-14.4,1c-9.6,0-17-0.9-25.7-3.2c-36-9.4-64-37.9-72.8-73.9c-1-4.2-1.7-8.1-2.3-12.9
		c-0.4-3.4-0.5-5-0.5-11.3s0.1-7.9,0.5-11.3c1.5-12,4.4-22.4,9.5-32.9c14.6-30.3,43.6-51.5,76.8-56.2c2.8-0.4,6.6-0.8,9.6-1
		C133.7,35.2,142.7,35.4,145.8,35.7z"/>
	<path class="st1" d="M226.9,136.7c0,50.2-40.9,91-91.5,91s-91.5-40.8-91.5-91s40.9-91,91.5-91C185.9,45.7,226.9,86.5,226.9,136.7z"
		/>
	<path class="st0" d="M90,150.5c-1.4,0.3-2.7,0.5-3.8,0.5s-2-0.1-2.7-0.4c-0.7-0.3-1.2-0.7-1.6-1.3s-0.7-1.3-0.8-2.2
		c-0.1-0.8-0.2-1.9-0.2-3.1c0-2.6,0.4-4.5,1.1-5.5s2.1-1.6,4.1-1.6c1.1,0,2.5,0.2,4,0.5l-0.1,2.2c-1.3-0.2-2.4-0.3-3.3-0.3
		s-1.5,0.1-1.9,0.4c-0.4,0.2-0.7,0.7-0.8,1.3c-0.2,0.7-0.3,1.8-0.3,3.3s0.2,2.7,0.5,3.3c0.4,0.6,1.1,0.9,2.2,0.9s2.3-0.1,3.5-0.3
		L90,150.5z M91.1,150.7l3.1-13.6h5.2l3.1,13.6h-2.8l-0.5-2.5h-4.8l-0.5,2.5H91.1z M96.3,139.4l-1.4,6.5h3.7l-1.4-6.5H96.3z
		 M107,146.1v4.6h-2.8v-13.6h5.3c3.2,0,4.8,1.5,4.8,4.5c0,1.8-0.7,3.1-2,3.9l1.9,5.2h-3l-1.6-4.6L107,146.1L107,146.1z M109.6,143.8
		c0.7,0,1.1-0.2,1.5-0.6c0.3-0.4,0.5-0.9,0.5-1.6s-0.2-1.2-0.5-1.6c-0.3-0.4-0.8-0.6-1.5-0.6h-2.5v4.3h2.5V143.8z M121.6,146.7h-2.2
		v4h-2.8v-13.6h5c3.2,0,4.8,1.6,4.8,4.7c0,1.6-0.4,2.8-1.2,3.7C124.4,146.3,123.2,146.7,121.6,146.7z M119.4,144.4h2.2
		c1.4,0,2.1-0.9,2.1-2.6c0-0.8-0.2-1.4-0.5-1.8c-0.3-0.4-0.9-0.6-1.6-0.6h-2.2V144.4z M128.4,150.7v-13.6h2.8v13.6H128.4z
		 M132.9,139.5v-2.4h10v2.4h-3.6v11.2h-2.8v-11.2H132.9z M144.7,150.7v-13.6h8.8v2.4h-6v3.2h4.8v2.4h-4.8v3.3h6v2.4L144.7,150.7
		L144.7,150.7z M164.3,150.5c-1.4,0.3-2.7,0.5-3.8,0.5s-2-0.1-2.7-0.4c-0.7-0.3-1.2-0.7-1.6-1.3c-0.4-0.6-0.7-1.3-0.8-2.2
		c-0.1-0.8-0.2-1.9-0.2-3.1c0-2.6,0.4-4.5,1.1-5.5c0.7-1,2.1-1.6,4.1-1.6c1.1,0,2.5,0.2,4,0.5l-0.1,2.2c-1.3-0.2-2.4-0.3-3.3-0.3
		c-0.9,0-1.5,0.1-1.9,0.4c-0.4,0.2-0.7,0.7-0.8,1.3c-0.2,0.7-0.3,1.8-0.3,3.3s0.2,2.7,0.5,3.3c0.4,0.6,1.1,0.9,2.2,0.9
		c1.1,0,2.3-0.1,3.5-0.3L164.3,150.5z M175.8,150.7v-2.2h-5.6v-2.1l3.3-8.9h3l-3.5,8.6h2.8v-3.7h2.8v3.7h1.3v2.4h-1.3v2.2H175.8z
		 M181.8,138c1.2-0.5,2.6-0.7,4.1-0.7s2.6,0.3,3.3,0.9c0.7,0.6,1,1.5,1,2.8s-0.5,2.3-1.5,2.9c0.6,0.3,1.1,0.7,1.4,1.1
		c0.3,0.4,0.4,1,0.4,1.8c0,1.4-0.4,2.5-1.1,3.2c-0.7,0.7-1.8,1-3.4,1c-1.2,0-2.4-0.2-3.7-0.5l-0.6-0.2l0.1-2.1
		c1.5,0.3,2.7,0.4,3.8,0.4c1.4,0,2.1-0.6,2.1-1.8c0-0.5-0.2-0.9-0.5-1.2s-0.8-0.4-1.4-0.4h-2.7v-2.3h2.7c0.4,0,0.8-0.2,1.2-0.6
		c0.3-0.4,0.5-0.8,0.5-1.2c0-0.9-0.7-1.4-2-1.4c-0.9,0-1.9,0.1-2.9,0.3l-0.5,0.1L181.8,138z"/>
	<path class="st0" d="M104.1,182.7h-3.2v-9.5h3.2c0.8,0,1.5,0.1,2,0.3s0.9,0.5,1.2,0.9c0.3,0.4,0.5,0.9,0.6,1.4s0.2,1.2,0.2,2.1
		c0,0.9-0.1,1.6-0.2,2.1c-0.1,0.6-0.3,1.1-0.6,1.5c-0.3,0.4-0.7,0.8-1.2,1C105.6,182.6,104.9,182.7,104.1,182.7z M106.1,178.9
		c0-0.3,0-0.7,0-1.2s0-1-0.1-1.3c0-0.3-0.1-0.6-0.3-0.9c-0.1-0.3-0.3-0.4-0.6-0.5c-0.3-0.1-0.6-0.2-1.1-0.2h-1.3v6.2h1.3
		c0.7,0,1.2-0.2,1.5-0.5C105.9,180.2,106.1,179.7,106.1,178.9z M111.2,180c0,0.4,0.1,0.7,0.3,0.9c0.2,0.2,0.5,0.3,1,0.3
		c0.9,0,1.6,0,2.3-0.1h0.4v1.4c-1.1,0.3-2,0.4-2.9,0.4c-1.1,0-1.8-0.3-2.3-0.8c-0.5-0.6-0.7-1.5-0.7-2.7c0-2.5,1-3.8,3.1-3.8
		c2,0,3.1,1.1,3.1,3.2l-0.1,1.3L111.2,180L111.2,180z M113.6,178.5c0-0.6-0.1-0.9-0.3-1.2c-0.2-0.2-0.5-0.3-0.9-0.3
		s-0.8,0.1-0.9,0.4c-0.2,0.2-0.3,0.6-0.3,1.1H113.6z M121.8,177.4c-1.2-0.1-2-0.2-2.4-0.2c-0.5,0-0.8,0-0.9,0.1s-0.2,0.2-0.2,0.4
		s0.1,0.3,0.3,0.4c0.2,0.1,0.7,0.2,1.4,0.3c0.8,0.1,1.3,0.3,1.6,0.7c0.3,0.3,0.5,0.8,0.5,1.5c0,1.5-0.9,2.3-2.8,2.3
		c-0.6,0-1.4-0.1-2.2-0.3l-0.4-0.1l0.1-1.6c1.2,0.1,2,0.2,2.4,0.2c0.5,0,0.8,0,0.9-0.1c0.2-0.1,0.3-0.2,0.3-0.4s-0.1-0.3-0.3-0.4
		c-0.2-0.1-0.6-0.2-1.3-0.3c-0.7-0.1-1.3-0.3-1.6-0.6c-0.4-0.3-0.5-0.8-0.5-1.5s0.3-1.3,0.8-1.7s1.2-0.6,1.9-0.6
		c0.6,0,1.3,0.1,2.3,0.3l0.5,0.1L121.8,177.4z M129.4,172.9v9.8h-1.9v-0.3c-0.7,0.3-1.2,0.5-1.7,0.5c-1,0-1.7-0.3-2.1-0.9
		s-0.6-1.5-0.6-2.8s0.2-2.2,0.7-2.8s1.2-0.9,2.2-0.9c0.3,0,0.7,0,1.2,0.1l0.3,0.1v-2.8L129.4,172.9L129.4,172.9z M127.3,181h0.2
		v-3.7c-0.5-0.1-1-0.1-1.4-0.1c-0.8,0-1.1,0.7-1.1,2c0,0.7,0.1,1.2,0.3,1.6s0.4,0.5,0.8,0.5C126.4,181.2,126.9,181.1,127.3,181z
		 M132.6,180c0,0.4,0.1,0.7,0.3,0.9s0.5,0.3,1,0.3c0.9,0,1.6,0,2.3-0.1h0.4v1.4c-1.1,0.3-2,0.4-2.9,0.4c-1.1,0-1.8-0.3-2.3-0.8
		s-0.7-1.5-0.7-2.7c0-2.5,1-3.8,3.1-3.8c2,0,3.1,1.1,3.1,3.2l-0.1,1.3L132.6,180L132.6,180z M135,178.5c0-0.6-0.1-0.9-0.3-1.2
		c-0.2-0.2-0.5-0.3-0.9-0.3s-0.8,0.1-0.9,0.4c-0.2,0.2-0.3,0.6-0.3,1.1H135z M146.3,173.4v9.2h-1.9v-7.1l-2,1.3l-0.9-1.4l3.1-2
		H146.3z M151.7,181.2c1.2,0,1.9-0.8,1.9-2.3l-0.3,0.1c-0.6,0.2-1.1,0.3-1.5,0.3c-1,0-1.8-0.2-2.4-0.7c-0.6-0.5-0.8-1.2-0.8-2.2
		s0.3-1.7,0.9-2.3c0.6-0.6,1.5-0.8,2.6-0.8s2,0.4,2.6,1.2s0.9,2,0.9,3.7c0,1.6-0.3,2.8-1,3.5s-1.6,1.1-2.9,1.1
		c-0.7,0-1.5-0.1-2.3-0.3l-0.4-0.1l0.2-1.5C150.1,181.1,151,181.2,151.7,181.2z M152,177.6c0.4,0,0.9-0.1,1.4-0.3l0.2-0.1
		c0-1.6-0.5-2.4-1.6-2.4c-0.4,0-0.8,0.1-1,0.4c-0.2,0.2-0.4,0.6-0.4,1C150.6,177.2,151.1,177.6,152,177.6z M163,175.2
		c-1-0.1-1.8-0.2-2.5-0.2c-1.3,0-2,0.7-2,2.2l0.3-0.1c0.6-0.2,1.1-0.3,1.5-0.3c1.1,0,1.8,0.2,2.4,0.7s0.8,1.2,0.8,2.3
		c0,1-0.3,1.8-0.9,2.3c-0.6,0.5-1.5,0.8-2.6,0.8s-2-0.4-2.6-1.2s-0.9-2-0.9-3.7s0.3-2.8,1-3.5c0.7-0.8,1.6-1.1,2.9-1.1
		c0.7,0,1.5,0.1,2.3,0.3l0.4,0.1L163,175.2z M160.2,178.4c-0.4,0-0.9,0.1-1.4,0.2l-0.2,0.1c0,1.6,0.5,2.4,1.6,2.4
		c0.4,0,0.8-0.1,1-0.4c0.2-0.3,0.4-0.6,0.4-1C161.5,178.9,161.1,178.4,160.2,178.4z M165.4,173.9c0.6-0.4,1.4-0.7,2.4-0.7
		s1.8,0.2,2.5,0.7c0.6,0.4,0.9,1.1,0.9,1.9c0,0.5-0.1,0.9-0.2,1.2c-0.1,0.3-0.4,0.6-0.8,0.9c0.4,0.3,0.7,0.7,0.9,1s0.3,0.7,0.3,1.3
		c0,0.9-0.3,1.6-1,2s-1.5,0.6-2.6,0.6c-2.3,0-3.5-0.8-3.5-2.5c0-0.6,0.1-1.1,0.3-1.4c0.2-0.3,0.5-0.7,0.9-1
		c-0.4-0.3-0.7-0.6-0.8-0.9c-0.1-0.3-0.2-0.7-0.2-1.2C164.5,175,164.8,174.4,165.4,173.9z M166.4,179.9c0,0.8,0.5,1.2,1.4,1.2
		c1,0,1.5-0.4,1.5-1.2c0-0.5-0.3-0.8-0.8-1.1h-1.2C166.7,179,166.4,179.4,166.4,179.9z M167.9,175c-0.4,0-0.7,0.1-1,0.3
		s-0.3,0.5-0.3,0.9s0.2,0.7,0.7,1h1.2c0.5-0.3,0.7-0.7,0.7-1.1C169.2,175.4,168.7,175,167.9,175z"/>
	<path class="st2" d="M44.9,163.7h183"/>
	<path class="st2" d="M58.9,192.8h152"/>
	<g>
		<path class="st3" d="M163.2,114.7c-1.6,5.1-5.8,5.7-7.1,5.7c-0.3,0-0.5-0.1-0.7-0.3L138.5,102c-0.3-0.4-0.3-0.9,0-1.3l3.8-4
			c0.3-0.4,0.9-0.4,1.3-0.1c2.9,2.6,14.9,13.1,19.3,17.1C163.2,114,163.3,114.4,163.2,114.7z"/>
		<g>
			<path class="st3" d="M133.1,87.7l22.7-18h0.1l5.9,5.9l0,0l1,4.8c0,0.1,0,0.1-0.1,0.1l-5.7-1c-0.1,0-0.1,0.1-0.1,0.1l1.9,6.7
				c0,0.1,0,0.1-0.1,0.1l-6.7-1.9c-0.1,0-0.1,0-0.1,0.1l1.9,5.7c0,0.1,0,0.1-0.1,0.1l-6.7-1.9c-0.1,0-0.1,0-0.1,0.1l1.9,5.7
				c0,0.1,0,0.1-0.1,0.1l-5.6-1.9c-0.1,0-0.1,0-0.1,0.1l1.9,5.1"/>
			<path class="st4" d="M128.4,91.1l-8.9,7.1c-0.1,0.1-0.2,0.1-0.3,0.1l-1.3-0.3c-0.6-0.2-1.3,0-1.8,0.4l-8.2,6.5
				c-0.5,0.4-0.6,1.2-0.2,1.8l14,15.7c0.6,0.7,1.8,0.8,2.5,0.1l8-7.8c0.1-0.1,0.1-0.1,0.1-0.2l1.5-8.3c0-0.2,0.3-0.4,0.5-0.3
				l3.1,1.5c0.2,0.1,0.5,0,0.5-0.3l0.4-6.1"/>
			<line class="st4" x1="118.9" y1="97.9" x2="137.9" y2="107.5"/>
			<path class="st4" d="M113.5,107.3l7.9,7.9c0.3,0.3,0.7,0.3,1,0l5.7-4.9c0.4-0.3,0.3-0.9-0.1-1.2l-9.7-6.2c-0.3-0.2-0.6-0.2-0.9,0
				l-3.9,3.2C113.2,106.4,113.1,107,113.5,107.3z"/>
		</g>
		<g>
			<path class="st3" d="M138.9,100.7l-14.4-14.4c-0.3-0.3-0.9-0.3-1.2,0l-2.2,2.2c-0.2,0.2-0.4,0.2-0.6,0.2h-2.2
				c-0.3,0-0.5,0.1-0.7,0.3l-1,1.3c-0.1,0.1-0.2,0.3-0.2,0.4l-0.4,3c-0.1,0.5-0.6,0.8-1.1,0.7l-0.3-0.1c-1.4-0.4-2.7-1.2-3.7-2.3
				l0,0c-1.1-1.2-1.8-2.7-2-4.4l0,0c0-0.5,0.3-0.9,0.8-0.9h2.8c0.2,0,0.4-0.1,0.6-0.2l1-0.9c0.2-0.2,0.3-0.5,0.3-0.8l-0.5-2.6
				c-0.1-0.3,0.1-0.6,0.3-0.8l8.6-7.3c0.2-0.2,0.5-0.3,0.8-0.2l1,0.4c0.2,0.1,0.5,0.1,0.7-0.1l6.6-3.8c0.8-0.4,1.6,0.4,1.1,1.2
				l-3.8,6c-0.2,0.2-0.2,0.6,0,0.8l0.4,0.8c0.2,0.3,0.1,0.7-0.2,1l-1.6,1.5c-0.3,0.3-0.4,0.9,0,1.2l14.1,14.8"/>
			<line class="st3" x1="113.8" y1="86.9" x2="117.3" y2="90.4"/>
			<line class="st3" x1="123.2" y1="73.9" x2="129.6" y2="79.9"/>
		</g>
	</g>
	<g>
		<path class="st0" d="M102.2,200.4v7.3c0,0.4,0,0.8-0.1,1.1s-0.2,0.5-0.4,0.6s-0.4,0.2-0.6,0.2c-0.2,0-0.6,0-1,0v-0.7
			c0.3,0,0.6,0,0.7,0c0.1,0,0.3-0.1,0.4-0.2s0.2-0.2,0.2-0.4s0-0.5,0-0.8v-7.1H102.2z"/>
		<path class="st0" d="M104,205.7v-0.7h3.6v0.7H104z"/>
		<path class="st0" d="M114.1,208.7h-4.9v-0.6l2.4-2.6c0.4-0.4,0.7-0.7,0.8-1s0.3-0.5,0.5-0.8c0.1-0.3,0.2-0.6,0.2-0.9
			c0-0.5-0.1-0.9-0.4-1.1c-0.3-0.2-0.7-0.3-1.4-0.3c-0.5,0-1.1,0.1-1.7,0.2l-0.3,0.1l-0.1-0.6c0.7-0.2,1.5-0.3,2.3-0.3
			c0.8,0,1.4,0.2,1.8,0.5s0.6,0.9,0.6,1.6c0,0.6-0.1,1-0.4,1.4c-0.2,0.4-0.6,0.9-1.2,1.5l-2.2,2.4h4.1V208.7z"/>
		<path class="st0" d="M115.8,208.1c0.7,0.1,1.4,0.1,2.1,0.1c1.4,0,2.2-1,2.2-3l-0.3,0.1c-0.7,0.2-1.3,0.4-1.8,0.4
			c-1.7,0-2.5-0.8-2.5-2.4c0-0.8,0.2-1.4,0.7-1.9c0.5-0.5,1.1-0.7,1.9-0.7c0.9,0,1.6,0.4,2.1,1.1c0.5,0.7,0.7,1.8,0.7,3.2
			s-0.3,2.4-0.8,3c-0.5,0.6-1.3,0.9-2.3,0.9c-0.6,0-1.2,0-1.8-0.1l-0.3,0L115.8,208.1z M118,205.1c0.3,0,0.6,0,0.9-0.1
			s0.6-0.2,0.9-0.2l0.3-0.1c0-2.1-0.7-3.2-2-3.2c-0.6,0-1,0.2-1.4,0.5c-0.3,0.4-0.5,0.8-0.5,1.4C116.2,204.5,116.8,205.1,118,205.1z
			"/>
		<path class="st0" d="M127.1,201.5c-0.7-0.1-1.4-0.1-2-0.1c-0.7,0-1.2,0.3-1.6,0.8c-0.4,0.5-0.6,1.2-0.6,2.2l0.3-0.1
			c0.7-0.3,1.2-0.4,1.7-0.4c1.7,0,2.6,0.8,2.6,2.4c0,0.8-0.2,1.5-0.7,1.9c-0.5,0.5-1.1,0.7-2,0.7c-1.8,0-2.7-1.4-2.7-4.1
			c0-1.4,0.3-2.4,0.8-3c0.5-0.7,1.2-1,2.2-1c0.5,0,1.1,0,1.8,0.1l0.3,0L127.1,201.5z M124.9,204.5c-0.3,0-0.6,0-0.9,0.1
			c-0.3,0.1-0.6,0.2-0.8,0.3l-0.3,0.1c0,2.1,0.7,3.2,2,3.2c0.6,0,1.1-0.2,1.4-0.5c0.3-0.3,0.5-0.8,0.5-1.4
			C126.8,205.1,126.1,204.5,124.9,204.5z"/>
		<path class="st0" d="M128.9,208.1c0.7,0.1,1.4,0.1,2.1,0.1c1.4,0,2.2-1,2.2-3l-0.3,0.1c-0.7,0.2-1.3,0.4-1.8,0.4
			c-1.7,0-2.5-0.8-2.5-2.4c0-0.8,0.2-1.4,0.7-1.9c0.5-0.5,1.1-0.7,1.9-0.7c0.9,0,1.6,0.4,2.1,1.1c0.5,0.7,0.7,1.8,0.7,3.2
			s-0.3,2.4-0.8,3c-0.5,0.6-1.3,0.9-2.3,0.9c-0.6,0-1.2,0-1.8-0.1l-0.3,0L128.9,208.1z M131.1,205.1c0.3,0,0.6,0,0.9-0.1
			s0.6-0.2,0.9-0.2l0.3-0.1c0-2.1-0.7-3.2-2-3.2c-0.6,0-1,0.2-1.4,0.5c-0.3,0.4-0.5,0.8-0.5,1.4
			C129.3,204.5,129.9,205.1,131.1,205.1z"/>
		<path class="st0" d="M139.1,200.8v7.9h-0.7v-7.1l-2.1,1.4l-0.3-0.6l2.4-1.7H139.1z"/>
		<path class="st0" d="M142,202.4c0.2-0.6,0.5-1.1,0.9-1.3c0.4-0.2,0.9-0.4,1.4-0.4c0.5,0,1,0.1,1.3,0.2s0.6,0.4,0.9,0.7
			c0.5,0.6,0.7,1.7,0.7,3.2s-0.2,2.6-0.7,3.2s-1.2,0.9-2.1,0.9c-0.9,0-1.6-0.3-2.1-0.9c-0.5-0.6-0.7-1.6-0.7-3.1
			C141.7,203.8,141.8,203,142,202.4z M145.6,201.7c-0.3-0.2-0.7-0.3-1.1-0.3c-0.5,0-0.9,0.1-1.1,0.3c-0.6,0.4-0.9,1.5-0.9,3.3
			c0,1.2,0.2,2.1,0.5,2.6c0.3,0.5,0.8,0.7,1.5,0.7c0.5,0,0.8-0.1,1.1-0.3c0.6-0.4,0.9-1.4,0.9-3
			C146.5,203.2,146.2,202.1,145.6,201.7z"/>
		<path class="st0" d="M152.2,200.8v7.9h-0.7v-7.1l-2.1,1.4l-0.3-0.6l2.4-1.7H152.2z"/>
		<path class="st0" d="M155.2,201.5v-0.7h4.8v1.1l-3,7l-0.7-0.2l3-6.8v-0.3H155.2z"/>
		<path class="st0" d="M161.7,205.7v-0.7h3.6v0.7H161.7z"/>
		<path class="st0" d="M166.9,202.4c0.2-0.6,0.5-1.1,0.9-1.3c0.4-0.2,0.9-0.4,1.4-0.4c0.5,0,1,0.1,1.3,0.2s0.6,0.4,0.9,0.7
			c0.5,0.6,0.7,1.7,0.7,3.2s-0.2,2.6-0.7,3.2c-0.5,0.6-1.2,0.9-2.1,0.9c-0.9,0-1.6-0.3-2.1-0.9c-0.5-0.6-0.7-1.6-0.7-3.1
			C166.6,203.8,166.7,203,166.9,202.4z M170.5,201.7c-0.3-0.2-0.7-0.3-1.1-0.3c-0.5,0-0.9,0.1-1.1,0.3c-0.6,0.4-0.9,1.5-0.9,3.3
			c0,1.2,0.2,2.1,0.5,2.6s0.8,0.7,1.5,0.7c0.5,0,0.8-0.1,1.1-0.3c0.6-0.4,0.9-1.4,0.9-3C171.4,203.2,171.1,202.1,170.5,201.7z"/>
	</g>
</g>
</svg>
