<?xml version="1.0" encoding="utf-8"?>
<!-- Generator: Adobe Illustrator 22.0.0, SVG Export Plug-In . SVG Version: 6.00 Build 0)  -->
<svg version="1.1" id="Capa_1" xmlns="http://www.w3.org/2000/svg" xmlns:xlink="http://www.w3.org/1999/xlink" x="0px" y="0px"
	 viewBox="0 0 271.9 273.9" style="enable-background:new 0 0 271.9 273.9;" xml:space="preserve">
<style type="text/css">
	.st0{fill:#FFFFFF;}
	.st1{fill:none;stroke:#FFFFFF;stroke-width:12;}
	.st2{fill:none;stroke:#FFFFFF;stroke-width:4;}
	.st3{fill:none;stroke:#FFFFFF;stroke-width:2;stroke-miterlimit:10;}
	.st4{fill:none;stroke:#FFFFFF;stroke-width:2;}
</style>
<path class="st0" d="M146.4,0.9c-7,1.8-13.6,4.4-16.6,6.5c-3,2.1-6.3,7.4-9.5,15.1c-0.6,1.5-1.2,2.8-1.3,2.9
	c-0.1,0.1-0.7,0.3-1.3,0.4c-1.1,0.1-6.9,1.3-7.8,1.5c-0.3,0.1-0.8-0.1-1.6-0.8c-3.5-2.7-5.8-5.2-6.6-7.2c-0.7-1.7-0.4-4.1,1.1-7.4
	c0.7-1.5,3-5.5,4.2-7.1c0.4-0.6,0.8-1.1,0.8-1.2c0-0.4-7.3,3.6-11.3,6.2c-5,3.3-8.2,6.1-9.4,8.4c-1.6,3.1-2.9,9.4-3.4,16.8l-0.1,2.2
	L82,38c-0.8,0.4-2.8,1.6-4.3,2.5c-3.3,2-3,1.9-6.5,0.5c-3-1.2-4.5-2.1-5.9-3.4c-0.9-0.9-1.1-1.3-1.5-2.5c-0.7-2.5-0.1-8.2,1.4-13.1
	c0.2-0.8,0.3-1.4,0.3-1.4c-0.2,0-2.8,2.7-4.7,4.9c-5.5,6.3-9.1,11.9-9.8,15.2c-0.7,3.2,0.1,9.2,2,16.5l0.8,2.8L51.8,62
	c-1,1.2-2.5,3-3.4,4l-1.5,1.9h-2.4c-4.3,0-7.5-0.7-9.1-2.1c-1.6-1.4-2.7-4.3-3.3-9c-0.2-1.3-0.3-3.2-0.3-4.1c0-0.9-0.1-1.9-0.2-2.3
	c-0.1-0.6-0.2-0.6-1,1.1c-2.4,5.2-5,11.9-6,16.1c-0.5,1.9-0.6,2.8-0.6,5c0,2.4,0,2.8,0.6,4.3c1.3,3.4,3.8,7.9,6.8,12.4l1.5,2.2
	l-0.8,1.9c-0.4,1-1.3,3.2-1.9,4.9l-1.1,3l-2.2,0.7c-6.2,1.9-9.4,1.7-11.8-1c-1.7-2-4.3-6.5-5.6-10c-0.6-1.4-1-1.9-1-1.3
	c0,0.1-0.1,1.8-0.3,3.6c-0.7,7.6-0.6,14.2,0.2,18.3c0.8,4.1,3.4,7.3,10.1,12.7c1.2,0.9,2.8,2.2,3.6,2.8l1.5,1l-0.1,2.2
	c-0.1,1.2-0.1,3.6-0.1,5.3v3.1l-2.2,1.6c-1.2,0.9-3.1,2.1-4.2,2.6c-1.7,0.8-2.2,1-3.5,1.1c-1.5,0.1-1.6,0.1-3.3-0.7
	c-2.1-1.1-5.1-3.6-7.9-6.5c-1.2-1.2-2.2-2.2-2.2-2.2c-0.2,0.2,2,8.3,3.2,11.7c2,5.8,4.1,10,6,11.7c2.3,2.2,6.8,4.3,13.7,6.6l4.1,1.3
	l0.6,2.1c0.3,1.2,1,3.3,1.5,4.8l0.9,2.7l-0.4,0.8c-1.5,2.8-4.9,6.6-6.8,7.7c-0.9,0.5-1.3,0.6-2.6,0.6c-2.7,0-6.7-1.4-11.1-3.8
	c-1.4-0.7-2.5-1.3-2.5-1.2c0,0.1,0.6,1.2,1.4,2.4c4.9,7.4,10,13.5,13.3,15.7c2.3,1.6,5.2,2.2,11.4,2.7c2.1,0.1,5.1,0.2,6.7,0.1
	l3-0.2l1.3,1.9c0.7,1,2.1,2.8,3,4l1.7,2.1l-0.5,2.1c-1.4,6-3.4,9.1-6.2,10c-1.8,0.5-8.4,0.5-11.7-0.1c-1.3-0.2-2.4-0.4-2.5-0.3
	c-0.2,0.2,5,4.2,9.2,6.9c5.6,3.7,10.4,5.8,13.3,5.8c3.3,0,8.9-1.4,15.5-3.9l2.8-1.1l0.9,0.7c0.5,0.4,2.2,1.6,3.9,2.7l3,2.1l0.2,1.4
	c0.3,2.7,0.2,7.5-0.2,9.1c-0.7,2.5-2.4,3.9-6.2,5.2c-1.8,0.6-6,1.5-8,1.7c-1.9,0.2-2.3,0.3-1.9,0.5c0.2,0.1,1.8,0.7,3.5,1.3
	c9,3.1,17.4,4.7,21.1,3.9c3.3-0.7,9-4.3,15.2-9.5l2.1-1.8l3.5,1c1.9,0.5,3.9,1.1,4.4,1.2c0.8,0.3,0.9,0.3,2,2.8
	c1.6,3.5,2.2,5.8,2.3,8.1c0,2-0.3,2.8-1.7,4.5c-1.6,1.8-6.1,5-9.6,6.7c-0.8,0.4-1.4,0.8-1.4,0.9c0,0.3,9.2,0,13-0.4
	c5.9-0.6,9.9-1.6,11.9-2.9c3-1.9,6.8-6.6,11.1-13.7c1.1-1.8,1.8-2.8,2.1-2.8c0.3-0.1,1.3-0.1,2.4-0.2c1.1,0,2.8-0.1,3.8-0.1l1.9-0.1
	l2.2,2.2c3.2,3.4,5,6.2,5.2,8.5c0.3,2.6-1.9,6.5-6.5,11.6c-1.1,1.2-1.9,2.2-1.9,2.3c0.3,0.3,10.1-3.5,14.4-5.6
	c3.8-1.8,6.2-3.3,7.7-4.9c2.5-2.5,4.8-8.6,6.5-17.7c0.3-1.7,0.7-3.1,0.8-3.2c0.3-0.3,6.9-3,7.3-3c0.5,0,4.5,2,6.4,3.2
	c2,1.3,4,3.2,4.6,4.3c1.2,2.4,0.4,7.4-2.3,13.6c-0.5,1.2-0.9,2.3-0.8,2.3c0.1,0.1,3.5-2.5,6.5-5.2c3.4-3,7.7-7.5,9.1-9.6
	c2.2-3.3,2.6-5.3,2.4-12.5c-0.1-3-0.3-6-0.6-8.3l-0.5-3.6l0.7-0.6c0.4-0.3,1.7-1.5,2.9-2.6l2.1-2l1.9,0.2c5.4,0.5,9.8,1.9,11.5,3.6
	c0.7,0.7,1.5,2.5,1.8,4.4c0.4,1.8,0.5,8.8,0.2,10.6c-0.1,0.6-0.1,1,0,1c0.1,0,1.1-1.4,2.1-3.2c6-9.7,8.7-16.4,8.3-20.4
	c-0.3-3.5-2.4-9.3-5.6-15.7l-1.8-3.6l1.3-2.3c0.7-1.2,1.6-2.7,1.9-3.3c0.5-0.8,0.7-1,1.5-1.3c4.3-1.2,9.8-1.6,12-1
	c2.9,0.8,5.1,4.6,6.9,12c0.4,1.7,0.9,3.2,0.9,3.3c0.3,0.4,2.4-9.2,3-13.9c0.7-5.7,0.6-9.2-0.3-11.7c-1.1-2.9-4.5-7.3-9.9-12.7
	l-3.6-3.6l0.6-2.9c0.3-1.6,0.6-3.3,0.7-3.7c0.1-0.7,0.3-0.9,2.2-2.1c2.8-1.7,4.4-2.5,6.7-3.3c2.6-0.9,4.1-0.9,5.8-0.1
	c2.2,1.1,5.3,4.4,8.3,8.8c1.6,2.3,1.4,2.1,1.6,2c0.1-0.1,0-1.5-0.2-3.2c-1-9-2.6-16-4.5-19.5c-1.8-3.4-7.8-7.7-16.4-11.6
	c-1.5-0.7-2.7-1.2-2.7-1.3c-0.1,0-0.8-4.9-1-6.8c-0.1-1-0.1-1,1.1-2.6c3.1-3.9,6.7-6.8,8.9-7.2c1.5-0.3,3.4,0.1,5.8,1.3
	c1.8,0.9,5.4,3.2,7.4,4.8c0.7,0.5,1.3,1,1.4,1c0.3,0-0.2-1.2-2.7-6.2c-3.7-7.4-6.8-12.2-9.3-14.4c-3-2.6-9.9-4.5-20.6-5.4l-1.4-0.1
	l-1.8-3.6l-1.8-3.6l0.4-1.4c1.7-5.2,4.5-9.5,6.8-10.6c0.8-0.4,1.4-0.4,3.3-0.4c2.7,0,5.3,0.5,9.4,1.8c1.5,0.5,2.8,0.8,2.9,0.7
	c0.1,0-1.6-1.8-3.7-3.9c-7.2-7-12.2-10.7-15.9-11.7c-1.6-0.4-6.1-0.4-9.4,0c-2.8,0.4-5.8,0.9-9.2,1.7l-2.2,0.5l-3.1-2.9l-3.1-3
	l0.1-2.9c0.2-4.8,0.9-7.9,2.2-9.7c1.5-2.2,5.5-3.2,12.9-3.4c1.9,0,3.6-0.1,3.6-0.2c0.1-0.1-8.2-4.2-11.2-5.4
	c-7.7-3.2-11.9-3.9-16-2.5c-3.3,1.1-9.9,4.5-13.9,7.2l-1.3,0.9l-2.6-1.2c-1.4-0.6-3.3-1.5-4.1-1.8l-1.5-0.6l-0.5-1.4
	c-1.5-4.2-2.1-9.4-1.2-11.3c1.1-2.4,4.6-4.8,10.5-7.1c1.3-0.5,2.7-1,2.9-1.1c0.7-0.3,0-0.5-3-0.9c-5.8-0.7-7.6-0.8-12.3-0.8
	c-5.5,0-7.3,0.3-9.7,1.4c-3.3,1.6-7.4,5.5-13.9,13.4c-0.4,0.5-0.5,0.5-2.1,0.3c-1.6-0.2-1.8-0.3-2.4-1c-2.6-3.1-4.7-6.8-5.2-8.9
	c-0.2-0.6-0.2-1.6-0.2-2.3c0.2-2.5,2.8-6.7,6.8-11c1-1,1.7-1.9,1.6-1.8C149.8,0,148.3,0.4,146.4,0.9z M145.9,36
	c7.9,0.8,14.4,2.2,21.3,4.4c22.1,7.2,41,21.7,53.7,41.2c10.7,16.4,16.4,35.7,16.4,55.3c0,35.7-18.6,68.6-49.4,87
	c-11.3,6.8-24.5,11.5-37.6,13.3c-5.5,0.8-8.1,1-14.4,1c-9.6,0-17-0.9-25.7-3.2c-36-9.4-64-37.9-72.8-73.9c-1-4.2-1.7-8.1-2.3-12.9
	c-0.4-3.4-0.5-5-0.5-11.3c0-6.3,0.1-7.9,0.5-11.3c1.5-12,4.4-22.4,9.5-32.9c14.6-30.3,43.6-51.5,76.8-56.2c2.8-0.4,6.6-0.8,9.6-1
	C133.8,35.5,142.8,35.7,145.9,36z"/>
<path class="st1" d="M227,137c0,50.2-40.9,91-91.5,91C84.9,228,44,187.2,44,137c0-50.2,40.9-91,91.5-91C186,46,227,86.8,227,137z"/>
<path class="st0" d="M90.1,150.8c-1.4,0.3-2.7,0.5-3.8,0.5s-2-0.1-2.7-0.4c-0.7-0.3-1.2-0.7-1.6-1.3c-0.4-0.6-0.7-1.3-0.8-2.2
	c-0.1-0.8-0.2-1.9-0.2-3.1c0-2.6,0.4-4.5,1.1-5.5c0.7-1,2.1-1.6,4.1-1.6c1.1,0,2.5,0.2,4,0.5l-0.1,2.2c-1.3-0.2-2.4-0.3-3.3-0.3
	c-0.9,0-1.5,0.1-1.9,0.4c-0.4,0.2-0.7,0.7-0.8,1.3c-0.2,0.7-0.3,1.8-0.3,3.3s0.2,2.7,0.5,3.3c0.4,0.6,1.1,0.9,2.2,0.9
	c1.1,0,2.3-0.1,3.5-0.3L90.1,150.8z M91.2,151l3.1-13.6h5.2l3.1,13.6h-2.8l-0.5-2.5h-4.8l-0.5,2.5H91.2z M96.4,139.7l-1.4,6.5h3.7
	l-1.4-6.5H96.4z M107.1,146.4v4.6h-2.8v-13.6h5.3c3.2,0,4.8,1.5,4.8,4.5c0,1.8-0.7,3.1-2,3.9l1.9,5.2h-3l-1.6-4.6H107.1z
	 M109.7,144.1c0.7,0,1.1-0.2,1.5-0.6c0.3-0.4,0.5-0.9,0.5-1.6s-0.2-1.2-0.5-1.6c-0.3-0.4-0.8-0.6-1.5-0.6h-2.5v4.3H109.7z
	 M121.7,147h-2.2v4h-2.8v-13.6h5c3.2,0,4.8,1.6,4.8,4.7c0,1.6-0.4,2.8-1.2,3.7C124.5,146.6,123.3,147,121.7,147z M119.5,144.7h2.2
	c1.4,0,2.1-0.9,2.1-2.6c0-0.8-0.2-1.4-0.5-1.8c-0.3-0.4-0.9-0.6-1.6-0.6h-2.2V144.7z M128.5,151v-13.6h2.8V151H128.5z M133,139.8
	v-2.4h10v2.4h-3.6V151h-2.8v-11.2H133z M144.8,151v-13.6h8.8v2.4h-6v3.2h4.8v2.4h-4.8v3.3h6v2.4H144.8z M164.4,150.8
	c-1.4,0.3-2.7,0.5-3.8,0.5c-1.1,0-2-0.1-2.7-0.4c-0.7-0.3-1.2-0.7-1.6-1.3c-0.4-0.6-0.7-1.3-0.8-2.2c-0.1-0.8-0.2-1.9-0.2-3.1
	c0-2.6,0.4-4.5,1.1-5.5c0.7-1,2.1-1.6,4.1-1.6c1.1,0,2.5,0.2,4,0.5l-0.1,2.2c-1.3-0.2-2.4-0.3-3.3-0.3c-0.9,0-1.5,0.1-1.9,0.4
	c-0.4,0.2-0.7,0.7-0.8,1.3c-0.2,0.7-0.3,1.8-0.3,3.3s0.2,2.7,0.5,3.3c0.4,0.6,1.1,0.9,2.2,0.9c1.1,0,2.3-0.1,3.5-0.3L164.4,150.8z
	 M175.9,151v-2.2h-5.6v-2.1l3.3-8.9h3l-3.5,8.6h2.8v-3.7h2.8v3.7h1.3v2.4h-1.3v2.2H175.9z M181.9,138.3c1.2-0.5,2.6-0.7,4.1-0.7
	c1.5,0,2.6,0.3,3.3,0.9c0.7,0.6,1,1.5,1,2.8s-0.5,2.3-1.5,2.9c0.6,0.3,1.1,0.7,1.4,1.1c0.3,0.4,0.4,1,0.4,1.8c0,1.4-0.4,2.5-1.1,3.2
	c-0.7,0.7-1.8,1-3.4,1c-1.2,0-2.4-0.2-3.7-0.5l-0.6-0.2l0.1-2.1c1.5,0.3,2.7,0.4,3.8,0.4c1.4,0,2.1-0.6,2.1-1.8
	c0-0.5-0.2-0.9-0.5-1.2c-0.3-0.3-0.8-0.4-1.4-0.4h-2.7v-2.3h2.7c0.4,0,0.8-0.2,1.2-0.6c0.3-0.4,0.5-0.8,0.5-1.2c0-0.9-0.7-1.4-2-1.4
	c-0.9,0-1.9,0.1-2.9,0.3l-0.5,0.1L181.9,138.3z"/>
<path class="st0" d="M104.2,183H101v-9.5h3.2c0.8,0,1.5,0.1,2,0.3c0.5,0.2,0.9,0.5,1.2,0.9c0.3,0.4,0.5,0.9,0.6,1.4
	c0.1,0.5,0.2,1.2,0.2,2.1c0,0.9-0.1,1.6-0.2,2.1c-0.1,0.6-0.3,1.1-0.6,1.5c-0.3,0.4-0.7,0.8-1.2,1C105.7,182.9,105,183,104.2,183z
	 M106.2,179.2c0-0.3,0-0.7,0-1.2c0-0.5,0-1-0.1-1.3c0-0.3-0.1-0.6-0.3-0.9c-0.1-0.3-0.3-0.4-0.6-0.5c-0.3-0.1-0.6-0.2-1.1-0.2h-1.3
	v6.2h1.3c0.7,0,1.2-0.2,1.5-0.5C106,180.5,106.2,180,106.2,179.2z M111.3,180.3c0,0.4,0.1,0.7,0.3,0.9c0.2,0.2,0.5,0.3,1,0.3
	c0.9,0,1.6,0,2.3-0.1l0.4,0l0,1.4c-1.1,0.3-2,0.4-2.9,0.4c-1.1,0-1.8-0.3-2.3-0.8c-0.5-0.6-0.7-1.5-0.7-2.7c0-2.5,1-3.8,3.1-3.8
	c2,0,3.1,1.1,3.1,3.2l-0.1,1.3H111.3z M113.7,178.8c0-0.6-0.1-0.9-0.3-1.2c-0.2-0.2-0.5-0.3-0.9-0.3c-0.4,0-0.8,0.1-0.9,0.4
	c-0.2,0.2-0.3,0.6-0.3,1.1H113.7z M121.9,177.7c-1.2-0.1-2-0.2-2.4-0.2c-0.5,0-0.8,0-0.9,0.1c-0.1,0.1-0.2,0.2-0.2,0.4
	c0,0.2,0.1,0.3,0.3,0.4c0.2,0.1,0.7,0.2,1.4,0.3c0.8,0.1,1.3,0.3,1.6,0.7c0.3,0.3,0.5,0.8,0.5,1.5c0,1.5-0.9,2.3-2.8,2.3
	c-0.6,0-1.4-0.1-2.2-0.3l-0.4-0.1l0.1-1.6c1.2,0.1,2,0.2,2.4,0.2c0.5,0,0.8,0,0.9-0.1c0.2-0.1,0.3-0.2,0.3-0.4
	c0-0.2-0.1-0.3-0.3-0.4c-0.2-0.1-0.6-0.2-1.3-0.3c-0.7-0.1-1.3-0.3-1.6-0.6c-0.4-0.3-0.5-0.8-0.5-1.5c0-0.7,0.3-1.3,0.8-1.7
	c0.5-0.4,1.2-0.6,1.9-0.6c0.6,0,1.3,0.1,2.3,0.3l0.5,0.1L121.9,177.7z M129.5,173.2v9.8h-1.9v-0.3c-0.7,0.3-1.2,0.5-1.7,0.5
	c-1,0-1.7-0.3-2.1-0.9s-0.6-1.5-0.6-2.8c0-1.3,0.2-2.2,0.7-2.8c0.5-0.6,1.2-0.9,2.2-0.9c0.3,0,0.7,0,1.2,0.1l0.3,0.1v-2.8H129.5z
	 M127.4,181.3l0.2,0v-3.7c-0.5-0.1-1-0.1-1.4-0.1c-0.8,0-1.1,0.7-1.1,2c0,0.7,0.1,1.2,0.3,1.6s0.4,0.5,0.8,0.5
	C126.5,181.5,127,181.4,127.4,181.3z M132.7,180.3c0,0.4,0.1,0.7,0.3,0.9c0.2,0.2,0.5,0.3,1,0.3c0.9,0,1.6,0,2.3-0.1l0.4,0l0,1.4
	c-1.1,0.3-2,0.4-2.9,0.4c-1.1,0-1.8-0.3-2.3-0.8s-0.7-1.5-0.7-2.7c0-2.5,1-3.8,3.1-3.8c2,0,3.1,1.1,3.1,3.2l-0.1,1.3H132.7z
	 M135.1,178.8c0-0.6-0.1-0.9-0.3-1.2c-0.2-0.2-0.5-0.3-0.9-0.3c-0.4,0-0.8,0.1-0.9,0.4c-0.2,0.2-0.3,0.6-0.3,1.1H135.1z
	 M146.4,173.7v9.2h-1.9v-7.1l-2,1.3l-0.9-1.4l3.1-2H146.4z M151.8,181.5c1.2,0,1.9-0.8,1.9-2.3l-0.3,0.1c-0.6,0.2-1.1,0.3-1.5,0.3
	c-1,0-1.8-0.2-2.4-0.7c-0.6-0.5-0.8-1.2-0.8-2.2c0-1,0.3-1.7,0.9-2.3c0.6-0.6,1.5-0.8,2.6-0.8c1.1,0,2,0.4,2.6,1.2
	c0.6,0.8,0.9,2,0.9,3.7c0,1.6-0.3,2.8-1,3.5c-0.7,0.7-1.6,1.1-2.9,1.1c-0.7,0-1.5-0.1-2.3-0.3l-0.4-0.1l0.2-1.5
	C150.2,181.4,151.1,181.5,151.8,181.5z M152.1,177.9c0.4,0,0.9-0.1,1.4-0.3l0.2-0.1c0-1.6-0.5-2.4-1.6-2.4c-0.4,0-0.8,0.1-1,0.4
	c-0.2,0.2-0.4,0.6-0.4,1C150.7,177.5,151.2,177.9,152.1,177.9z M163.1,175.5c-1-0.1-1.8-0.2-2.5-0.2c-1.3,0-2,0.7-2,2.2l0.3-0.1
	c0.6-0.2,1.1-0.3,1.5-0.3c1.1,0,1.8,0.2,2.4,0.7s0.8,1.2,0.8,2.3c0,1-0.3,1.8-0.9,2.3c-0.6,0.5-1.5,0.8-2.6,0.8
	c-1.1,0-2-0.4-2.6-1.2c-0.6-0.8-0.9-2-0.9-3.7s0.3-2.8,1-3.5c0.7-0.8,1.6-1.1,2.9-1.1c0.7,0,1.5,0.1,2.3,0.3l0.4,0.1L163.1,175.5z
	 M160.3,178.7c-0.4,0-0.9,0.1-1.4,0.2l-0.2,0.1c0,1.6,0.5,2.4,1.6,2.4c0.4,0,0.8-0.1,1-0.4c0.2-0.3,0.4-0.6,0.4-1
	C161.6,179.2,161.2,178.7,160.3,178.7z M165.5,174.2c0.6-0.4,1.4-0.7,2.4-0.7c1,0,1.8,0.2,2.5,0.7c0.6,0.4,0.9,1.1,0.9,1.9
	c0,0.5-0.1,0.9-0.2,1.2c-0.1,0.3-0.4,0.6-0.8,0.9c0.4,0.3,0.7,0.7,0.9,1c0.2,0.3,0.3,0.7,0.3,1.3c0,0.9-0.3,1.6-1,2
	c-0.7,0.4-1.5,0.6-2.6,0.6c-2.3,0-3.5-0.8-3.5-2.5c0-0.6,0.1-1.1,0.3-1.4c0.2-0.3,0.5-0.7,0.9-1c-0.4-0.3-0.7-0.6-0.8-0.9
	c-0.1-0.3-0.2-0.7-0.2-1.2C164.6,175.3,164.9,174.7,165.5,174.2z M166.5,180.2c0,0.8,0.5,1.2,1.4,1.2c1,0,1.5-0.4,1.5-1.2
	c0-0.5-0.3-0.8-0.8-1.1h-1.2C166.8,179.3,166.5,179.7,166.5,180.2z M168,175.3c-0.4,0-0.7,0.1-1,0.3s-0.3,0.5-0.3,0.9
	c0,0.4,0.2,0.7,0.7,1h1.2c0.5-0.3,0.7-0.7,0.7-1.1C169.3,175.7,168.8,175.3,168,175.3z"/>
<path class="st2" d="M45,164h183"/>
<path class="st2" d="M59,193.1h152"/>
<g>
	<path class="st3" d="M163.3,115c-1.6,5.1-5.8,5.7-7.1,5.7c-0.3,0-0.5-0.1-0.7-0.3l-16.9-18.1c-0.3-0.4-0.3-0.9,0-1.3l3.8-4
		c0.3-0.4,0.9-0.4,1.3-0.1c2.9,2.6,14.9,13.1,19.3,17.1C163.3,114.3,163.4,114.7,163.3,115z"/>
	<g>
		<path class="st3" d="M133.2,88l22.7-18c0,0,0.1,0,0.1,0l5.9,5.9c0,0,0,0,0,0l1,4.8c0,0.1,0,0.1-0.1,0.1l-5.7-1
			c-0.1,0-0.1,0.1-0.1,0.1l1.9,6.7c0,0.1,0,0.1-0.1,0.1l-6.7-1.9c-0.1,0-0.1,0-0.1,0.1l1.9,5.7c0,0.1,0,0.1-0.1,0.1l-6.7-1.9
			c-0.1,0-0.1,0-0.1,0.1l1.9,5.7c0,0.1,0,0.1-0.1,0.1l-5.6-1.9c-0.1,0-0.1,0-0.1,0.1L145,98"/>
		<path class="st4" d="M128.5,91.4l-8.9,7.1c-0.1,0.1-0.2,0.1-0.3,0.1l-1.3-0.3c-0.6-0.2-1.3,0-1.8,0.4l-8.2,6.5
			c-0.5,0.4-0.6,1.2-0.2,1.8l14,15.7c0.6,0.7,1.8,0.8,2.5,0.1l8-7.8c0.1-0.1,0.1-0.1,0.1-0.2l1.5-8.3c0-0.2,0.3-0.4,0.5-0.3l3.1,1.5
			c0.2,0.1,0.5,0,0.5-0.3l0.4-6.1"/>
		<line class="st4" x1="119" y1="98.2" x2="138" y2="107.8"/>
		<path class="st4" d="M113.6,107.6l7.9,7.9c0.3,0.3,0.7,0.3,1,0l5.7-4.9c0.4-0.3,0.3-0.9-0.1-1.2l-9.7-6.2c-0.3-0.2-0.6-0.2-0.9,0
			l-3.9,3.2C113.3,106.7,113.2,107.3,113.6,107.6z"/>
	</g>
	<g>
		<path class="st3" d="M139,101l-14.4-14.4c-0.3-0.3-0.9-0.3-1.2,0l-2.2,2.2c-0.2,0.2-0.4,0.2-0.6,0.2h-2.2c-0.3,0-0.5,0.1-0.7,0.3
			l-1,1.3c-0.1,0.1-0.2,0.3-0.2,0.4l-0.4,3c-0.1,0.5-0.6,0.8-1.1,0.7l-0.3-0.1c-1.4-0.4-2.7-1.2-3.7-2.3l0,0c-1.1-1.2-1.8-2.7-2-4.4
			l0,0c0-0.5,0.3-0.9,0.8-0.9h2.8c0.2,0,0.4-0.1,0.6-0.2l1-0.9c0.2-0.2,0.3-0.5,0.3-0.8l-0.5-2.6c-0.1-0.3,0.1-0.6,0.3-0.8l8.6-7.3
			c0.2-0.2,0.5-0.3,0.8-0.2l1,0.4c0.2,0.1,0.5,0.1,0.7-0.1l6.6-3.8c0.8-0.4,1.6,0.4,1.1,1.2l-3.8,6c-0.2,0.2-0.2,0.6,0,0.8l0.4,0.8
			c0.2,0.3,0.1,0.7-0.2,1l-1.6,1.5c-0.3,0.3-0.4,0.9,0,1.2L142,98"/>
		<line class="st3" x1="113.9" y1="87.2" x2="117.4" y2="90.7"/>
		<line class="st3" x1="123.3" y1="74.2" x2="129.7" y2="80.2"/>
	</g>
</g>
</svg>
