<?xml version="1.0" encoding="utf-8"?>
<!-- Generator: Adobe Illustrator 22.0.0, SVG Export Plug-In . SVG Version: 6.00 Build 0)  -->
<svg version="1.1" id="Capa_1" xmlns="http://www.w3.org/2000/svg" xmlns:xlink="http://www.w3.org/1999/xlink" x="0px" y="0px"
	 viewBox="0 0 950 633" style="enable-background:new 0 0 950 633;" xml:space="preserve">
<style type="text/css">
	.st0{fill:#F3F2F2;}
	.st1{fill:#E7E6E5;}
	.st2{fill:#FFFFFF;}
	.st3{fill:#E0ACB1;}
	.st4{fill:#3E3C55;}
	.st5{fill:#E5E4E4;}
	.st6{fill:#2F2E40;}
	.st7{fill:#DD9E48;}
	.st8{fill:#E1AFB3;}
	.st9{fill:#995F67;}
</style>
<g>
	<path class="st0" d="M63.9,477c-4.5,0-9,0.2-13.4,0.6l-0.6,0.1C20.6,480.2-0.9,495,0,512l0.2,3.1c0.1,2,0.2,4,0.3,6.4
		c0.1,1.1,1.6,2,3.6,2h720.2c50.8-0.3,101.4-0.7,150.4-1.1c9.2,0,18.4-0.5,27.5-1.4c13.6-1.6,23.1-4.7,28.9-9.6h0
		c7.2-6.1,7.5-13.7,7-22.3c-0.9-17.4-1.8-35.7-2.7-53.9c-0.8-16.1-1.6-32.1-2.3-47.4c-0.5-9.1-1.5-17.1-9.8-23.3
		c-8.9-6.6-25.2-10-48.4-10c-0.3,0-0.6,0-0.8,0c-72.6,0.3-144.5,24.9-179,61.2c-4,4.2-7.7,8.7-11.2,13c-5.3,6.4-10.7,13-17.3,18.9
		c-3.5,3.2-7.3,6.2-11.4,8.8c-0.3,0.2-0.6,0.4-0.9,0.6c-0.8,0.5-1.6,1-2.4,1.4c-4.6,2.6-9.5,4.8-14.5,6.5l-0.5,0.2
		c-0.4,0.1-0.8,0.3-1.2,0.4c-2.9,0.9-5.9,1.7-9,2.4c-13.1,2.9-28.1,3.5-44.4,2c-15-1.4-29.8-4.4-44.1-8.9
		c-15.1-4.7-29.3-10.6-42.9-16.3c-6-2.5-12.2-5.1-18.4-7.5c-1.2-0.5-2.3-0.9-3.5-1.4c-7.6-2.9-14.5-5.3-21-7.4
		c-16.2-5.1-33.1-8.1-50.1-9.1c-18.1-1-34,0.9-47.3,5.4c-3.7,1.3-7.2,2.8-10.7,4.5c-15.8,8.1-25.5,20-34.9,31.5
		c-11.7,14.3-23.8,29.1-47.7,36.8c-27.6,8.9-67.8,5.2-96.2-1.2c-8.9-2-17.9-4.3-26.5-6.6c-3.5-0.9-7-1.8-10.5-2.7
		c-6.9-1.7-12.5-3.1-17.7-4.2l-1.6-0.4c-0.9-0.2-1.8-0.4-2.8-0.6c-6.2-1.3-11.9-2.3-17.6-3.1l-1.3-0.2c-2.7-0.3-5.2-0.6-7.7-0.9
		l-1-0.1C73.9,477.2,68.9,477,63.9,477z"/>
	<path class="st1" d="M808.7,496.1c20.3-18,50.4-27,75.7-17c-25.9,14.2-45.9,37-56.5,64.3c-4,10.6-7.4,22.7-17.3,28.4
		c-6.2,3.5-13.8,3.7-20.7,2c-6.9-1.7-13.2-5.1-19.5-8.5l-1.8,0C776.6,539.5,788.4,514,808.7,496.1z"/>
	<path class="st2" d="M884.3,479.6c-22.4,2.9-43.3,12.6-59.8,27.8c-3.6,3.2-6.7,7-9.1,11.1c-2.2,4.1-3.3,8.8-3.1,13.4
		c0.1,4.4,0.7,8.8-0.2,13.1c-1.1,4.4-4,8.2-8.1,10.4c-4.9,2.8-10.6,3.7-16.2,4.4c-6.2,0.7-12.6,1.4-18,4.9c-0.6,0.4-1.3-0.6-0.6-1
		c9.3-6,21.1-3.8,31.2-7.8c4.7-1.9,8.8-5.1,10.3-10c1.3-4.3,0.6-8.9,0.5-13.3c-0.3-4.5,0.6-9.1,2.5-13.2c2.2-4.3,5.1-8.1,8.6-11.4
		c7.8-7.6,16.7-13.9,26.5-18.7c11.1-5.6,23.1-9.2,35.5-10.8C885,478.4,885,479.6,884.3,479.6L884.3,479.6z"/>
	<path class="st2" d="M829.5,502.2c-4.6-6.3-3.8-15,1.8-20.5c0.6-0.5,1.4,0.3,0.9,0.8c-5.2,5.1-5.9,13.2-1.6,19.1
		C831,502.3,830,502.9,829.5,502.2L829.5,502.2z"/>
	<path class="st2" d="M812,529.8c7.7,1.3,15.6-0.2,22.2-4.4c0.7-0.4,1.3,0.6,0.6,1c-6.9,4.3-15.1,5.9-23.1,4.5
		C810.9,530.8,811.2,529.7,812,529.8z"/>
	<path class="st2" d="M860,485.3c1.2,2.8,3.8,4.7,6.8,5.2c0.8,0.1,0.5,1.3-0.3,1.1c-3.3-0.6-6.2-2.7-7.6-5.8
		c-0.2-0.3-0.1-0.6,0.2-0.8C859.4,484.9,859.8,485,860,485.3L860,485.3z"/>
	<path class="st1" d="M912.2,565.9c-0.5-0.1-1-0.1-1.4-0.2c-6.5-0.8-13-1.2-19.5-1c-0.5,0-1,0-1.5,0c-15.7,0.6-31.1,4.1-45.4,10.3
		c-5.7,2.5-11.2,5.4-16.5,8.6c-7.3,4.5-14.8,10-22.9,11.9c-0.8,0.2-1.7,0.4-2.6,0.5l-33.6-28.7c0-0.1-0.1-0.2-0.1-0.3l-1.4-1.1
		c0.3-0.2,0.5-0.4,0.8-0.6c0.2-0.1,0.3-0.2,0.5-0.3c0.1-0.1,0.2-0.1,0.3-0.2c0,0,0.1,0,0.1-0.1c0.1-0.1,0.2-0.1,0.3-0.2
		c1.5-1.1,3.1-2.1,4.6-3.2c0,0,0,0,0,0c11.7-8.1,24.4-14.8,37.7-19.9c0.4-0.1,0.8-0.3,1.2-0.4c6-2.2,12.2-3.9,18.4-5.1
		c3.4-0.6,6.9-1.1,10.4-1.4c9-0.8,18.1-0.1,26.9,1.9c17.6,4,33.6,13.5,43.2,28.4C911.8,565.1,912,565.5,912.2,565.9z"/>
	<path class="st2" d="M911.8,566.2c-19.6-11-42.3-15.6-64.7-13.2c-4.8,0.4-9.6,1.6-14.1,3.5c-4.3,2-8,5-10.7,8.9
		c-2.6,3.5-4.8,7.5-8.2,10.3c-3.6,2.9-8.2,4.2-12.8,3.5c-5.7-0.7-10.7-3.4-15.6-6.1c-5.4-3.1-11-6.4-17.3-6.8
		c-0.8-0.1-0.6-1.2,0.1-1.2c11.1,0.8,19.2,9.5,29.6,12.3c4.9,1.3,10.2,1.2,14.3-1.9c3.7-2.7,5.9-6.7,8.5-10.3
		c2.6-3.8,6-6.9,10.1-9.1c4.4-2.1,9-3.5,13.9-4c10.8-1.4,21.8-1.1,32.6,0.8c12.3,2.2,24.1,6.4,34.9,12.4
		C913.2,565.7,912.5,566.6,911.8,566.2L911.8,566.2z"/>
	<path class="st2" d="M854.3,551.8c0.2-7.8,6.1-14.3,13.9-15.3c0.8-0.1,1,1.1,0.2,1.2c-7.3,1-12.8,7-12.9,14.3
		C855.4,552.7,854.3,552.6,854.3,551.8L854.3,551.8z"/>
	<path class="st2" d="M823.4,563.4c5.3,5.6,12.6,9.1,20.4,9.7c0.8,0.1,0.6,1.2-0.1,1.2c-8.1-0.6-15.7-4.2-21.2-10.1
		C822,563.6,822.9,562.9,823.4,563.4z"/>
	<path class="st2" d="M889,556.3c-0.7,2.9,0.1,6,2.2,8.2c0.5,0.6-0.4,1.3-0.9,0.7c-2.3-2.4-3.3-5.9-2.5-9.1c0-0.3,0.3-0.5,0.7-0.5
		C888.8,555.7,889,556,889,556.3L889,556.3z"/>
	<path class="st1" d="M278.2,513.9c16.6-24.8,46.3-42.7,76.2-38.9c-23.7,22.3-38.7,52.1-42.3,84.2c-1.3,12.4-1.5,26.3-10.5,35.1
		c-5.6,5.4-13.7,7.7-21.6,7.8c-7.9,0.1-15.6-1.8-23.2-3.7l-1.9,0.4C256.1,569.2,261.6,538.7,278.2,513.9z"/>
	<path class="st2" d="M354.4,475.7c-23.1,9.2-42.8,25.3-56.1,46.1c-2.9,4.4-5.2,9.3-6.6,14.4c-1.2,5-1,10.3,0.5,15.2
		c1.3,4.6,3.3,9.2,3.4,14.1c0.1,5-2,9.9-5.7,13.3c-4.5,4.4-10.3,6.9-16.1,9.1c-6.4,2.5-13.1,5-17.9,10.1c-0.6,0.6-1.5-0.3-0.9-0.9
		c8.3-8.9,21.5-9.8,31.1-16.9c4.5-3.3,8-7.9,8.2-13.6c0.2-5-1.8-9.7-3.2-14.4c-1.6-4.8-1.9-9.9-1.1-14.8c1.1-5.2,3.2-10.1,6-14.6
		c6.2-10.2,14-19.4,23.1-27.2c10.3-9,22.1-16.2,34.9-21.3C354.8,474.1,355.1,475.4,354.4,475.7L354.4,475.7z"/>
	<path class="st2" d="M302.2,514.9c-6.7-5.5-8.3-15-3.9-22.4c0.4-0.7,1.6-0.1,1.2,0.6c-4.2,6.9-2.6,15.7,3.7,20.8
		C303.8,514.5,302.8,515.4,302.2,514.9L302.2,514.9z"/>
	<path class="st2" d="M291.2,549.2c8.6-0.7,16.6-4.5,22.5-10.8c0.6-0.6,1.5,0.3,0.9,0.9c-6.1,6.5-14.5,10.5-23.4,11.2
		C290.4,550.5,290.4,549.2,291.2,549.2L291.2,549.2z"/>
	<path class="st2" d="M330,488.3c2.1,2.6,5.4,4,8.8,3.7c0.9-0.1,0.9,1.2,0,1.3c-3.7,0.3-7.4-1.2-9.7-4.1c-0.2-0.3-0.3-0.7,0-0.9
		C329.3,488.1,329.7,488.1,330,488.3L330,488.3z"/>
	<path class="st1" d="M408.6,560.2c-0.5,0.1-1.1,0.1-1.6,0.2c-7.1,0.9-14.2,2.3-21.1,4.3c-0.5,0.1-1.1,0.3-1.6,0.5
		c-16.6,5-32.1,12.9-45.7,23.5c-5.4,4.2-10.5,8.8-15.2,13.8c-6.5,6.9-13,14.8-21.2,19c-0.8,0.4-1.7,0.8-2.6,1.2l-44.1-21.5
		c-0.1-0.1-0.2-0.2-0.2-0.3l-1.8-0.8c0.2-0.3,0.5-0.6,0.7-0.8c0.1-0.2,0.3-0.3,0.4-0.5c0.1-0.1,0.2-0.2,0.3-0.3c0,0,0.1-0.1,0.1-0.1
		c0.1-0.1,0.2-0.2,0.2-0.3c1.3-1.6,2.7-3.1,4-4.7c0,0,0,0,0,0c10.4-11.7,21.9-22.7,34.7-31.7c0.4-0.3,0.8-0.5,1.2-0.8
		c5.8-4,11.9-7.5,18.3-10.5c3.5-1.6,7.1-3.1,10.7-4.4c9.4-3.3,19.3-5.1,29.3-5.4c19.9-0.5,39.8,5.2,54.2,18.5
		C407.9,559.6,408.3,559.9,408.6,560.2z"/>
	<path class="st2" d="M408.3,560.7c-24.1-6.4-49.6-5.1-73,3.6c-5.1,1.8-9.8,4.4-14,7.6c-4,3.3-7.1,7.6-8.9,12.4
		c-1.8,4.5-3,9.3-5.8,13.3c-3,4.1-7.6,6.7-12.7,7.3c-6.3,0.8-12.4-0.7-18.4-2.3c-6.6-1.8-13.5-3.8-20.5-2.5c-0.8,0.2-1-1.1-0.2-1.3
		c12.1-2.2,23.2,4.9,35.2,5c5.6,0.1,11.2-1.6,14.8-6c3.2-3.9,4.5-8.8,6.2-13.4c1.7-4.8,4.5-9,8.2-12.5c4.1-3.4,8.7-6.2,13.7-8.1
		c11.2-4.5,23-7.2,35.1-8.1c13.7-1.1,27.6,0.2,40.9,3.7C409.6,559.8,409.1,561,408.3,560.7L408.3,560.7z"/>
	<path class="st2" d="M342.6,561.1c-2-8.4,2.5-16.9,10.6-20.2c0.8-0.3,1.3,0.9,0.5,1.2c-7.5,3-11.7,11-9.8,18.8
		C344.2,561.7,342.8,561.9,342.6,561.1L342.6,561.1z"/>
	<path class="st2" d="M313,582c7.3,4.6,16.1,6.3,24.6,4.8c0.8-0.2,1,1.1,0.2,1.3c-8.8,1.6-18-0.2-25.5-5
		C311.4,582.5,312.2,581.5,313,582z"/>
	<path class="st2" d="M381.1,556.4c0.1,3.3,1.8,6.4,4.7,8.2c0.7,0.4-0.1,1.5-0.8,1.1c-3.2-2-5.1-5.4-5.2-9.1c0-0.4,0.2-0.7,0.6-0.7
		C380.7,555.8,381,556,381.1,556.4z"/>
	<path class="st3" d="M396.3,328c4.2-4.1,4.2-10.7,0-14.8c-0.4-0.4-0.9-0.8-1.4-1.2l17.3-82.7l-18.7,5.8l-14,80
		c-3.1,5-1.5,11.4,3.6,14.5C387.4,332.1,392.8,331.5,396.3,328L396.3,328z"/>
	<path class="st1" d="M436.4,107l-11.6-8.6c0,0-10.2-0.7-12,17.5c-1.8,18.2-13.1,87.9-13.1,87.9l-17.7,80.9l24.6,5.3l19-87.3
		l19-60.3L436.4,107z"/>
	<path class="st4" d="M427.5,256.7l-55.6-42.6c-1.8-1.4-2.1-3.9-0.7-5.7l37.8-47.9c1.4-1.8,4-2.1,5.8-0.7l55.6,42.6
		c1.8,1.4,2.1,3.9,0.7,5.7L433.4,256C431.9,257.8,429.3,258.1,427.5,256.7z"/>
	<path class="st2" d="M427.2,252.3l-50.9-39c-1.6-1.2-1.9-3.5-0.6-5.1l34.3-43.5c1.2-1.6,3.6-1.9,5.2-0.6l50.9,39
		c1.6,1.2,1.9,3.5,0.6,5.1l-34.3,43.5C431.1,253.3,428.8,253.5,427.2,252.3z"/>
	<path class="st5" d="M383,212.2c-0.4-0.3-0.5-0.9-0.2-1.3l17.3-21.9c0.3-0.4,0.9-0.5,1.3-0.2c0.4,0.3,0.5,0.9,0.2,1.3l0,0
		l-17.3,21.9C384,212.5,383.4,212.5,383,212.2z"/>
	<path class="st5" d="M385.9,214.4c-0.4-0.3-0.5-0.9-0.2-1.3l17.3-21.9c0.3-0.4,0.9-0.5,1.3-0.2c0.4,0.3,0.5,0.9,0.2,1.3l-17.3,21.9
		C386.9,214.7,386.3,214.7,385.9,214.4z"/>
	<path class="st5" d="M398.6,204.2c-0.4-0.3-0.5-0.9-0.2-1.3l7.5-9.5c0.3-0.4,0.9-0.5,1.3-0.2c0.4,0.3,0.5,0.9,0.2,1.3l0,0l-7.5,9.5
		C399.5,204.4,399,204.5,398.6,204.2z"/>
	<path class="st5" d="M402.4,222.8c-0.4-0.3-0.5-0.9-0.2-1.3l27.3-34.6c0.3-0.4,0.9-0.5,1.3-0.2c0.4,0.3,0.5,0.9,0.2,1.3l0,0
		l-27.3,34.6C403.4,223.1,402.8,223.2,402.4,222.8z"/>
	<path class="st5" d="M405.3,225c-0.4-0.3-0.5-0.9-0.2-1.3l27.3-34.6c0.3-0.4,0.9-0.5,1.3-0.2c0.4,0.3,0.5,0.9,0.2,1.3l-27.3,34.6
		C406.3,225.3,405.7,225.3,405.3,225z"/>
	<path class="st5" d="M411.8,230c-0.4-0.3-0.5-0.9-0.2-1.3l27.3-34.6c0.3-0.4,0.9-0.5,1.3-0.2c0.4,0.3,0.5,0.9,0.2,1.3l-27.3,34.6
		C412.8,230.3,412.2,230.3,411.8,230z"/>
	<path class="st5" d="M414.7,232.2c-0.4-0.3-0.5-0.9-0.2-1.3l27.3-34.6c0.3-0.4,0.9-0.5,1.3-0.2c0.4,0.3,0.5,0.9,0.2,1.3L416,232.1
		C415.6,232.5,415.1,232.5,414.7,232.2z"/>
	<path class="st5" d="M421.2,237.2c-0.4-0.3-0.5-0.9-0.2-1.3l27.3-34.6c0.3-0.4,0.9-0.5,1.3-0.2c0.4,0.3,0.5,0.9,0.2,1.3l0,0
		l-27.3,34.6C422.2,237.4,421.6,237.5,421.2,237.2z"/>
	<path class="st5" d="M424,239.4c-0.4-0.3-0.5-0.9-0.2-1.3l27.3-34.6c0.3-0.4,0.9-0.5,1.3-0.2c0.4,0.3,0.5,0.9,0.2,1.3l-27.3,34.6
		C425,239.6,424.4,239.7,424,239.4z"/>
	<ellipse class="st2" cx="378.4" cy="279.2" rx="0.4" ry="0.4"/>
	<path class="st6" d="M433.4,23.4c-1.3,7-3.5,13.9-6.5,20.4c-17.1,35.6,31.5,24,48.9,24c19,0,37.1,9.8,34.4-33.9
		C509,15.2,494.8,0,475.8,0C459.6,0,436.8,7.1,433.4,23.4z"/>
	<polygon class="st3" points="493.5,544.9 477.3,544.9 469.6,483.5 493.5,483.5 	"/>
	<path class="st6" d="M502,572.6h-11.6l-2.1-10.8l-5.3,10.8h-30.8c-3.8,0-6.9-3.1-6.9-6.8c0-2.2,1.1-4.3,3-5.6l24.6-16.7v-10.9
		l25.8,1.5L502,572.6z"/>
	<polygon class="st3" points="589.6,524.8 576.6,534.3 533.2,489.5 552.4,475.5 	"/>
	<path class="st6" d="M613.2,542l-9.3,6.8l-8.2-7.4l2.3,11.8l-24.7,18.1c-3.1,2.2-7.4,1.6-9.7-1.4c-1.4-1.8-1.7-4.1-1-6.3l9.6-27.9
		l-6.6-8.8l21.7-14L613.2,542z"/>
	<polygon class="st3" points="440.5,262 517.3,250.3 502,205 440.5,205 	"/>
	<path class="st6" d="M512.3,227.8c0,0,30.7,26.1,16.5,100.6l-17.3,73l47.1,80.6l-23.9,12.9l-58-79.5l-26.6-61.4l-14-107.6
		L512.3,227.8z"/>
	<polygon class="st6" points="464.8,371.4 462.9,399.6 468.3,483 495.1,492.1 500.2,406.6 	"/>
	<path class="st1" d="M456.5,77.1l29.7,1.1L498,97.6l27,5.2l-16.1,80.3l3,45.7l-26.9-0.2c-19.4-0.1-38.1,6.8-52.6,19.5l0,0l0.8-59.3
		l-11.6-44.3l2.6-46.4l21.7-2.7L456.5,77.1z"/>
	<ellipse class="st3" cx="473" cy="40.2" rx="27.9" ry="27.5"/>
	<path class="st6" d="M454,12.2c15.1-9.1,34.8-4.4,44,10.5c3.2,5.1,4.8,11,4.7,17c-14.2,3.5-29.2,6.2-44.4,0.8l-3.6-8.6l-2.1,8.7
		c-4.6,1.9-9.3,3.4-13.9,0C438.3,29,444.1,18.2,454,12.2z"/>
	<path class="st7" d="M519.8,284.3l3.8,33.7c0.5,1.7,2.2,2.9,4,2.9H545c1.8,0,3.4-1.2,4-2.9l3.1-25.8c3.1,1.5,6.9,0.2,8.5-2.9
		c1.5-3.1,0.2-6.8-2.9-8.4c-1.2-0.6-2.6-0.8-3.9-0.5c-0.8-0.9-1.9-1.4-3.2-1.4h-26.7c-2.3,0-4.2,1.8-4.2,4.1
		C519.7,283.5,519.7,283.9,519.8,284.3z M552.6,290.4l1.9-6.1c0.2-0.7,0.2-1.5,0.1-2.2c0.1,0,0.2,0,0.2,0c2.5,0,4.5,2,4.5,4.5
		s-2,4.5-4.5,4.5c0,0,0,0,0,0C554,291,553.3,290.8,552.6,290.4z"/>
	<path class="st3" d="M546,320.9c-4.1-4.1-4.1-10.7,0-14.8c0.4-0.4,0.9-0.8,1.4-1.2l-16.9-82.8l18.7,5.9l13.5,80.1
		c3,5,1.4,11.5-3.7,14.4C554.9,325,549.5,324.4,546,320.9z"/>
	<path class="st1" d="M513.4,111.4l11.6-8.6c0,0,10.2-0.7,12,17.5s13.1,87.9,13.1,87.9l17.7,80.9l-24.6,5.3l-19-87.3l-19-60.3
		L513.4,111.4z"/>
	<ellipse class="st7" cx="413.4" cy="180.3" rx="6.6" ry="6.5"/>
	<polygon class="st3" points="204.2,619.9 217.8,619.9 224.3,568 204.2,568 	"/>
	<path class="st6" d="M200.7,615.5l3.8,0l15-6l8.1,6h0c9.5,0,17.2,7.6,17.2,16.9v0.5l-44.1,0L200.7,615.5z"/>
	<polygon class="st3" points="257.1,611.5 270.5,614.4 288.4,565.1 268.8,560.8 	"/>
	<path class="st6" d="M254.7,606.4l3.8,0.8l16-2.6l6.5,7.6l0,0c9.2,2.1,15,11.1,13,20.2l-0.1,0.5l-43-9.6L254.7,606.4z"/>
	<path class="st6" d="M179.1,352.6l12.4,136.5c0,0-4.6,81.9,10.3,110.8h21.7l10.7-118.3l1.3-79.4l46.5,67L252.4,598l26.7,2.4
		l48-139.7l-52.8-131.2L179.1,352.6z"/>
	<ellipse class="st8" cx="192.1" cy="103.9" rx="31.9" ry="31.4"/>
	<path class="st4" d="M248.1,165.2L222,154.2l-12.7-13.3l-31.8,5.1l-8.4,14.3l-27.3,25l32,142.6l-1,31.1c0,0,20.5,9.1,109.4-11.8
		c1.1-0.3-1.2-1.3-1.2-1.3L248.1,165.2z"/>
	<path class="st6" d="M158.9,121.7c-0.2-0.3-0.4-0.6-0.7-0.9c-0.1,0.2-0.2,0.4-0.3,0.5L158.9,121.7z"/>
	<path class="st6" d="M223.8,80.9c-2.1-4.6-5.9-8.2-10.6-10.1c-4.7-1.9-9.9-1.9-14.6,0c-4.2-2.6-8.9-4.7-13.8-5
		c-4.9-0.3-10.1,1.5-13.2,5.5c-0.7,1-1.4,2-2.3,2.9c-2.4,2.2-6.2,1.9-9.4,1.5c1.5,1.2,2.9,2.5,4.4,3.7c-1.8,0.5-3.5,0.9-5.3,1.4
		c2.1,1.2,4.1,2.5,6.2,3.7c-6,3.5-8.7,11.2-8,18.2c0.7,6.6,3.9,12.7,7.8,18.1c1.5-3.2,1.2-7.1,1.2-10.7c0-3.8,0.7-8.2,3.8-10.3
		c2.1-1.4,4.8-1.5,7.3-1.5c12.8,0.1,25.6,0.9,38.3,2.4c1.7,0.1,3.4,0.6,4.9,1.4c2.8,1.9,3.4,5.8,3.6,9.2c1.5-5.6,2.2-11.5,2.2-17.3
		C226.4,89.5,225.5,85,223.8,80.9z"/>
	<ellipse class="st2" cx="233.7" cy="398.9" rx="50.2" ry="49.5"/>
	<path class="st4" d="M233.7,348.3c-2.6,0-5.2,0.2-7.7,0.6c-1.3,0.2-2.6,0.4-3.8,0.7c-27.6,6.3-44.8,33.4-38.5,60.6
		c2.5,10.6,8.3,20.1,16.7,27.1c0.9,0.7,1.7,1.4,2.6,2.1c22.7,16.7,54.8,12.1,71.8-10.3c16.9-22.4,12.2-54-10.5-70.7
		C255.5,351.8,244.8,348.3,233.7,348.3L233.7,348.3z M233.7,447.2c-10.4,0-20.6-3.3-29-9.4c-0.9-0.7-1.8-1.3-2.7-2.1
		c-20.7-17.2-23.3-47.7-5.9-68.1c7.1-8.3,16.9-14,27.7-16.2c1.2-0.3,2.5-0.5,3.8-0.6c2-0.2,4-0.4,6-0.4c27.1,0,49.1,21.6,49.1,48.4
		C282.8,425.6,260.8,447.2,233.7,447.2L233.7,447.2L233.7,447.2z"/>
	<path class="st7" d="M258.3,389h-49.2c-1.8,0-3.3-1.4-3.3-3.2v-0.2c0-1.8,1.5-3.2,3.3-3.2h49.2c1.8,0,3.3,1.4,3.3,3.2v0.2
		C261.6,387.5,260.1,389,258.3,389z"/>
	<path class="st7" d="M258.3,402.2h-49.2c-1.8,0-3.3-1.4-3.3-3.2v-0.2c0-1.8,1.5-3.2,3.3-3.2h49.2c1.8,0,3.3,1.4,3.3,3.2v0.2
		C261.6,400.7,260.1,402.2,258.3,402.2z"/>
	<path class="st7" d="M258.3,415.4h-49.2c-1.8,0-3.3-1.4-3.3-3.2V412c0-1.8,1.5-3.2,3.3-3.2h49.2c1.8,0,3.3,1.4,3.3,3.2v0.2
		C261.6,413.9,260.1,415.4,258.3,415.4z"/>
	<polygon class="st9" points="795.2,618.3 780.9,618.3 774.1,563.8 795.2,563.8 	"/>
	<polygon class="st9" points="727.4,618.3 713.1,618.3 706.2,563.8 727.4,563.8 	"/>
	<path class="st6" d="M727.9,633l-44.1,0v-0.5c0-9.3,7.7-16.9,17.2-16.9h0l8.1-6l15,6l3.8,0L727.9,633z"/>
	<path class="st6" d="M797.6,633l-44.1,0v-0.5c0-9.3,7.7-16.9,17.2-16.9h0l8.1-6l15,6l3.8,0L797.6,633z"/>
	<path class="st6" d="M713.3,295.8l-21.8,130.7l5.9,19.5l-7.8,13.8L701.1,581l-4.6,10.1l13,7.9h26.4l1.4-109.7l6.5-16.1v-8.9
		l13.3-66.9l2.4,93.7l3.9,16.1l-3.2,11.5l4.2,8l11.2,74.6h29.6l-2.3-17.4l0,0c5.3-2.6,8.1-8.5,6.8-14.2l-1.7-7.6l3.9-22.5l7-125.5
		l-2-101.3l-34.6-26.1L713.3,295.8z"/>
	<ellipse id="ab6171fa-7d69-4734-b81c-8dff60f9761b" class="st9" cx="763.3" cy="100.8" rx="27.5" ry="27.1"/>
	<path class="st9" d="M703.3,347.7c4.5-4.6,4.4-11.9-0.3-16.4c-0.5-0.5-1-0.9-1.6-1.3l10.7-39.8l-20.6,6.8l-7,36.8
		c-3.3,5.6-1.4,12.7,4.3,15.9C693.5,352.4,699.5,351.6,703.3,347.7L703.3,347.7z"/>
	<path id="bc44dde2-a388-4b93-9ca4-c442728432a9-123" class="st1" d="M714.5,156.5l-4.4-0.9l-3.8,2.1c0,0-10.5,13.8-10.5,26.5
		S682.9,319,682.9,319l23.4,10.4l18.7-95.6L714.5,156.5z"/>
	<path id="bf427902-b9bf-4946-b5d7-5c1c7e04535e-124" class="st6" d="M787.3,81c0,0,7.2-13.5-8.6-14.8c0,0-13.5-12-27.2-2.2
		c0,0-7.5,0-11.6,8.4c0,0-5.9-2.2-7.2,3.7c0,0-4.3,12.3,0,23.4c4.3,11.1,5.7,12.3,5.7,12.3s-7.1-23.2,10.2-24.4
		c17.2-1.2,36.5-11.9,38,1.7c1.4,13.5,3.6,16.9,3.6,16.9S803.9,86.5,787.3,81z"/>
	<path class="st2" d="M887.7,459.8c-2.1,0-4.1-0.7-5.6-2.1l-83.1-72.9c-3.5-3.1-3.8-8.3-0.7-11.8l53.3-59c3.1-3.4,8.5-3.7,12-0.7
		l83.1,72.9c3.5,3.1,3.8,8.3,0.7,11.8L894,457c-1.5,1.7-3.6,2.7-5.8,2.8C888,459.8,887.9,459.8,887.7,459.8z"/>
	<path class="st4" d="M887.7,460.3c-2.2,0-4.3-0.8-6-2.2l-83.1-72.9c-3.7-3.3-4-8.9-0.7-12.5l53.3-59c3.3-3.7,9-4,12.7-0.7
		l83.1,72.9c3.7,3.3,4,8.9,0.7,12.5l-53.3,59c-1.6,1.8-3.8,2.8-6.2,3C888.1,460.3,887.9,460.3,887.7,460.3z M857.8,312.8
		c-2,0-3.8,0.8-5.1,2.3l-53.3,59c-2.5,2.8-2.3,7,0.6,9.5l83.1,72.9c2.8,2.5,7.1,2.2,9.7-0.6c0,0,0,0,0,0l53.3-59
		c2.5-2.8,2.3-7-0.6-9.5l-83.1-72.9C861.1,313.4,859.5,312.8,857.8,312.8L857.8,312.8z"/>
	<path class="st7" d="M917.9,404c-0.9,0-1.8-0.3-2.4-0.9l-65.3-57.2c-1.5-1.3-1.7-3.6-0.3-5.1c1.3-1.5,3.7-1.6,5.2-0.3c0,0,0,0,0,0
		l65.3,57.2c1.5,1.3,1.6,3.6,0.3,5.1C919.9,403.5,918.9,404,917.9,404z"/>
	<path class="st7" d="M905.4,417.7c-0.9,0-1.8-0.3-2.4-0.9l-65.3-57.2c-1.5-1.3-1.6-3.6-0.3-5.1c1.3-1.5,3.7-1.6,5.2-0.3l0,0
		l65.3,57.2c1.5,1.3,1.6,3.6,0.3,5.1C907.5,417.3,906.5,417.7,905.4,417.7L905.4,417.7z"/>
	<path class="st7" d="M893,431.5c-0.9,0-1.8-0.3-2.4-0.9l-65.3-57.2c-1.5-1.3-1.6-3.6-0.3-5.1c1.3-1.5,3.7-1.6,5.2-0.3l65.3,57.2
		c1.5,1.3,1.6,3.6,0.3,5.1C895,431.1,894,431.5,893,431.5L893,431.5z"/>
	<path class="st9" d="M818.3,350c-3.2-5.6-1.1-12.6,4.5-15.8c0.6-0.3,1.2-0.6,1.9-0.8l0.1-41.2l18.1,11.8l-2.8,37.3
		c1.7,6.2-2,12.6-8.3,14.3C826.5,357.1,821,354.7,818.3,350z"/>
	<path id="f348f81f-b961-4ae4-bc6b-758f6acfb12a-125" class="st1" d="M820,167.8l8.1-7.7l5.9,4.2c0,0,5.8,6.9,10.5,27.7
		c4.7,20.7,0,134.8,0,134.8l-25.7-3.5l3.5-59.9l-10.5-50.7L820,167.8z"/>
	<path class="st4" d="M831.9,162l-27.3-12.8l-18.5-16.9l-33.7-0.2L741.6,146l-28.7,9.6l4.8,97.6l-3.3,7.5c0,0,2.3,2,3.3,3.2
		c1,1.1-1.4,10.6-1.4,10.6l-1.4,10.3l3.9,2.7l-5,5.9l-1.2,9.2c0,0,87.9-21.5,104.5,14.1c0.9,1.9-1.3-16.5-1.3-16.5l-2.2-13.5
		l2.1-12.1l3.3-3.2l-5.5-5.4l3.5-25.6L831.9,162z"/>
	<path class="st8" d="M213.8,378.5c2.6-6.4-0.6-13.6-7.1-16.1c-0.7-0.3-1.4-0.5-2.1-0.6l-6.1-43.8L180.9,333l8.4,39.3
		c-0.9,6.8,4,13.1,10.9,14.1C206.1,387.1,211.7,383.9,213.8,378.5z"/>
	<path id="e1bf2fad-858c-4bea-9733-320cc40b59f5-126" class="st4" d="M145,184.4l-4.8,0.9l-2.9,3.6c0,0-4.7,18,0.6,30.6
		c5.3,12.6,43.6,138.9,43.6,138.9l27.5,0.8l-21.4-102.4L145,184.4z"/>
	<path class="st8" d="M253.5,372c-4.8-5-4.6-12.9,0.5-17.6c0.5-0.5,1.1-1,1.7-1.4l-11-42.9l22,7.6l7,39.6c3.5,6,1.3,13.6-4.8,17
		C264,377.2,257.6,376.3,253.5,372z"/>
	<path id="ff35f29e-9865-4218-824f-c5cf71e1b056-127" class="st4" d="M243.9,166.7l4.8-0.9l4,2.3c0,0,11.1,15,11,28.6
		c-0.2,13.6,12.1,144.9,12.1,144.9l-25.2,10.8l-18.9-102.9L243.9,166.7z"/>
</g>
</svg>
