<?xml version="1.0" encoding="utf-8"?>
<!-- Generator: Adobe Illustrator 22.0.0, SVG Export Plug-In . SVG Version: 6.00 Build 0)  -->
<svg version="1.1" id="Capa_1" xmlns="http://www.w3.org/2000/svg" xmlns:xlink="http://www.w3.org/1999/xlink" x="0px" y="0px"
	 viewBox="0 0 982.8 510.3" style="enable-background:new 0 0 982.8 510.3;" xml:space="preserve">
<style type="text/css">
	.st0{fill:#A0616A;}
	.st1{fill:#2F2E41;}
	.st2{fill:#9E616A;}
	.st3{fill:#F5A63F;}
	.st4{fill:#E6E6E6;}
	.st5{fill:#FFFFFF;}
	.st6{fill:#212121;}
	.st7{fill:#898989;}
</style>
<g>
	<g id="man">
		<polygon class="st0" points="818.9,448.5 800.8,448.5 806.6,495.8 818.9,495.8 		"/>
		<path class="st1" d="M822,507.7h-39.5v-0.5c0-8.5,6.9-15.4,15.4-15.4l0,0H822V507.7z"/>
		<polygon class="st0" points="772.9,448.5 754.8,448.5 760.6,495.8 772.9,495.8 		"/>
		<path class="st1" d="M776,507.7h-39.5v-0.5c0-8.5,6.9-15.4,15.4-15.4l0,0H776V507.7z"/>
		<path class="st2" d="M856.1,308.9c3.2,3.4,8.3,4.3,12.4,2c4.9-2.7,6.6-8.9,3.9-13.8l-5.4-32l-17.5-6.2l8.5,34.7
			c-0.5,0.3-1,0.7-1.4,1.1C852.5,298.5,852.3,304.9,856.1,308.9L856.1,308.9z"/>
		<path class="st2" d="M713.6,307.9c-4.9-2.7-6.6-8.9-3.9-13.8l5.4-32l17.5-6.2l-8.5,34.7c0.5,0.3,1,0.7,1.4,1.1
			c4.1,3.8,4.3,10.2,0.5,14.2C722.8,309.4,717.7,310.2,713.6,307.9z"/>
		<polygon class="st1" points="831,270.2 745.6,278.8 742.5,379.6 755,483.7 777.5,485.2 779.3,388.5 788.2,327.6 798.1,481.4 
			823,483.7 840,284.6 		"/>
		<circle class="st0" cx="793.2" cy="77.7" r="25.8"/>
		<path class="st1" d="M813,79.2c5.2,0.6-2.2,10.6-2.5,15.1s8.2-2,10-5c7.1-12.1,14-24.8,10.8-38.5c-0.3-1.1-0.5-2.2-0.7-3.2
			c-1.3-7.1-15.3-11.6-27.1-13.4S785,38.3,785,38.3h-6l-1.1,1.5H774c0,0,1.3,3.9-3.2,9c-4.5,5.2-0.6,9.7-1.1,10.5
			c-0.4,0.9,7.7-0.2,7.7-0.2s-0.6,3.7,5.6,2.4s18.3-4.5,18.3-4.5C799,65.4,807.8,78.5,813,79.2z"/>
		<path class="st3" d="M829.1,276.5c0,0-26.6,19.7-42.6,13.7s-44-8.4-44-8.4l32.1-169.6H820L829.1,276.5z"/>
		<path class="st1" d="M824.7,310.2C839.3,310.7,849,267,849,267l8.2-130.9l-37.6-23.9h-5.1v19.1C798.8,154.1,810,309.7,824.7,310.2
			z"/>
		<path class="st1" d="M844,221.7l5.2,65l24.5-2.2c0,0-7.7-127.9-7.7-136.9s-8.9-11.6-8.9-11.6l-12.1,3.6L844,221.7z"/>
		<path class="st1" d="M779.9,154.1c5.8,16.4-27.1,137.7-27.1,137.7s-6.8,3.9-16.8-1.1s12.5-169.5,12.5-169.5l25-10l6.9,1l-2.4,12.5
			L779.9,154.1z"/>
		<path class="st1" d="M746,234.2l-15.4,50.4l-20.6-3.9c0,0,25-140,32.1-152.5s19.6-6.3,19.6-6.3l4.3,1.9L746,234.2z"/>
	</g>
	<g id="grass">
		<path class="st4" d="M874.7,479.9c-8.5-14.5-8.7-34-0.6-51.1c6.9-14.4,19.5-27.2,36.4-37.2c3.3-1.9,6.8-3.8,10.1-5.5
			c7.9-4.2,16.1-8.5,22.8-14.6c8.9-8.1,15.7-21.7,10.8-33.6c-3.3-7.7-10.6-12.8-18.9-13.2l0.1-2c9.1,0.5,17.1,6.1,20.7,14.5
			c5.3,12.9-1.8,27.3-11.2,35.9c-6.8,6.2-15.2,10.6-23.2,14.9c-3.3,1.8-6.8,3.6-10,5.5c-16.6,9.7-28.9,22.3-35.6,36.3
			c-7.9,16.5-7.7,35.3,0.5,49.2c8.3,14.1,24.2,22.7,36.9,29.6l-1,1.8C899.4,503.2,883.3,494.5,874.7,479.9z"/>
		<ellipse class="st4" cx="922.7" cy="324.6" rx="17.5" ry="8.5"/>
		<ellipse class="st4" cx="908.7" cy="380.6" rx="17.5" ry="8.5"/>
		<ellipse class="st4" cx="940.7" cy="389.6" rx="17.5" ry="8.5"/>
		<ellipse class="st4" cx="890.7" cy="436.6" rx="17.5" ry="8.5"/>
		<ellipse class="st4" cx="855.7" cy="436.6" rx="17.5" ry="8.5"/>
		<path class="st4" d="M597.4,509.5c0-0.6,0.4-1,1-1h381c0.6,0,1,0.4,1,1s-0.4,1-1,1h-381C597.9,510.5,597.4,510,597.4,509.5z"/>
	</g>
	<g id="card">
		<path id="bc1144e2-c94b-4f66-aa77-0b454dfd4174" class="st4" d="M22.7,29.7h557.6c1.4,0,2.6,1.2,2.6,2.6v261.9
			c0,1.4-1.2,2.6-2.6,2.6H22.7c-1.4,0-2.6-1.2-2.6-2.6V32.3C20.1,30.9,21.3,29.7,22.7,29.7z"/>
		<path id="ad6bb9d5-2e55-4525-b077-6ac2d5f26b45" class="st5" d="M39.4,52.6h524.2c1.8,0,3.2,1.4,3.2,3.2v216.4
			c0,1.8-1.4,3.2-3.2,3.2H39.4c-1.8,0-3.2-1.4-3.2-3.2V55.8C36.2,54,37.6,52.6,39.4,52.6z"/>
		<path id="a1fdfaec-ef9f-458a-9330-7bb8c38fec43" class="st3" d="M21.2,14.3h560.2c0.7,0,1.3,0.6,1.3,1.3v21.3
			c0,0.7-0.6,1.3-1.3,1.3H21.2c-0.7,0-1.3-0.6-1.3-1.3V15.6C19.9,14.9,20.5,14.3,21.2,14.3z"/>
		<circle id="ac9f2818-2064-46b1-8104-b7d94390836e" class="st5" cx="37.7" cy="25.3" r="4.4"/>
		<circle id="bd067119-2054-4d5f-9303-2e8fa40cc410" class="st5" cx="54.5" cy="25.3" r="4.4"/>
		<circle id="ee5e9ca0-6fca-449b-8f84-cf683813bd65" class="st5" cx="71.3" cy="25.3" r="4.4"/>
		<g>
			<path class="st6" d="M159.3,112.7c3.7,0.4,6.7,1,9.9,2.1c10.3,3.4,19.1,10.4,25,19.7c5,7.8,7.7,17.1,7.7,26.5
				c0,17.1-8.7,32.9-23,41.7c-5.3,3.3-11.4,5.5-17.5,6.4c-2.6,0.4-3.8,0.5-6.7,0.5c-4.5,0-7.9-0.5-12-1.5
				c-16.8-4.5-29.8-18.2-33.9-35.4c-0.5-2-0.8-3.9-1.1-6.2c-0.2-1.6-0.2-2.4-0.2-5.4s0-3.8,0.2-5.4c0.7-5.8,2.1-10.7,4.4-15.8
				c6.8-14.5,20.3-24.7,35.8-26.9c1.3-0.2,3.1-0.4,4.5-0.5C153.6,112.4,157.8,112.6,159.3,112.7 M159.5,95.8
				c-3.3,0.9-6.3,2.1-7.7,3.1s-2.9,3.5-4.4,7.2c-0.3,0.7-0.6,1.3-0.6,1.4s-0.3,0.2-0.6,0.2c-0.5,0.1-3.2,0.6-3.6,0.7
				c-0.1,0-0.4-0.1-0.7-0.4c-1.6-1.3-2.7-2.5-3.1-3.5c-0.3-0.8-0.2-2,0.5-3.5c0.3-0.7,1.4-2.6,1.9-3.4c0.2-0.3,0.4-0.5,0.4-0.6
				c0-0.2-3.4,1.7-5.3,3c-2.3,1.6-3.8,2.9-4.4,4c-0.8,1.5-1.3,4.5-1.6,8.1l-0.1,1l-0.7,0.4c-0.4,0.2-1.3,0.8-2,1.2
				c-1.5,0.9-1.4,0.9-3.1,0.2c-1.4-0.6-2.1-1-2.7-1.7c-0.4-0.4-0.5-0.6-0.7-1.2c-0.3-1.2,0-4,0.6-6.3c0.1-0.4,0.2-0.7,0.1-0.7
				s-1.3,1.3-2.2,2.4c-2.6,3-4.2,5.7-4.6,7.3c-0.3,1.5,0,4.4,0.9,7.9l0.4,1.4l-0.9,1c-0.5,0.6-1.2,1.4-1.6,1.9l-0.7,0.9h-1
				c-2,0-3.5-0.4-4.2-1c-0.8-0.7-1.3-2.1-1.5-4.3c-0.1-0.6-0.2-1.5-0.2-1.9s0-0.9-0.1-1.1c-0.1-0.3-0.1-0.3-0.4,0.5
				c-1.1,2.5-2.3,5.7-2.8,7.7c-0.2,0.9-0.3,1.4-0.3,2.4c0,1.2,0,1.4,0.3,2.1c0.6,1.6,1.8,3.8,3.2,5.9l0.7,1l-0.4,0.9
				c-0.2,0.5-0.6,1.5-0.9,2.3l-0.5,1.4l-1,0.3c-2.9,0.9-4.4,0.8-5.5-0.5c-0.8-0.9-2-3.1-2.6-4.8c-0.3-0.7-0.4-0.9-0.4-0.6
				c0,0.1-0.1,0.9-0.1,1.7c-0.3,3.6-0.3,6.8,0.1,8.8s1.6,3.5,4.7,6.1c0.6,0.5,1.3,1,1.7,1.3l0.7,0.5l-0.1,1.1c0,0.6-0.1,1.7-0.1,2.5
				v1.5l-1,0.8c-0.6,0.4-1.4,1-1.9,1.3c-0.8,0.4-1,0.5-1.6,0.5c-0.7,0.1-0.8,0-1.5-0.4c-1-0.5-2.4-1.7-3.7-3.1c-0.5-0.6-1-1.1-1-1.1
				c-0.1,0.1,0.9,4,1.5,5.6c0.9,2.8,1.9,4.8,2.8,5.6c1.1,1,3.2,2.1,6.4,3.2l1.9,0.6l0.3,1c0.1,0.6,0.5,1.6,0.7,2.3l0.4,1.3l-0.2,0.4
				c-0.7,1.3-2.3,3.2-3.2,3.7c-0.4,0.3-0.6,0.3-1.2,0.3c-1.2,0-3.1-0.7-5.2-1.8c-0.6-0.4-1.2-0.6-1.2-0.6c0,0.1,0.3,0.6,0.7,1.1
				c2.3,3.6,4.7,6.5,6.2,7.5c1.1,0.7,2.4,1.1,5.3,1.3c1,0.1,2.4,0.1,3.1,0.1l1.4-0.1l0.6,0.9c0.3,0.5,1,1.4,1.4,1.9l0.8,1l-0.2,1
				c-0.7,2.9-1.6,4.4-2.9,4.8c-0.8,0.3-3.9,0.2-5.4-0.1c-0.6-0.1-1.1-0.2-1.1-0.2c-0.1,0.1,2.3,2,4.3,3.3c2.6,1.8,4.9,2.8,6.2,2.8
				c1.5,0,4.2-0.7,7.2-1.9l1.3-0.5l0.4,0.3c0.2,0.2,1,0.8,1.8,1.3l1.4,1l0.1,0.7c0.1,1.3,0.1,3.6-0.1,4.4c-0.3,1.2-1.1,1.9-2.9,2.5
				c-0.8,0.3-2.8,0.7-3.7,0.8c-0.9,0.1-1.1,0.2-0.9,0.3c0.1,0,0.8,0.3,1.6,0.6c4.2,1.5,8.1,2.2,9.8,1.9c1.5-0.3,4.2-2.1,7.1-4.6
				l1-0.9l1.6,0.5c0.9,0.3,1.8,0.5,2,0.6c0.4,0.1,0.4,0.2,0.9,1.3c0.7,1.7,1,2.8,1.1,3.9c0,1-0.1,1.3-0.8,2.1
				c-0.7,0.9-2.8,2.4-4.5,3.2c-0.4,0.2-0.7,0.4-0.7,0.4c0,0.1,4.3,0,6-0.2c2.8-0.3,4.6-0.8,5.6-1.4c1.4-0.9,3.2-3.2,5.2-6.6
				c0.5-0.9,0.8-1.3,1-1.4c0.1,0,0.6-0.1,1.1-0.1s1.3,0,1.8-0.1l0.9-0.1l1,1.1c1.5,1.6,2.3,3,2.4,4.1c0.1,1.2-0.9,3.1-3.1,5.6
				c-0.5,0.6-0.9,1.1-0.9,1.1c0.1,0.1,4.7-1.7,6.7-2.7c1.8-0.9,2.9-1.6,3.6-2.3c1.2-1.2,2.2-4.1,3.1-8.5c0.2-0.8,0.3-1.5,0.4-1.5
				c0.1-0.1,3.2-1.4,3.4-1.4s2.1,1,3,1.5c0.9,0.6,1.9,1.5,2.2,2.1c0.6,1.1,0.2,3.5-1.1,6.5c-0.2,0.6-0.4,1.1-0.4,1.1
				c0.1,0.1,1.6-1.2,3.1-2.5c1.6-1.4,3.6-3.6,4.2-4.6c1-1.6,1.2-2.5,1.1-6c0-1.5-0.1-2.9-0.3-4l-0.2-1.7l0.3-0.3
				c0.2-0.2,0.8-0.7,1.3-1.3l1-0.9l0.9,0.1c2.5,0.2,4.6,0.9,5.3,1.7c0.3,0.4,0.7,1.2,0.8,2.1c0.2,0.9,0.2,4.2,0.1,5.1
				c0,0.3,0,0.5,0,0.5s0.5-0.7,1-1.5c2.8-4.7,4.1-7.9,3.9-9.8c-0.1-1.7-1.1-4.5-2.6-7.5l-0.8-1.7l0.6-1.1c0.3-0.6,0.7-1.3,0.9-1.6
				c0.2-0.4,0.3-0.5,0.7-0.6c2-0.6,4.5-0.8,5.6-0.5c1.3,0.4,2.4,2.2,3.2,5.7c0.2,0.8,0.4,1.5,0.4,1.6c0.2,0.2,1.1-4.4,1.4-6.7
				c0.3-2.8,0.3-4.4-0.1-5.6c-0.5-1.4-2.1-3.5-4.6-6.1l-1.7-1.7l0.3-1.4c0.1-0.8,0.3-1.6,0.3-1.8c0.1-0.3,0.2-0.4,1-1
				c1.3-0.8,2-1.2,3.1-1.6c1.2-0.4,1.9-0.4,2.7-0.1c1,0.5,2.5,2.1,3.9,4.2c0.7,1.1,0.7,1,0.7,1s0-0.7-0.1-1.5
				c-0.5-4.3-1.2-7.7-2.1-9.4c-0.8-1.6-3.7-3.7-7.6-5.6c-0.7-0.3-1.3-0.6-1.3-0.6s-0.4-2.3-0.5-3.3c-0.1-0.5,0-0.5,0.5-1.2
				c1.5-1.9,3.1-3.2,4.2-3.5c0.7-0.1,1.6,0.1,2.7,0.6c0.9,0.4,2.5,1.5,3.5,2.3c0.3,0.3,0.6,0.5,0.7,0.5c0.1,0-0.1-0.6-1.3-3
				c-1.7-3.5-3.2-5.8-4.3-6.9c-1.4-1.3-4.6-2.1-9.6-2.6l-0.7-0.1l-0.9-1.7l-0.8-1.7l0.2-0.7c0.8-2.5,2.1-4.5,3.2-5.1
				c0.4-0.2,0.6-0.2,1.5-0.2c1.3,0,2.5,0.2,4.4,0.8c0.7,0.2,1.3,0.4,1.3,0.3c0,0-0.8-0.9-1.7-1.9c-3.3-3.4-5.7-5.1-7.4-5.6
				c-0.7-0.2-2.9-0.2-4.4,0c-1.3,0.2-2.7,0.4-4.3,0.8l-1,0.2l-1.4-1.4l-1.4-1.4l0.1-1.4c0.1-2.3,0.4-3.8,1-4.7c0.7-1,2.6-1.5,6-1.6
				c0.9,0,1.7-0.1,1.7-0.1c0.1-0.1-3.8-2-5.2-2.6c-3.6-1.5-5.6-1.9-7.5-1.2c-1.5,0.5-4.6,2.2-6.5,3.5l-0.6,0.4l-1.2-0.6
				c-0.7-0.3-1.5-0.7-1.9-0.9l-0.7-0.3l-0.2-0.7c-0.7-2-1-4.5-0.5-5.4c0.5-1.1,2.1-2.3,4.9-3.4c0.6-0.2,1.2-0.5,1.3-0.5
				c0.3-0.1,0-0.2-1.4-0.4c-2.7-0.3-3.5-0.4-5.7-0.4c-2.6,0-3.4,0.1-4.5,0.7c-1.6,0.8-3.4,2.6-6.5,6.4c-0.2,0.2-0.2,0.2-1,0.1
				c-0.7-0.1-0.8-0.1-1.1-0.5c-1.2-1.5-2.2-3.3-2.4-4.3c-0.1-0.3-0.1-0.7-0.1-1.1c0.1-1.2,1.3-3.2,3.2-5.3c0.4-0.5,0.8-0.9,0.7-0.9
				C161.1,95.4,160.4,95.6,159.5,95.8z"/>
			<path class="st6" d="M154.7,119.6c22.4,0,40.6,18.7,40.6,41.7h4.7c0-25.7-20.2-46.5-45.2-46.5L154.7,119.6L154.7,119.6z
				 M114.2,161.3c0-23,18.2-41.7,40.6-41.7v-4.8c-25,0-45.2,20.8-45.2,46.5H114.2z M154.7,203c-22.4,0-40.6-18.7-40.6-41.7h-4.7
				c0,25.7,20.2,46.5,45.2,46.5L154.7,203L154.7,203z M195.3,161.3c0,23-18.2,41.7-40.6,41.7v4.8c25,0,45.2-20.8,45.2-46.5H195.3z"
				/>
			<path class="st6" d="M157.9,141.7l-0.3,0.4l0,0l0,0l0,0l0,0c0,0,0,0,0.1,0.1c0.1,0,0.1,0.1,0.2,0.2c0.2,0.2,0.5,0.5,0.9,0.8
				c0.7,0.7,1.7,1.6,2.8,2.5c2.1,1.9,4.5,4.1,5.6,5.1l0.6-0.7c-1.1-1-3.5-3.1-5.6-5.1c-1.1-1-2-1.9-2.8-2.5
				c-0.4-0.3-0.7-0.6-0.9-0.8c-0.1-0.1-0.2-0.2-0.2-0.2s0,0-0.1-0.1l0,0l0,0l0,0l0,0C158.2,141.3,158.2,141.3,157.9,141.7
				 M155.9,144.5l2.4-2.6l-0.7-0.7l-2.4,2.6L155.9,144.5z M164.2,153l-8.3-9.1l-0.7,0.7l8.3,9.1L164.2,153z M167,150.2
				c-0.4,1.4-1.1,2.1-1.8,2.4c-0.3,0.2-0.7,0.2-0.9,0.2c-0.1,0-0.2,0-0.3,0h-0.1l0,0l0,0l0,0l0,0l0,0c0,0,0,0,0,0.5s0,0.5,0,0.5l0,0
				l0,0l0,0l0,0l0,0h0.1c0.1,0,0.2,0,0.4,0c0.3,0,0.7-0.1,1.2-0.3c0.9-0.4,1.9-1.3,2.4-3L167,150.2z M157.9,141.7v-0.5h-0.2
				l-0.1,0.1L157.9,141.7z M155.6,144.2l-0.3-0.3l-0.3,0.3l0.3,0.3L155.6,144.2z M163.9,153.3l-0.3,0.3l0.1,0.1h0.2V153.3z
				 M167.4,150.3l0.5,0.1l0.1-0.3l-0.2-0.2L167.4,150.3z"/>
			<path class="st6" d="M148.8,137.2c-0.1,0-0.1,0-0.1,0l0,0l0,0l0,0l0,0l0,0c0.1,0,0.1,0.1,0.2,0.2c0.2,0.2,0.5,0.5,0.8,0.8
				c0.7,0.7,1.6,1.5,2.4,2.4c0.9,0.9,1.7,1.7,2.4,2.4c0.3,0.3,0.6,0.6,0.8,0.8c0.1,0.1,0.2,0.2,0.2,0.2s0,0,0.1,0.1l0,0l0,0l0,0l0,0
				l0.3-0.3c0.3-0.3,0.3-0.3,0.3-0.3l0,0l0,0l0,0l0,0c0,0,0,0-0.1-0.1s-0.1-0.1-0.2-0.2c-0.2-0.2-0.5-0.5-0.8-0.8
				c-0.6-0.7-1.5-1.5-2.4-2.4s-1.8-1.8-2.5-2.4c-0.3-0.3-0.6-0.6-0.9-0.8c-0.1-0.1-0.2-0.2-0.3-0.2l-0.1-0.1c0,0,0,0-0.1,0
				c0,0-0.1,0-0.2,0L148.8,137.2z M147.5,138.7c0.1,0,0.3-0.1,0.3-0.2c0.1-0.1,0.2-0.2,0.2-0.2c0.1-0.2,0.3-0.4,0.4-0.5
				c0.1-0.2,0.3-0.3,0.3-0.4c0-0.1,0.1-0.1,0.1-0.1s0,0-0.2,0v-1c-0.2,0-0.4,0.1-0.4,0.1c-0.1,0.1-0.2,0.1-0.2,0.2
				c-0.1,0.1-0.3,0.3-0.4,0.5c-0.1,0.2-0.3,0.3-0.4,0.5c-0.1,0.1-0.1,0.1-0.1,0.1l0,0L147.5,138.7z M146.1,138.2v0.5l0,0l0,0l0,0
				l0,0h0.1c0.1,0,0.2,0,0.4,0c0.3,0,0.6,0,0.9-0.1l-0.2-0.9c-0.1,0-0.4,0-0.7,0c-0.1,0-0.2,0-0.3,0h-0.1l0,0l0,0l0,0
				C146.2,137.8,146.2,137.8,146.1,138.2z M145.8,139.4l0.7-0.8l-0.7-0.6l-0.7,0.8L145.8,139.4z M145.7,141.3
				c0.1-0.1,0.2-0.3,0.2-0.4c0-0.1,0-0.2,0.1-0.3c0-0.2,0-0.5,0-0.7s0-0.4,0-0.6c0-0.1,0-0.1,0-0.2c0,0,0,0,0-0.1l0,0l0,0l0,0l0,0
				c0,0,0,0-0.5,0H145l0,0l0,0l0,0l0,0c0,0,0,0.1,0,0.2c0,0.2,0,0.4,0,0.6c0,0.2,0,0.4,0,0.6c0,0.1,0,0.1,0,0.2c0,0,0,0,0.1-0.1
				L145.7,141.3z M144.1,141.3c0.2,0.1,0.5,0.2,0.8,0.2s0.6,0,0.9-0.2l-0.6-0.7c0,0,0,0-0.1,0s-0.3-0.1-0.6-0.2L144.1,141.3z
				 M141.7,138.9c0.1,0.2,0.2,0.4,0.4,0.7c0.2,0.2,0.4,0.5,0.6,0.7c0.2,0.2,0.5,0.5,0.7,0.6c0.2,0.2,0.4,0.3,0.6,0.4l0.3-0.9
				c-0.1,0-0.2-0.1-0.4-0.3s-0.4-0.4-0.6-0.6c-0.2-0.2-0.4-0.4-0.6-0.6c-0.2-0.2-0.2-0.3-0.3-0.4L141.7,138.9z M141.8,136.7
				c-0.1,0.2-0.2,0.4-0.3,0.5c0,0.2-0.1,0.4,0,0.5c0,0.4,0.1,0.8,0.2,1.1l0.9-0.4c-0.1-0.2-0.1-0.5-0.1-0.7c0-0.1,0-0.2,0-0.3
				s0-0.1,0-0.1L141.8,136.7z M144,137.3c0.1-0.5,0.1-0.5,0.1-0.5l0,0l0,0l0,0c0,0,0,0-0.1,0c0,0-0.1,0-0.2-0.1
				c-0.2,0-0.4-0.1-0.6-0.1c-0.2,0-0.5-0.1-0.7-0.1c-0.1,0-0.2,0-0.3,0s-0.3,0.1-0.4,0.2l0.7,0.7c-0.1,0.1-0.1,0.1-0.1,0.1h0.1
				c0.2,0,0.3,0,0.6,0.1c0.2,0,0.4,0.1,0.5,0.1s0.1,0,0.2,0l0,0l0,0l0,0l0,0L144,137.3z M144.4,136.2l-0.7,0.7l0.7,0.7l0.7-0.7
				L144.4,136.2z M143.9,134.8c0,0.1,0,0.2,0,0.3s0,0.2,0,0.3c0,0.2,0.1,0.4,0.1,0.6c0,0.2,0.1,0.4,0.1,0.5s0,0.1,0,0.2l0,0l0,0l0,0
				l0,0l0,0l0,0l0.4-0.2l0.4-0.2l0,0l0,0l0,0l0,0l0,0l0,0v-0.1c0-0.1-0.1-0.3-0.1-0.5s-0.1-0.3-0.1-0.5c0-0.1,0-0.1,0-0.2
				c0-0.1,0-0.1,0,0L143.9,134.8z M148.6,130.4c-0.1,0-0.2,0.1-0.3,0.1s-0.2,0.1-0.2,0.1c-0.2,0.1-0.4,0.3-0.6,0.4
				c-0.4,0.4-0.9,0.8-1.5,1.3c-0.5,0.5-1,1-1.4,1.4c-0.2,0.2-0.4,0.4-0.5,0.5s-0.1,0.1-0.2,0.2c0,0,0,0.1-0.1,0.1c0,0,0,0.1-0.1,0.2
				l0.9,0.2v0.1l0,0l0,0l0.1-0.1c0.1-0.1,0.3-0.3,0.4-0.5c0.4-0.4,0.9-0.9,1.4-1.3c0.5-0.5,1-0.9,1.4-1.3c0.2-0.2,0.4-0.3,0.5-0.4
				c0.1,0,0.1-0.1,0.1-0.1s0,0-0.1,0L148.6,130.4z M149.5,131.3c0.3-0.3,0.3-0.3,0.3-0.3l0,0l0,0l0,0l0,0l0,0l0,0c0,0,0,0-0.1-0.1
				c-0.1,0-0.1-0.1-0.2-0.2c-0.2-0.1-0.5-0.3-0.9-0.2l0.1,1c0.1,0,0.2,0,0.3,0.1c0.1,0,0.1,0.1,0.1,0.1l0,0l0,0l0,0l0,0l0,0l0,0
				C149.2,131.6,149.2,131.6,149.5,131.3z M154.3,128.1c-0.2-0.1-0.3-0.1-0.4-0.1c-0.1,0-0.1,0-0.1,0h-0.1c-0.1,0-0.1,0.1-0.2,0.1
				c-0.1,0.1-0.3,0.2-0.5,0.3c-0.4,0.3-1,0.6-1.5,1c-0.6,0.4-1.1,0.7-1.5,1c-0.2,0.1-0.4,0.2-0.5,0.3c-0.1,0-0.1,0.1-0.1,0.1l0,0
				l0,0l0,0l0,0l0,0l0.2,0.4l0.2,0.4l0,0l0,0l0,0l0,0l0,0l0.1-0.1c0.1-0.1,0.3-0.2,0.5-0.3c0.4-0.3,1-0.6,1.5-1
				c0.6-0.4,1.1-0.7,1.5-1c0.2-0.1,0.4-0.2,0.5-0.3c0.1,0,0.1-0.1,0.1-0.1l0,0c0,0,0,0-0.1,0c0,0-0.2,0-0.3-0.1L154.3,128.1z
				 M151.9,133c0,0.1,0,0.1,0,0.1l0,0l0,0C151.9,133.1,151.9,133.1,151.9,133c0.1-0.1,0.2-0.3,0.3-0.5c0.2-0.4,0.6-1,0.9-1.5
				c0.3-0.5,0.7-1.1,0.9-1.5c0.1-0.2,0.2-0.4,0.3-0.5c0-0.1,0.1-0.1,0.1-0.2v-0.1v-0.1c0,0,0-0.2-0.2-0.4l-0.6,0.7
				c-0.2-0.1-0.2-0.3-0.2-0.4c0-0.1,0-0.1,0-0.1l0,0c0,0,0,0.1-0.1,0.1c-0.1,0.1-0.2,0.3-0.3,0.5c-0.2,0.4-0.6,1-0.9,1.5
				c-0.3,0.5-0.7,1.1-0.9,1.5c-0.1,0.2-0.2,0.4-0.3,0.5c0,0.1-0.1,0.1-0.1,0.2v0.1c0,0,0,0.1,0,0.2H151.9z M152.3,133.8
				c0-0.2,0-0.4-0.1-0.6c-0.1-0.1-0.2-0.2-0.2-0.3c-0.1-0.1-0.1-0.1-0.2-0.1l0,0c0,0,0,0.1,0,0.2h-0.9c0,0.1,0.1,0.2,0.1,0.3
				s0.1,0.1,0.1,0.2c0.1,0.1,0.2,0.2,0.2,0.2c0.1,0.1,0.1,0.1,0.1,0.1v-0.1L152.3,133.8z M151,135c0.1,0.2,0,0.3,0,0.3s0,0,0-0.1
				c0.1-0.1,0.2-0.2,0.4-0.4c0.2-0.1,0.4-0.3,0.5-0.4c0.1-0.1,0.2-0.1,0.2-0.2c0.1-0.1,0.2-0.2,0.2-0.4l-0.9-0.2
				c0-0.1,0.1-0.1,0-0.1l-0.1,0.1c-0.1,0.1-0.3,0.3-0.5,0.4c-0.2,0.1-0.4,0.3-0.5,0.5c-0.1,0.1-0.1,0.2-0.2,0.3
				c-0.1,0.1-0.1,0.3,0,0.6L151,135z M157.5,142.1l0.3-0.3l0,0l0,0l0,0l0,0c0,0,0,0-0.1-0.1c0,0-0.1-0.1-0.2-0.2
				c-0.2-0.2-0.5-0.4-0.8-0.8c-0.6-0.6-1.5-1.5-2.4-2.3s-1.7-1.7-2.4-2.4c-0.3-0.3-0.6-0.6-0.8-0.8c-0.1-0.1-0.2-0.2-0.2-0.2
				s0-0.1-0.1-0.1l0,0l-0.8,0.5c0,0.1,0.1,0.1,0.1,0.1l0.1,0.1c0.1,0.1,0.1,0.2,0.2,0.3c0.2,0.2,0.5,0.5,0.8,0.8
				c0.7,0.7,1.5,1.5,2.4,2.4c0.9,0.8,1.7,1.7,2.4,2.3c0.3,0.3,0.6,0.6,0.8,0.8c0.1,0.1,0.2,0.2,0.2,0.2s0,0,0.1,0.1l0,0l0,0l0,0l0,0
				L157.5,142.1z M147.4,138.2l0.1,0.5l0,0L147.4,138.2z M146.1,138.2v-0.5h-0.2l-0.2,0.2L146.1,138.2z M145.5,139.1l-0.4-0.3
				L145,139v0.2L145.5,139.1z M145.4,140.9l-0.3-0.3l0,0L145.4,140.9z M144.2,140.8l0.2-0.4L144.2,140.8z M142.1,138.7l0.4-0.2l0,0
				L142.1,138.7z M142.1,137.1l0.3,0.3l0,0L142.1,137.1z M144,137.3l-0.1,0.5l0.3,0.1l0.2-0.2L144,137.3z M144.7,136.5l0.3,0.3
				l0.2-0.2l-0.1-0.3L144.7,136.5z M144.4,134.9l0.5,0.1l0,0L144.4,134.9z M148.6,130.9v-0.5l0,0V130.9z M149.5,131.3l-0.3,0.3
				l0.3,0.3l0.3-0.2L149.5,131.3z M154,128.5l-0.3,0.4l0,0L154,128.5z M151.9,133.7l0.5,0.1L151.9,133.7z M150.6,135.2l0.4-0.2
				L150.6,135.2z"/>
			<polygon class="st6" points="146,138.8 144.4,137 143.7,137.6 145.3,139.4 			"/>
			<path class="st6" d="M147.5,143.3c0.1,0,0.2,0,0.2,0s0,0,0.1,0c0,0,0.1,0,0.1-0.1c0,0,0.1-0.1,0.2-0.1c0.1-0.1,0.3-0.2,0.5-0.4
				c0.4-0.3,0.9-0.8,1.4-1.2s1-0.9,1.3-1.2c0.2-0.2,0.3-0.3,0.4-0.4c0.1,0,0.1-0.1,0.1-0.1l0,0l0,0l0,0l0,0l-0.3-0.4
				c-0.3-0.4-0.3-0.4-0.3-0.4l0,0l0,0l0,0l0,0l0,0l-0.1,0.1c-0.1,0.1-0.3,0.2-0.4,0.4c-0.4,0.3-0.8,0.8-1.3,1.2s-1,0.9-1.4,1.2
				c-0.2,0.2-0.3,0.3-0.5,0.4c-0.1,0-0.1,0.1-0.1,0.1l0,0l0,0c0,0,0.1,0,0.2,0L147.5,143.3z M146.7,142.9c0.1,0,0.2,0,0.2,0.1
				c0,0,0,0,0.1,0.1c0,0,0.1,0,0.1,0.1l0.1,0.1c0.1,0,0.2,0.1,0.3,0.1l-0.1-1c0.1,0,0.2,0,0.2,0l0,0c0,0,0,0-0.1,0
				c0,0-0.1,0-0.1-0.1c-0.2-0.1-0.4-0.3-0.8-0.3L146.7,142.9z M142,147C142,147,142,147.1,142,147l0.1-0.1c0.1-0.1,0.3-0.3,0.5-0.6
				c0.4-0.4,1-1,1.6-1.5s1.2-1,1.7-1.4c0.2-0.2,0.5-0.3,0.6-0.4c0.1,0,0.1-0.1,0.2-0.1l0,0l0,0c0,0,0,0-0.1,0v-1c-0.1,0-0.2,0-0.2,0
				s-0.1,0-0.1,0.1c-0.1,0-0.2,0.1-0.3,0.1c-0.2,0.1-0.4,0.3-0.7,0.5c-0.5,0.4-1.1,0.9-1.8,1.4c-0.6,0.5-1.2,1.1-1.7,1.5
				c-0.2,0.2-0.4,0.4-0.6,0.6c-0.1,0.1-0.1,0.2-0.2,0.3c0,0.1-0.1,0.2-0.1,0.3L142,147z M148.3,153.9c0.1,0,0.1,0,0.1,0l0,0l0,0l0,0
				C148.4,153.9,148.4,153.9,148.3,153.9c0,0,0-0.1-0.2-0.2c-0.2-0.2-0.5-0.4-0.8-0.8c-0.7-0.6-1.5-1.5-2.3-2.4s-1.6-1.8-2.2-2.5
				c-0.3-0.4-0.5-0.7-0.7-0.9c-0.1-0.1-0.1-0.2-0.2-0.3l0,0l0,0v0.1l-0.9-0.2c0,0.1,0,0.2,0,0.3s0,0.1,0.1,0.2
				c0.1,0.1,0.1,0.2,0.2,0.4c0.2,0.3,0.4,0.6,0.7,1c0.6,0.7,1.4,1.7,2.2,2.6c0.8,0.9,1.7,1.8,2.3,2.5c0.3,0.3,0.6,0.6,0.9,0.8
				c0.1,0.1,0.2,0.2,0.3,0.3l0.1,0.1c0,0,0.1,0.1,0.3,0.1L148.3,153.9z M151.4,151.3c0,0,0,0-0.1,0.1s-0.2,0.2-0.4,0.4
				c-0.3,0.3-0.7,0.6-1.1,1c-0.4,0.3-0.8,0.7-1.1,0.9c-0.2,0.1-0.3,0.2-0.4,0.3c-0.1,0-0.1,0-0.1,0s0,0,0.1,0v1c0.1,0,0.2,0,0.3-0.1
				c0.1,0,0.2-0.1,0.2-0.1c0.1-0.1,0.3-0.2,0.5-0.3c0.4-0.3,0.8-0.6,1.2-0.9c0.4-0.3,0.8-0.7,1.1-1c0.2-0.1,0.3-0.3,0.4-0.4
				c0.1-0.1,0.2-0.2,0.3-0.3L151.4,151.3z M151.4,147.3c0,0.1,0,0.2,0,0.2s0,0.1,0,0.2c0,0.1,0,0.3,0,0.5c0,0.3,0,0.8,0,1.3
				s0,0.9,0,1.3c0,0.2,0,0.3,0,0.4c0,0.1,0,0.1,0,0.1l0,0l0.8,0.4c0-0.1,0.1-0.2,0.1-0.2c0-0.1,0-0.1,0-0.2c0-0.1,0-0.3,0-0.5
				c0-0.4,0-0.9,0-1.3c0-0.5,0-0.9,0-1.3c0-0.2,0-0.3,0-0.4c0-0.1,0-0.1,0-0.1s0,0,0,0.1L151.4,147.3z M155.5,144.3
				c-0.3-0.4-0.3-0.4-0.3-0.4l0,0l0,0l0,0l0,0l0,0l-0.1,0.1c-0.1,0.1-0.2,0.2-0.4,0.3c-0.3,0.3-0.8,0.7-1.2,1
				c-0.5,0.4-0.9,0.8-1.3,1.1c-0.2,0.2-0.3,0.3-0.4,0.4c-0.1,0.1-0.1,0.1-0.1,0.1s0,0-0.1,0.1c0,0-0.1,0.1-0.1,0.2l0.9,0.3v0.1l0,0
				l0,0l0.1-0.1c0.1-0.1,0.2-0.2,0.4-0.4c0.3-0.3,0.8-0.7,1.3-1.1c0.5-0.4,0.9-0.8,1.2-1c0.2-0.1,0.3-0.3,0.4-0.3l0.1-0.1l0,0l0,0
				l0,0l0,0L155.5,144.3z M147.5,142.8v-0.5l0,0V142.8z M146.8,142.4v-0.5l0,0V142.4z M141.6,146.9l0.5,0.1L141.6,146.9z
				 M148.3,154.4v0.5l0,0V154.4z M151.8,151.5l-0.4-0.2L151.8,151.5z M151.8,147.5l-0.4-0.2L151.8,147.5z"/>
			<path class="st6" d="M143.6,147c0,0.1,0,0.2,0,0.2v0.1c0,0,0,0.1,0.1,0.1c0,0.1,0.1,0.1,0.2,0.2c0.1,0.1,0.3,0.3,0.5,0.6
				c0.4,0.5,0.9,1.1,1.5,1.7c0.5,0.6,1.1,1.2,1.5,1.6c0.2,0.2,0.4,0.4,0.6,0.5c0.1,0.1,0.1,0.1,0.2,0.2c0,0,0.1,0,0.1,0.1h0.1
				c0,0,0.1,0,0.2,0l-0.1-1c0.1,0,0.2,0,0.2,0s0,0,0.1,0l0,0l-0.1-0.1c-0.1-0.1-0.3-0.3-0.5-0.5c-0.4-0.4-1-1-1.5-1.6
				s-1.1-1.2-1.5-1.6c-0.2-0.2-0.4-0.4-0.5-0.6c-0.1-0.1-0.1-0.1-0.1-0.2l0,0l0,0c0,0,0,0.1,0,0.2L143.6,147z M146.8,144.4
				c-0.1,0-0.2,0-0.3,0.1c-0.1,0-0.1,0.1-0.2,0.1c-0.1,0.1-0.2,0.1-0.4,0.2c-0.3,0.2-0.6,0.4-0.9,0.7c-0.3,0.3-0.6,0.5-0.9,0.7
				c-0.1,0.1-0.2,0.2-0.3,0.3l-0.1,0.1c0,0,0,0.1-0.1,0.1c0,0-0.1,0.1-0.1,0.3h0.9c0,0.1,0,0.2-0.1,0.2l0,0l0,0l0,0l0,0
				c0.1-0.1,0.1-0.1,0.3-0.2c0.2-0.2,0.5-0.4,0.8-0.7c0.3-0.2,0.6-0.5,0.9-0.7c0.1-0.1,0.2-0.2,0.3-0.2h0.1c0,0,0,0-0.1,0
				L146.8,144.4z M150.5,148.2c-0.2-0.2-1-1.1-1.8-1.9c-0.4-0.4-0.8-0.8-1.1-1.1c-0.2-0.2-0.3-0.3-0.4-0.4c-0.1,0-0.1-0.1-0.2-0.1
				c0,0-0.1,0-0.1-0.1c0,0-0.1-0.1-0.2-0.1l-0.1,1c-0.1,0-0.2,0-0.2,0l0,0c0,0,0,0,0.1,0.1s0.2,0.2,0.4,0.3c0.3,0.3,0.7,0.7,1.1,1.1
				c0.8,0.8,1.6,1.7,1.7,1.9L150.5,148.2z M150.7,150.4c0.1-0.2,0.2-0.4,0.2-0.5c0-0.2,0-0.4,0-0.6c0-0.4-0.1-0.9-0.4-1.2l-0.7,0.7
				c0.1,0.1,0.1,0.3,0.2,0.6c0,0.1,0,0.3,0,0.4c0,0.1,0,0.1,0,0.1L150.7,150.4z M148.6,152.3c0.1,0,0.2,0,0.2-0.1c0,0,0.1,0,0.1-0.1
				c0.1-0.1,0.2-0.1,0.2-0.2c0.2-0.1,0.4-0.3,0.6-0.5c0.2-0.2,0.4-0.4,0.6-0.6c0.2-0.2,0.3-0.3,0.4-0.4l-0.7-0.6
				c0,0-0.1,0.1-0.3,0.3s-0.3,0.3-0.5,0.5s-0.4,0.3-0.5,0.5c-0.1,0.1-0.1,0.1-0.2,0.1l0,0l0,0c0,0,0,0,0.1,0L148.6,152.3z
				 M144.1,147h0.5l0,0H144.1z M150.2,148.5l0.3-0.3l0,0L150.2,148.5z M150.3,150.2l0.4,0.3l0,0L150.3,150.2z"/>
			<path class="st6" d="M157.8,139.7c-0.1,0.1-0.1,0.2-0.1,0.2c0,0.1,0,0.1,0,0.1c0,0.1,0,0.1,0,0.2c0,0.1,0,0.2,0,0.3
				c0,0.2,0.1,0.5,0.2,0.8c0.1,0.3,0.1,0.5,0.2,0.7c0,0.1,0,0.2,0.1,0.2c0,0,0,0,0,0.1l0,0l0,0l0,0l0,0l0.4-0.1l0.4-0.1l0,0l0,0l0,0
				l0,0c0,0,0,0,0-0.1s0-0.1-0.1-0.2c0-0.2-0.1-0.4-0.2-0.7c-0.1-0.3-0.1-0.5-0.1-0.7c0-0.1,0-0.2,0-0.2l0,0c0,0,0,0,0,0.1
				c0,0,0,0.1-0.1,0.2L157.8,139.7z M160.4,140.7l0.1-0.5l0,0l0,0l0,0l0,0c0,0,0,0-0.1,0s-0.2,0-0.3-0.1c-0.2-0.1-0.5-0.2-0.8-0.2
				c-0.3-0.1-0.6-0.2-0.8-0.2c-0.1,0-0.2-0.1-0.3-0.1c0,0-0.1,0-0.2,0h-0.1c0,0-0.1,0-0.2,0.1l0.6,0.7c-0.1,0.1-0.2,0.1-0.2,0.1H158
				l0,0c0.1,0,0.1,0,0.2,0c0.2,0,0.5,0.1,0.8,0.2c0.3,0.1,0.6,0.2,0.8,0.2c0.1,0,0.2,0.1,0.3,0.1h0.1l0,0l0,0l0,0l0,0L160.4,140.7z
				 M159.3,138.2c-0.1,0.1-0.1,0.2-0.1,0.3s0,0.1,0,0.1c0,0.1,0,0.1,0,0.2c0,0.1,0.1,0.2,0.1,0.3c0.1,0.2,0.2,0.5,0.3,0.8
				s0.2,0.5,0.3,0.7c0,0.1,0.1,0.2,0.1,0.2v0.1l0,0l0,0l0,0l0,0l0.4-0.2l0.4-0.2l0,0l0,0l0,0c0,0,0,0,0-0.1s-0.1-0.1-0.1-0.2
				c-0.1-0.2-0.2-0.4-0.3-0.7s-0.2-0.5-0.3-0.7c0-0.1-0.1-0.2-0.1-0.2l0,0c0,0,0,0,0,0.1c0,0,0,0.1-0.1,0.2L159.3,138.2z M162,139.3
				l0.1-0.5l0,0l0,0l0,0l0,0c0,0,0,0-0.1,0s-0.2-0.1-0.3-0.1c-0.2-0.1-0.5-0.2-0.8-0.3s-0.6-0.2-0.8-0.2c-0.1,0-0.2-0.1-0.3-0.1
				c0,0-0.1,0-0.2,0h-0.1c0,0-0.1,0-0.2,0.1l0.6,0.7c-0.1,0.1-0.2,0.1-0.2,0.1h-0.1l0,0c0.1,0,0.1,0,0.2,0.1
				c0.2,0.1,0.5,0.1,0.8,0.2c0.3,0.1,0.6,0.2,0.8,0.3c0.1,0,0.2,0.1,0.3,0.1h0.1l0,0l0,0l0,0l0,0L162,139.3z M161.2,136.6
				c-0.1,0.1-0.1,0.2-0.1,0.2c0,0.1,0,0.1,0,0.1c0,0.1,0,0.1,0,0.2c0,0.1,0,0.2,0.1,0.3c0,0.2,0.1,0.5,0.2,0.8
				c0.1,0.3,0.2,0.6,0.2,0.8c0,0.1,0.1,0.2,0.1,0.3v0.1l0,0l0,0l0,0l0,0l0.4-0.1l0.4-0.1l0,0l0,0l0,0c0,0,0,0,0-0.1s0-0.1-0.1-0.2
				c-0.1-0.2-0.1-0.5-0.2-0.8c-0.1-0.3-0.1-0.5-0.2-0.8c0-0.1,0-0.2,0-0.2l0,0c0,0,0,0,0,0.1c0,0,0,0.1-0.1,0.2L161.2,136.6z
				 M163.9,137.3c0.1-0.5,0.1-0.5,0.1-0.5l0,0l0,0l0,0l0,0c0,0,0,0-0.1,0s-0.2,0-0.3,0c-0.2,0-0.5-0.1-0.8-0.1s-0.6-0.1-0.8-0.1
				c-0.1,0-0.2,0-0.3,0c0,0-0.1,0-0.2,0h-0.1c0,0-0.1,0-0.2,0.1l0.6,0.7c-0.1,0.1-0.1,0.1-0.2,0.1c0,0,0,0-0.1,0l0,0
				c0.1,0,0.1,0,0.2,0c0.2,0,0.5,0.1,0.8,0.1s0.6,0.1,0.8,0.1c0.1,0,0.2,0,0.3,0h0.1l0,0l0,0l0,0l0,0L163.9,137.3z M162.8,134.9
				c-0.2,0.2-0.2,0.3-0.2,0.4c0,0.1,0,0.1,0,0.2c0,0.1,0.1,0.2,0.1,0.3c0.1,0.2,0.2,0.5,0.3,0.7s0.2,0.5,0.3,0.7
				c0,0.1,0.1,0.2,0.1,0.2s0,0,0,0.1l0,0l0,0l0,0l0,0l0.4-0.2l0.4-0.2l0,0l0,0l0,0l0,0c0,0,0,0,0-0.1c0,0-0.1-0.1-0.1-0.2
				c-0.1-0.2-0.2-0.4-0.3-0.6c-0.1-0.2-0.2-0.5-0.3-0.6c0-0.1,0-0.1-0.1-0.2l0,0c0,0,0,0.2-0.1,0.3L162.8,134.9z M165.5,135.7
				l0.1-0.5l0,0l0,0l0,0l0,0c0,0,0,0-0.1,0s-0.2,0-0.3-0.1c-0.2,0-0.5-0.1-0.8-0.2c-0.3-0.1-0.6-0.1-0.9-0.1c-0.1,0-0.2,0-0.3,0
				c0,0-0.1,0-0.2,0h-0.1c0,0-0.1,0-0.2,0.1l0.6,0.7c-0.1,0.1-0.1,0.1-0.2,0.1c0,0,0,0-0.1,0l0,0c0.1,0,0.1,0,0.2,0
				c0.2,0,0.5,0.1,0.8,0.1c0.3,0.1,0.6,0.1,0.8,0.2c0.1,0,0.2,0,0.3,0.1h0.1l0,0l0,0l0,0l0,0L165.5,135.7z M164.7,133.3
				c-0.1,0.1-0.1,0.2-0.1,0.2v0.1c0,0.1,0,0.1,0,0.1c0,0.1,0,0.2,0.1,0.3c0,0.2,0.1,0.5,0.2,0.7c0.1,0.2,0.1,0.5,0.2,0.7
				c0,0.1,0.1,0.2,0.1,0.2s0,0,0,0.1l0,0l0,0l0,0l0,0l0.4-0.1l0.4-0.1l0,0l0,0l0,0l0,0c0,0,0,0,0-0.1s0-0.1-0.1-0.2
				c-0.1-0.2-0.1-0.4-0.2-0.7c-0.1-0.2-0.1-0.5-0.2-0.7c0-0.1,0-0.2,0-0.2l0,0c0,0,0,0,0,0.1c0,0,0,0.1-0.1,0.2L164.7,133.3z
				 M167.1,133.4v-0.5l0,0l0,0l0,0l0,0c0,0,0,0-0.1,0s-0.1,0-0.2,0c-0.2,0-0.5,0-0.7,0.1c-0.3,0-0.5,0.1-0.7,0.1c-0.1,0-0.2,0-0.3,0
				H165h-0.1c0,0-0.1,0.1-0.2,0.1l0.7,0.6c-0.1,0.1-0.1,0.1-0.1,0.1l0,0l0,0c0,0,0.1,0,0.2,0c0.2,0,0.4-0.1,0.7-0.1s0.5,0,0.7-0.1
				c0.1,0,0.2,0,0.2,0s0,0,0.1,0l0,0l0,0l0,0L167.1,133.4z M166.2,132l0.5,1.5l0.9-0.3l-0.5-1.5L166.2,132z M163.9,129.5
				c-0.1,0-0.2,0-0.2,0l0,0C163.7,129.4,163.7,129.5,163.9,129.5c0,0.1,0.1,0.2,0.2,0.3c0.3,0.3,0.6,0.6,0.9,1
				c0.3,0.4,0.7,0.7,0.9,1c0.1,0.1,0.2,0.2,0.3,0.3l0.1,0.1l0,0l0,0l0,0l0,0l0.3-0.3l0.3-0.3l0,0l0,0l0,0l0,0c0,0,0-0.1-0.1-0.1
				c-0.1-0.1-0.2-0.2-0.3-0.3c-0.2-0.3-0.6-0.6-0.9-1c-0.3-0.4-0.7-0.7-1-1c-0.1-0.1-0.3-0.3-0.4-0.3c0,0-0.1-0.1-0.2-0.1
				c0,0-0.1,0-0.1-0.1c0,0-0.1-0.1-0.2-0.1L163.9,129.5z M153.1,137.8c0.3,0.4,0.3,0.4,0.3,0.4l0,0l0,0l0,0l0,0c0,0,0,0,0.1-0.1
				s0.2-0.2,0.3-0.3c0.3-0.2,0.7-0.6,1.2-1c1-0.8,2.3-1.9,3.7-3c1.3-1.1,2.7-2.2,3.7-3c0.5-0.4,0.9-0.8,1.2-1
				c0.2-0.1,0.3-0.2,0.4-0.3c0,0,0.1,0,0.1-0.1l0,0l0,0c0,0-0.1,0-0.2,0l0.1-1c-0.1,0-0.2,0-0.2,0h-0.1h-0.1l-0.1,0.1
				c-0.1,0.1-0.2,0.2-0.4,0.3c-0.3,0.2-0.7,0.6-1.3,1c-1,0.8-2.4,1.9-3.7,3s-2.7,2.2-3.7,3c-0.5,0.4-0.9,0.8-1.2,1
				c-0.1,0.1-0.3,0.2-0.3,0.3l-0.1,0.1l0,0l0,0l0,0l0,0C152.8,137.2,152.8,137.4,153.1,137.8z M158.1,140.1l-0.3-0.4l0,0
				L158.1,140.1z M160.4,140.7l-0.1,0.5l1,0.3l-0.4-1L160.4,140.7z M159.6,138.6l-0.3-0.3l0,0L159.6,138.6z M162,139.3l-0.1,0.5
				l0.9,0.3l-0.3-0.9L162,139.3z M161.5,137l0.3,0.3l0,0L161.5,137z M163.9,137.3l-0.1,0.5l0.9,0.2l-0.4-0.9L163.9,137.3z
				 M163.1,135.3l-0.3-0.3l0,0L163.1,135.3z M165.5,135.7l-0.1,0.5l0.8,0.2l-0.2-0.8L165.5,135.7z M167.1,133.4v0.5h0.6l-0.2-0.6
				L167.1,133.4z M166.7,131.9l0.4-0.1v-0.1l-0.1-0.1L166.7,131.9z M163.9,129v-0.5l0,0V129z"/>
			<polygon class="st6" points="151.7,132.7 149.8,130.9 149.2,131.6 151.1,133.4 			"/>
			<path class="st6" d="M176.1,161.7c0.6-0.2,1.2-0.3,1.9-0.3s1.2,0.1,1.5,0.4c0.3,0.3,0.5,0.7,0.5,1.3s-0.2,1.1-0.7,1.4
				c0.3,0.2,0.5,0.3,0.6,0.5s0.2,0.5,0.2,0.9c0,0.7-0.2,1.2-0.5,1.5s-0.9,0.5-1.6,0.5c-0.5,0-1.1-0.1-1.7-0.2l-0.3-0.1l0.1-1
				c0.7,0.1,1.3,0.2,1.8,0.2c0.6,0,1-0.3,1-0.8c0-0.2-0.1-0.4-0.3-0.6c-0.2-0.1-0.4-0.2-0.6-0.2h-1.2v-1.1h1.2
				c0.2,0,0.4-0.1,0.5-0.3c0.2-0.2,0.2-0.4,0.2-0.6c0-0.5-0.3-0.7-0.9-0.7c-0.4,0-0.9,0-1.4,0.1h-0.2L176.1,161.7z M173.2,167.8v-1
				h-2.6v-1l1.5-4.3h1.4l-1.7,4.1h1.3v-1.8h1.3v1.8h0.6v1.2h-0.6v1H173.2z M167.9,167.7c-0.7,0.1-1.3,0.2-1.8,0.2s-1-0.1-1.3-0.2
				c-0.3-0.1-0.6-0.3-0.7-0.6c-0.2-0.3-0.3-0.6-0.4-1c-0.1-0.4-0.1-0.9-0.1-1.5c0-1.3,0.2-2.1,0.5-2.6s1-0.7,1.9-0.7
				c0.5,0,1.2,0.1,1.9,0.3v1.1c-0.6-0.1-1.1-0.1-1.5-0.1s-0.7,0.1-0.9,0.2c-0.2,0.1-0.3,0.3-0.4,0.6c-0.1,0.3-0.1,0.8-0.1,1.6
				s0.1,1.3,0.3,1.6s0.5,0.4,1,0.4s1.1,0,1.6-0.1V167.7z M158.7,167.8v-6.5h4.1v1.2H160v1.5h2.3v1.1H160v1.6h2.8v1.2h-4.1V167.8z
				 M153.2,162.5v-1.2h4.7v1.2h-1.7v5.3h-1.3v-5.3H153.2z M151.2,161.3h1.3v6.5h-1.3V161.3z M146.9,164.8h1c0.6,0,1-0.4,1-1.2
				c0-0.4-0.1-0.7-0.2-0.9c-0.2-0.2-0.4-0.3-0.7-0.3h-1v2.4H146.9z M148,165.9h-1v1.9h-1.3v-6.5h2.3c1.5,0,2.3,0.8,2.3,2.3
				c0,0.8-0.2,1.3-0.6,1.8C149.3,165.7,148.7,165.9,148,165.9z M142.4,164.5c0.3,0,0.5-0.1,0.7-0.3c0.1-0.2,0.2-0.4,0.2-0.8
				c0-0.3-0.1-0.6-0.2-0.7c-0.2-0.2-0.4-0.3-0.7-0.3h-1.2v2.1H142.4z M141.2,165.6v2.2h-1.3v-6.5h2.5c1.5,0,2.2,0.7,2.2,2.1
				c0,0.8-0.3,1.5-0.9,1.9l0.9,2.5h-1.4l-0.7-2.2H141.2z M136.2,162.4l-0.6,3.1h1.7l-0.6-3.1H136.2z M133.7,167.8l1.4-6.5h2.4
				l1.4,6.5h-1.3l-0.3-1.2h-2.2l-0.3,1.2H133.7z M133.2,167.7c-0.7,0.1-1.3,0.2-1.8,0.2s-1-0.1-1.3-0.2c-0.3-0.1-0.6-0.3-0.7-0.6
				c-0.2-0.3-0.3-0.6-0.4-1c-0.1-0.4-0.1-0.9-0.1-1.5c0-1.3,0.2-2.1,0.5-2.6s1-0.7,1.9-0.7c0.5,0,1.2,0.1,1.9,0.3v1.1
				c-0.6-0.1-1.1-0.1-1.5-0.1s-0.7,0.1-0.9,0.2c-0.2,0.1-0.3,0.3-0.4,0.6c-0.1,0.3-0.1,0.8-0.1,1.6s0.1,1.3,0.3,1.6s0.5,0.4,1,0.4
				s1.1,0,1.6-0.1V167.7z"/>
			<path class="st6" d="M169.5,179.5c-0.2,0-0.3,0-0.5,0.1c-0.1,0.1-0.2,0.2-0.2,0.4s0.1,0.4,0.3,0.5h0.6c0.2-0.2,0.3-0.3,0.3-0.5
				C170.1,179.6,169.9,179.5,169.5,179.5 M168.9,181.8c0,0.4,0.2,0.6,0.7,0.6s0.7-0.2,0.7-0.6c0-0.2-0.1-0.4-0.4-0.5h-0.6
				C169,181.4,168.9,181.6,168.9,181.8z M168.4,179c0.3-0.2,0.7-0.3,1.1-0.3c0.5,0,0.9,0.1,1.1,0.3c0.3,0.2,0.4,0.5,0.4,0.9
				c0,0.3,0,0.5-0.1,0.6s-0.2,0.3-0.4,0.4c0.2,0.2,0.3,0.3,0.4,0.5c0.1,0.1,0.1,0.4,0.1,0.6c0,0.4-0.2,0.8-0.5,1s-0.7,0.3-1.2,0.3
				c-1.1,0-1.6-0.4-1.6-1.2c0-0.3,0-0.5,0.1-0.7s0.2-0.3,0.4-0.5c-0.2-0.2-0.3-0.3-0.4-0.4c-0.1-0.1-0.1-0.3-0.1-0.6
				C168,179.5,168.1,179.2,168.4,179z M166,181.1c-0.2,0-0.4,0-0.6,0.1h-0.1c0,0.8,0.2,1.2,0.7,1.2c0.2,0,0.4-0.1,0.5-0.2
				c0.1-0.1,0.2-0.3,0.2-0.5C166.6,181.3,166.4,181.1,166,181.1z M167.3,179.5c-0.4-0.1-0.8-0.1-1.2-0.1c-0.6,0-0.9,0.3-0.9,1h0.1
				c0.3-0.1,0.5-0.1,0.7-0.1c0.5,0,0.9,0.1,1.1,0.3c0.2,0.2,0.4,0.6,0.4,1.1s-0.1,0.9-0.4,1.1c-0.3,0.2-0.7,0.4-1.2,0.4
				s-0.9-0.2-1.2-0.6c-0.3-0.4-0.4-1-0.4-1.8s0.2-1.3,0.5-1.7s0.8-0.6,1.3-0.6c0.3,0,0.7,0,1.1,0.1h0.2L167.3,179.5z M162.1,180.7
				c0.2,0,0.4,0,0.6-0.1h0.1c0-0.8-0.2-1.1-0.7-1.1c-0.2,0-0.4,0.1-0.5,0.2c-0.1,0.1-0.2,0.3-0.2,0.5
				C161.5,180.5,161.7,180.7,162.1,180.7z M162,182.4c0.6,0,0.9-0.4,0.9-1.1h-0.1c-0.3,0.1-0.5,0.2-0.7,0.2c-0.5,0-0.8-0.1-1.1-0.4
				c-0.3-0.2-0.4-0.6-0.4-1.1s0.1-0.8,0.4-1.1c0.3-0.3,0.7-0.4,1.2-0.4s0.9,0.2,1.2,0.6c0.3,0.4,0.4,1,0.4,1.8s-0.2,1.3-0.5,1.7
				s-0.8,0.5-1.3,0.5c-0.3,0-0.7,0-1.1-0.1h-0.2l0.1-0.7C161.3,182.4,161.7,182.4,162,182.4z M159.5,178.7v4.4h-0.9v-3.4l-0.9,0.6
				l-0.4-0.7l1.4-1L159.5,178.7L159.5,178.7z M154.2,181.2c0-0.3,0-0.5-0.1-0.6s-0.2-0.2-0.4-0.2s-0.4,0.1-0.4,0.2
				c-0.1,0.1-0.1,0.3-0.1,0.6H154.2z M153.1,181.8c0,0.2,0.1,0.4,0.2,0.4c0.1,0.1,0.3,0.1,0.4,0.1c0.4,0,0.8,0,1.1,0h0.2v0.7
				c-0.5,0.1-1,0.2-1.4,0.2c-0.5,0-0.8-0.1-1.1-0.4c-0.2-0.3-0.3-0.7-0.3-1.3c0-1.2,0.5-1.8,1.4-1.8s1.4,0.5,1.4,1.5l-0.1,0.6H153.1
				z M150.6,182.3L150.6,182.3l0.1-1.8c-0.2,0-0.5-0.1-0.6-0.1c-0.4,0-0.5,0.3-0.5,1c0,0.3,0,0.6,0.1,0.7c0.1,0.1,0.2,0.2,0.4,0.2
				C150.2,182.4,150.4,182.4,150.6,182.3z M151.6,178.4v4.7h-0.9V183c-0.3,0.1-0.6,0.2-0.8,0.2c-0.5,0-0.8-0.1-1-0.4
				c-0.2-0.3-0.3-0.7-0.3-1.3s0.1-1.1,0.3-1.3c0.2-0.3,0.6-0.4,1-0.4c0.1,0,0.3,0,0.6,0.1h0.1v-1.4h1L151.6,178.4L151.6,178.4z
				 M148.1,180.6c-0.5-0.1-0.9-0.1-1.1-0.1c-0.2,0-0.4,0-0.4,0.1c-0.1,0-0.1,0.1-0.1,0.2c0,0.1,0,0.1,0.1,0.2c0.1,0,0.3,0.1,0.7,0.1
				c0.4,0.1,0.6,0.2,0.8,0.3c0.1,0.1,0.2,0.4,0.2,0.7c0,0.7-0.4,1.1-1.3,1.1c-0.3,0-0.6,0-1-0.1h-0.2v-0.8c0.5,0.1,0.9,0.1,1.1,0.1
				c0.2,0,0.4,0,0.4-0.1c0.1,0,0.1-0.1,0.1-0.2c0-0.1,0-0.1-0.1-0.2c-0.1,0-0.3-0.1-0.6-0.1c-0.3-0.1-0.6-0.2-0.8-0.3
				s-0.2-0.4-0.2-0.7c0-0.4,0.1-0.6,0.4-0.8c0.2-0.2,0.5-0.3,0.9-0.3c0.3,0,0.6,0,1.1,0.1h0.2L148.1,180.6z M144.2,181.2
				c0-0.3,0-0.5-0.1-0.6s-0.2-0.2-0.4-0.2s-0.4,0.1-0.4,0.2c-0.1,0.1-0.1,0.3-0.1,0.6H144.2z M143.1,181.8c0,0.2,0.1,0.4,0.2,0.4
				c0.1,0.1,0.3,0.1,0.4,0.1c0.4,0,0.8,0,1.1,0h0.2v0.7c-0.5,0.1-1,0.2-1.4,0.2c-0.5,0-0.8-0.1-1.1-0.4c-0.2-0.3-0.3-0.7-0.3-1.3
				c0-1.2,0.5-1.8,1.4-1.8s1.4,0.5,1.4,1.5l-0.1,0.6H143.1z M140.8,181.3c0-0.1,0-0.3,0-0.6s0-0.5,0-0.6c0-0.2-0.1-0.3-0.1-0.4
				c-0.1-0.1-0.2-0.2-0.3-0.3c-0.1,0-0.3-0.1-0.5-0.1h-0.6v3h0.6c0.3,0,0.6-0.1,0.7-0.3C140.7,181.9,140.7,181.7,140.8,181.3z
				 M139.8,183.1h-1.5v-4.6h1.5c0.4,0,0.7,0,0.9,0.1s0.4,0.2,0.6,0.4c0.1,0.2,0.2,0.4,0.3,0.7s0.1,0.6,0.1,1s0,0.8-0.1,1
				c0,0.3-0.1,0.5-0.3,0.7c-0.1,0.2-0.3,0.4-0.6,0.5C140.5,183.1,140.2,183.1,139.8,183.1z"/>
			<rect x="115" y="173.1" class="st6" width="79" height="1.4"/>
			<rect x="122" y="187.5" class="st6" width="65" height="1.4"/>
		</g>
		<g>
			<path d="M280.6,121.7c-1.7,0.4-3.2,0.6-4.6,0.6s-2.4-0.2-3.3-0.5s-1.5-0.9-1.9-1.6c-0.5-0.7-0.8-1.6-1-2.6s-0.3-2.2-0.3-3.7
				c0-3.2,0.4-5.3,1.3-6.6c0.9-1.2,2.5-1.9,4.9-1.9c1.4,0,3,0.2,4.8,0.6l-0.1,2.6c-1.6-0.2-2.9-0.4-3.9-0.4s-1.8,0.1-2.2,0.4
				c-0.4,0.3-0.8,0.8-1,1.6c-0.2,0.8-0.3,2.1-0.3,4s0.2,3.2,0.7,3.9s1.3,1.1,2.6,1.1s2.7-0.1,4.2-0.3L280.6,121.7z"/>
			<path d="M281.9,122l3.7-16.3h6.3l3.7,16.3h-3.3l-0.6-3H286l-0.6,3H281.9z M288.1,108.4l-1.7,7.8h4.5l-1.7-7.8H288.1z"/>
			<path d="M301,116.5v5.5h-3.3v-16.3h6.3c3.8,0,5.8,1.8,5.8,5.4c0,2.1-0.8,3.7-2.4,4.7l2.3,6.2h-3.6l-1.9-5.5
				C304.2,116.5,301,116.5,301,116.5z M305.8,112.9c0.4-0.5,0.6-1.1,0.6-1.9s-0.2-1.4-0.6-1.9s-1-0.7-1.8-0.7h-3v5.2h3.1
				C304.9,113.7,305.4,113.4,305.8,112.9z"/>
			<path d="M318.6,117.2h-2.7v4.8h-3.3v-16.3h6c3.9,0,5.8,1.9,5.8,5.7c0,1.9-0.5,3.4-1.5,4.4S320.5,117.2,318.6,117.2z M315.9,114.4
				h2.7c1.6,0,2.5-1,2.5-3.1c0-1-0.2-1.7-0.6-2.2c-0.4-0.4-1-0.7-1.9-0.7h-2.7V114.4z"/>
			<path d="M326.7,122v-16.3h3.3V122H326.7z"/>
			<path d="M332.1,108.6v-2.9h12v2.9h-4.3V122h-3.3v-13.4H332.1z"/>
			<path d="M346.2,122v-16.3h10.6v2.9h-7.2v3.8h5.8v2.8h-5.8v3.9h7.2v2.9C356.8,122,346.2,122,346.2,122z"/>
			<path d="M369.7,121.7c-1.7,0.4-3.2,0.6-4.6,0.6s-2.4-0.2-3.3-0.5s-1.5-0.9-1.9-1.6c-0.5-0.7-0.8-1.6-1-2.6s-0.3-2.2-0.3-3.7
				c0-3.2,0.4-5.3,1.3-6.6c0.9-1.2,2.5-1.9,4.9-1.9c1.4,0,3,0.2,4.8,0.6l-0.1,2.6c-1.6-0.2-2.9-0.4-3.9-0.4s-1.8,0.1-2.2,0.4
				c-0.4,0.3-0.8,0.8-1,1.6c-0.2,0.8-0.3,2.1-0.3,4s0.2,3.2,0.7,3.9s1.3,1.1,2.6,1.1s2.7-0.1,4.2-0.3L369.7,121.7z"/>
			<path d="M383.6,122v-2.6h-6.7v-2.5l3.9-10.7h3.6l-4.2,10.3h3.4V112h3.3v4.4h1.5v2.9h-1.5v2.6L383.6,122L383.6,122z"/>
			<path d="M390.8,106.7c1.5-0.6,3.1-0.9,4.9-0.9s3.1,0.3,4,1c0.8,0.7,1.2,1.8,1.2,3.3s-0.6,2.7-1.8,3.5c0.8,0.4,1.3,0.8,1.6,1.3
				c0.3,0.4,0.5,1.2,0.5,2.1c0,1.7-0.4,3-1.3,3.8s-2.2,1.2-4.1,1.2c-1.4,0-2.9-0.2-4.4-0.6l-0.8-0.2l0.2-2.5
				c1.8,0.3,3.3,0.5,4.5,0.5c1.6,0,2.5-0.7,2.5-2.1c0-0.6-0.2-1.1-0.6-1.4c-0.4-0.4-1-0.5-1.7-0.5h-3.2v-2.7h3.2
				c0.5,0,1-0.2,1.4-0.7c0.4-0.4,0.6-0.9,0.6-1.5c0-1.1-0.8-1.7-2.4-1.7c-1.1,0-2.3,0.1-3.5,0.3L391,109L390.8,106.7z"/>
		</g>
		<g>
			<path class="st7" d="M270.2,137.5v-9.7h5.9v1h-4.8v3.3h4v0.9h-4v3.5h4.8v1H270.2z"/>
			<path class="st7" d="M277.1,130.5h1.1l1.7,2.7l1.7-2.7h1.1l-2.2,3.5l2.2,3.5h-1.1l-1.7-2.7l-1.7,2.7h-1.1l2.2-3.5L277.1,130.5z"
				/>
			<path class="st7" d="M286.5,130.4c0.3,0,0.8,0.1,1.6,0.2h0.3v0.9c-0.7-0.1-1.3-0.1-1.7-0.1c-0.8,0-1.3,0.2-1.6,0.6
				c-0.3,0.4-0.4,1.1-0.4,2.1s0.1,1.7,0.4,2.1s0.8,0.6,1.7,0.6l1.7-0.1v0.9c-0.9,0.1-1.5,0.2-1.9,0.2c-1.1,0-1.8-0.3-2.3-0.8
				c-0.4-0.6-0.6-1.5-0.6-2.8s0.2-2.3,0.7-2.8C284.7,130.7,285.5,130.4,286.5,130.4z"/>
			<path class="st7" d="M294.7,136.7h0.4v0.8c-1.1,0.1-2,0.2-2.7,0.2c-1,0-1.7-0.3-2.1-0.9s-0.6-1.5-0.6-2.7c0-2.5,1-3.7,2.9-3.7
				c0.9,0,1.6,0.3,2.1,0.8s0.7,1.4,0.7,2.5l-0.1,0.8h-4.6c0,0.8,0.1,1.3,0.4,1.7s0.8,0.6,1.5,0.6S294,136.7,294.7,136.7z
				 M294.3,133.6c0-0.9-0.1-1.5-0.4-1.8c-0.3-0.4-0.7-0.5-1.3-0.5s-1.1,0.2-1.4,0.6c-0.3,0.4-0.5,1-0.5,1.8h3.6L294.3,133.6
				L294.3,133.6z"/>
			<path class="st7" d="M297.1,137.5v-10.1h1.1v10.1H297.1z"/>
			<path class="st7" d="M305,136.7h0.4v0.8c-1.1,0.1-2,0.2-2.7,0.2c-1,0-1.7-0.3-2.1-0.9s-0.6-1.5-0.6-2.7c0-2.5,1-3.7,2.9-3.7
				c0.9,0,1.6,0.3,2.1,0.8s0.7,1.4,0.7,2.5l-0.1,0.8H301c0,0.8,0.1,1.3,0.4,1.7s0.8,0.6,1.5,0.6S304.3,136.7,305,136.7z
				 M304.6,133.6c0-0.9-0.1-1.5-0.4-1.8c-0.3-0.4-0.7-0.5-1.3-0.5s-1.1,0.2-1.4,0.6c-0.3,0.4-0.5,1-0.5,1.8h3.6L304.6,133.6
				L304.6,133.6z"/>
			<path class="st7" d="M308.4,137.5h-1.1v-7h1v0.5c0.8-0.4,1.5-0.6,2.2-0.6c0.9,0,1.6,0.3,1.9,0.8s0.5,1.4,0.5,2.7v3.7h-1v-3.7
				c0-1-0.1-1.6-0.3-2c-0.2-0.4-0.6-0.5-1.2-0.5c-0.3,0-0.6,0-0.9,0.1s-0.6,0.2-0.8,0.3l-0.3,0.1L308.4,137.5L308.4,137.5z"/>
			<path class="st7" d="M317.4,130.4c0.3,0,0.8,0.1,1.6,0.2h0.3v0.9c-0.7-0.1-1.3-0.1-1.7-0.1c-0.8,0-1.3,0.2-1.6,0.6
				c-0.3,0.4-0.4,1.1-0.4,2.1s0.1,1.7,0.4,2.1s0.8,0.6,1.7,0.6l1.7-0.1v0.9c-0.9,0.1-1.5,0.2-1.9,0.2c-1.1,0-1.8-0.3-2.3-0.8
				c-0.4-0.6-0.6-1.5-0.6-2.8s0.2-2.3,0.7-2.8C315.6,130.7,316.4,130.4,317.4,130.4z"/>
			<path class="st7" d="M320.9,128.9v-1.2h1.1v1.2H320.9z M320.9,137.5v-7h1.1v7H320.9z"/>
			<path class="st7" d="M328.9,132.6v3.6c0,0.3,0.3,0.6,0.8,0.6v0.8c-0.7,0-1.3-0.2-1.7-0.6c-0.8,0.4-1.7,0.6-2.5,0.6
				c-0.6,0-1.1-0.2-1.5-0.5c-0.3-0.4-0.5-0.9-0.5-1.6c0-0.7,0.2-1.2,0.5-1.5s0.9-0.5,1.6-0.6l2.2-0.2v-0.6c0-0.5-0.1-0.8-0.3-1
				c-0.2-0.2-0.5-0.3-0.8-0.3c-0.7,0-1.5,0-2.3,0.1H324v-0.8c1-0.2,1.9-0.3,2.7-0.3c0.8,0,1.4,0.2,1.7,0.5
				C328.8,131.3,328.9,131.9,328.9,132.6z M324.6,135.5c0,0.9,0.4,1.3,1.1,1.3c0.6,0,1.3-0.1,1.9-0.3l0.3-0.1V134l-2.1,0.2
				c-0.4,0-0.7,0.2-0.9,0.4C324.7,134.8,324.6,135.1,324.6,135.5z"/>
			<path class="st7" d="M333.4,130.5h1l1.8,6.1h0.5l1.8-6.1h1l-2.9,10.1h-1.1l0.9-3.1h-1L333.4,130.5z"/>
			<path class="st7" d="M346.5,130.4c0.3,0,0.8,0.1,1.6,0.2h0.3v0.9c-0.7-0.1-1.3-0.1-1.7-0.1c-0.8,0-1.3,0.2-1.6,0.6
				c-0.3,0.4-0.4,1.1-0.4,2.1s0.1,1.7,0.4,2.1s0.8,0.6,1.7,0.6l1.7-0.1v0.9c-0.9,0.1-1.5,0.2-1.9,0.2c-1.1,0-1.8-0.3-2.3-0.8
				c-0.4-0.6-0.6-1.5-0.6-2.8s0.2-2.3,0.7-2.8C344.8,130.7,345.5,130.4,346.5,130.4z"/>
			<path class="st7" d="M355,132.6v3.6c0,0.3,0.3,0.6,0.8,0.6v0.8c-0.7,0-1.3-0.2-1.7-0.6c-0.8,0.4-1.7,0.6-2.5,0.6
				c-0.6,0-1.1-0.2-1.5-0.5c-0.3-0.4-0.5-0.9-0.5-1.6c0-0.7,0.2-1.2,0.5-1.5s0.9-0.5,1.6-0.6l2.2-0.2v-0.6c0-0.5-0.1-0.8-0.3-1
				c-0.2-0.2-0.5-0.3-0.8-0.3c-0.7,0-1.5,0-2.3,0.1h-0.4v-0.8c1-0.2,1.9-0.3,2.7-0.3c0.8,0,1.4,0.2,1.7,0.5
				C354.8,131.3,355,131.9,355,132.6z M350.7,135.5c0,0.9,0.4,1.3,1.1,1.3c0.6,0,1.3-0.1,1.9-0.3l0.3-0.1V134l-2.1,0.2
				c-0.4,0-0.7,0.2-0.9,0.4C350.8,134.8,350.7,135.1,350.7,135.5z"/>
			<path class="st7" d="M357.1,137.5v-10.1h1.1v10.1H357.1z"/>
			<path class="st7" d="M360.3,128.9v-1.2h1.1v1.2H360.3z M360.3,137.5v-7h1.1v7H360.3z"/>
			<path class="st7" d="M368.7,127.5v10.1h-1V137c-0.7,0.4-1.4,0.6-2.1,0.6c-0.4,0-0.7,0-1-0.1s-0.5-0.3-0.8-0.5
				c-0.5-0.5-0.8-1.4-0.8-2.8s0.2-2.3,0.7-2.9s1.2-0.9,2.2-0.9c0.5,0,1.1,0.1,1.7,0.2v-3.1C367.6,127.5,368.7,127.5,368.7,127.5z
				 M365.1,136.6c0.2,0.1,0.4,0.1,0.7,0.1s0.6,0,0.9-0.1s0.6-0.2,0.8-0.3l0.3-0.1v-4.7c-0.6-0.1-1.2-0.2-1.7-0.2
				c-0.7,0-1.2,0.2-1.5,0.7s-0.4,1.2-0.4,2.1c0,1.1,0.2,1.8,0.5,2.2C364.8,136.4,364.9,136.6,365.1,136.6z"/>
			<path class="st7" d="M375.7,132.6v3.6c0,0.3,0.3,0.6,0.8,0.6v0.8c-0.7,0-1.3-0.2-1.7-0.6c-0.8,0.4-1.7,0.6-2.5,0.6
				c-0.6,0-1.1-0.2-1.5-0.5c-0.3-0.4-0.5-0.9-0.5-1.6c0-0.7,0.2-1.2,0.5-1.5s0.9-0.5,1.6-0.6l2.2-0.2v-0.6c0-0.5-0.1-0.8-0.3-1
				c-0.2-0.2-0.5-0.3-0.8-0.3c-0.7,0-1.5,0-2.3,0.1h-0.4v-0.8c1-0.2,1.9-0.3,2.7-0.3c0.8,0,1.4,0.2,1.7,0.5
				C375.5,131.3,375.7,131.9,375.7,132.6z M371.4,135.5c0,0.9,0.4,1.3,1.1,1.3c0.6,0,1.3-0.1,1.9-0.3l0.3-0.1V134l-2.1,0.2
				c-0.4,0-0.7,0.2-0.9,0.4C371.5,134.8,371.4,135.1,371.4,135.5z"/>
			<path class="st7" d="M383.1,127.5v10.1h-1V137c-0.7,0.4-1.4,0.6-2.1,0.6c-0.4,0-0.7,0-1-0.1s-0.5-0.3-0.8-0.5
				c-0.5-0.5-0.8-1.4-0.8-2.8s0.2-2.3,0.7-2.9s1.2-0.9,2.2-0.9c0.5,0,1.1,0.1,1.7,0.2v-3.1C382,127.5,383.1,127.5,383.1,127.5z
				 M379.5,136.6c0.2,0.1,0.4,0.1,0.7,0.1s0.6,0,0.9-0.1s0.6-0.2,0.8-0.3l0.3-0.1v-4.7c-0.6-0.1-1.2-0.2-1.7-0.2
				c-0.7,0-1.2,0.2-1.5,0.7s-0.4,1.2-0.4,2.1c0,1.1,0.2,1.8,0.5,2.2C379.2,136.4,379.3,136.6,379.5,136.6z"/>
			<path class="st7" d="M393,136.7h0.4v0.8c-1.1,0.1-2,0.2-2.7,0.2c-1,0-1.7-0.3-2.1-0.9s-0.6-1.5-0.6-2.7c0-2.5,1-3.7,2.9-3.7
				c0.9,0,1.6,0.3,2.1,0.8s0.7,1.4,0.7,2.5l-0.1,0.8H389c0,0.8,0.1,1.3,0.4,1.7s0.8,0.6,1.5,0.6S392.3,136.7,393,136.7z
				 M392.6,133.6c0-0.9-0.1-1.5-0.4-1.8c-0.3-0.4-0.7-0.5-1.3-0.5s-1.1,0.2-1.4,0.6c-0.3,0.4-0.5,1-0.5,1.8h3.6L392.6,133.6
				L392.6,133.6z"/>
			<path class="st7" d="M397.5,131.3c-1,0-1.5,0.4-1.5,1.1c0,0.3,0.1,0.6,0.3,0.7s0.8,0.3,1.6,0.4s1.4,0.3,1.8,0.6
				c0.3,0.3,0.5,0.8,0.5,1.5s-0.2,1.2-0.7,1.6c-0.5,0.3-1.1,0.5-2,0.5c-0.6,0-1.3-0.1-2-0.2l-0.4-0.1l0.1-0.9
				c1.1,0.2,1.9,0.2,2.4,0.2s1-0.1,1.2-0.3c0.3-0.2,0.4-0.5,0.4-0.9s-0.1-0.7-0.4-0.8c-0.2-0.1-0.8-0.3-1.6-0.4
				c-0.8-0.1-1.4-0.3-1.8-0.6c-0.3-0.3-0.5-0.7-0.5-1.4s0.2-1.2,0.7-1.5s1.1-0.5,1.8-0.5c0.6,0,1.3,0.1,2.1,0.2l0.4,0.1v0.9
				C398.9,131.4,398.1,131.3,397.5,131.3z"/>
			<path class="st7" d="M406,137.5h-1.1v-7h1v0.5c0.8-0.4,1.5-0.6,2.2-0.6c0.9,0,1.6,0.3,1.9,0.8s0.5,1.4,0.5,2.7v3.7h-1v-3.7
				c0-1-0.1-1.6-0.3-2c-0.2-0.4-0.6-0.5-1.2-0.5c-0.3,0-0.6,0-0.9,0.1s-0.6,0.2-0.8,0.3l-0.3,0.1L406,137.5L406,137.5z"/>
			<path class="st7" d="M416.8,130.5h1v7h-1V137c-0.7,0.4-1.4,0.6-2.1,0.6c-1,0-1.6-0.2-1.9-0.7s-0.5-1.4-0.5-2.7v-3.7h1v3.6
				c0,1,0.1,1.7,0.3,2s0.6,0.5,1.2,0.5c0.3,0,0.6,0,0.9-0.1s0.6-0.2,0.7-0.3l0.3-0.1v-5.6H416.8z"/>
			<path class="st7" d="M424.6,136.7h0.4v0.8c-1.1,0.1-2,0.2-2.7,0.2c-1,0-1.7-0.3-2.1-0.9s-0.6-1.5-0.6-2.7c0-2.5,1-3.7,2.9-3.7
				c0.9,0,1.6,0.3,2.1,0.8s0.7,1.4,0.7,2.5l-0.1,0.8h-4.6c0,0.8,0.1,1.3,0.4,1.7s0.8,0.6,1.5,0.6S423.9,136.7,424.6,136.7z
				 M424.2,133.6c0-0.9-0.1-1.5-0.4-1.8c-0.3-0.4-0.7-0.5-1.3-0.5s-1.1,0.2-1.4,0.6c-0.3,0.4-0.5,1-0.5,1.8h3.6L424.2,133.6
				L424.2,133.6z"/>
			<path class="st7" d="M429.1,131.3c-1,0-1.5,0.4-1.5,1.1c0,0.3,0.1,0.6,0.3,0.7s0.8,0.3,1.6,0.4s1.4,0.3,1.8,0.6
				c0.3,0.3,0.5,0.8,0.5,1.5s-0.2,1.2-0.7,1.6c-0.5,0.3-1.1,0.5-2,0.5c-0.6,0-1.3-0.1-2-0.2l-0.4-0.1l0.1-0.9
				c1.1,0.2,1.9,0.2,2.4,0.2s1-0.1,1.2-0.3c0.3-0.2,0.4-0.5,0.4-0.9s-0.1-0.7-0.4-0.8c-0.2-0.1-0.8-0.3-1.6-0.4
				c-0.8-0.1-1.4-0.3-1.8-0.6c-0.3-0.3-0.5-0.7-0.5-1.4s0.2-1.2,0.7-1.5s1.1-0.5,1.8-0.5c0.6,0,1.3,0.1,2.1,0.2l0.4,0.1v0.9
				C430.5,131.4,429.7,131.3,429.1,131.3z"/>
			<path class="st7" d="M437.1,131.4h-2.2v3.3c0,0.8,0.1,1.3,0.2,1.6s0.4,0.4,0.8,0.4l1.2-0.1l0.1,0.9c-0.6,0.1-1.1,0.2-1.4,0.2
				c-0.7,0-1.2-0.2-1.5-0.5c-0.3-0.4-0.4-1-0.4-2v-3.7h-1v-0.9h1v-2.1h1v2.1h2.2L437.1,131.4L437.1,131.4z"/>
			<path class="st7" d="M438.4,137.5v-7h1v1c0.8-0.6,1.7-0.9,2.6-1.1v1.1c-0.4,0.1-0.8,0.2-1.2,0.3c-0.4,0.2-0.7,0.3-1,0.4l-0.4,0.2
				v5.1H438.4z"/>
			<path class="st7" d="M442.8,134c0-1.3,0.2-2.2,0.7-2.8s1.2-0.9,2.3-0.9c1.1,0,1.9,0.3,2.3,0.9c0.5,0.6,0.7,1.5,0.7,2.8
				s-0.2,2.2-0.6,2.8s-1.2,0.9-2.4,0.9s-1.9-0.3-2.4-0.9C443,136.2,442.8,135.3,442.8,134z M443.8,134c0,1,0.1,1.7,0.4,2.1
				c0.2,0.4,0.8,0.6,1.6,0.6c0.8,0,1.3-0.2,1.5-0.6c0.2-0.4,0.4-1.1,0.4-2.1s-0.1-1.7-0.4-2.1c-0.3-0.4-0.8-0.6-1.5-0.6
				s-1.2,0.2-1.5,0.6S443.8,133,443.8,134z"/>
			<path class="st7" d="M453.6,137.5v-10.1h1.1v10.1H453.6z"/>
			<path class="st7" d="M461.5,136.7h0.4v0.8c-1.1,0.1-2,0.2-2.7,0.2c-1,0-1.7-0.3-2.1-0.9s-0.6-1.5-0.6-2.7c0-2.5,1-3.7,2.9-3.7
				c0.9,0,1.6,0.3,2.1,0.8s0.7,1.4,0.7,2.5l-0.1,0.8h-4.6c0,0.8,0.1,1.3,0.4,1.7s0.8,0.6,1.5,0.6S460.8,136.7,461.5,136.7z
				 M461.1,133.6c0-0.9-0.1-1.5-0.4-1.8c-0.3-0.4-0.7-0.5-1.3-0.5s-1.1,0.2-1.4,0.6c-0.3,0.4-0.5,1-0.5,1.8h3.6L461.1,133.6
				L461.1,133.6z"/>
			<path class="st7" d="M464.9,137.5h-1.1v-7h1v0.5c0.7-0.4,1.4-0.6,2-0.6c0.9,0,1.5,0.2,1.8,0.7c0.3-0.2,0.7-0.4,1.2-0.5
				s0.9-0.2,1.3-0.2c0.9,0,1.6,0.3,1.9,0.7c0.3,0.5,0.5,1.4,0.5,2.7v3.7h-1.1v-3.7c0-1-0.1-1.6-0.3-2c-0.2-0.4-0.6-0.5-1.2-0.5
				c-0.3,0-0.6,0-1,0.1s-0.6,0.2-0.8,0.3l-0.3,0.1c0.1,0.3,0.2,1,0.2,2v3.6h-1.1v-3.6c0-1-0.1-1.7-0.3-2.1c-0.2-0.4-0.6-0.5-1.2-0.5
				c-0.3,0-0.6,0-0.9,0.1s-0.6,0.2-0.7,0.3l-0.2,0.1v5.8L464.9,137.5L464.9,137.5z"/>
			<path class="st7" d="M480.5,132.6v3.6c0,0.3,0.3,0.6,0.8,0.6v0.8c-0.7,0-1.3-0.2-1.7-0.6c-0.8,0.4-1.7,0.6-2.5,0.6
				c-0.6,0-1.1-0.2-1.5-0.5c-0.3-0.4-0.5-0.9-0.5-1.6c0-0.7,0.2-1.2,0.5-1.5s0.9-0.5,1.6-0.6l2.2-0.2v-0.6c0-0.5-0.1-0.8-0.3-1
				c-0.2-0.2-0.5-0.3-0.8-0.3c-0.7,0-1.5,0-2.3,0.1h-0.4v-0.8c1-0.2,1.9-0.3,2.7-0.3c0.8,0,1.4,0.2,1.7,0.5
				C480.3,131.3,480.5,131.9,480.5,132.6z M476.2,135.5c0,0.9,0.4,1.3,1.1,1.3c0.6,0,1.3-0.1,1.9-0.3l0.3-0.1V134l-2.1,0.2
				c-0.4,0-0.7,0.2-0.9,0.4C476.3,134.8,476.2,135.1,476.2,135.5z"/>
		</g>
		<g>
			<path d="M275.9,173c-0.9,0.2-1.7,0.3-2.4,0.3c-0.7,0-1.3-0.1-1.7-0.3c-0.4-0.2-0.8-0.5-1-0.8c-0.2-0.4-0.4-0.8-0.5-1.3
				s-0.1-1.1-0.1-1.8s0-1.4,0.1-1.9s0.3-0.9,0.5-1.3c0.2-0.4,0.6-0.7,1-0.8c0.4-0.2,1-0.3,1.7-0.3s1.5,0.1,2.4,0.3v0.8
				c-0.9-0.1-1.6-0.2-2.3-0.2c-0.9,0-1.6,0.3-1.9,0.8s-0.5,1.4-0.5,2.7c0,0.6,0,1.1,0.1,1.5s0.2,0.7,0.3,1c0.2,0.3,0.4,0.5,0.7,0.7
				c0.3,0.1,0.8,0.2,1.4,0.2s1.3-0.1,2.1-0.2L275.9,173z"/>
			<path d="M281.9,168.9v3.1c0,0.3,0.3,0.5,0.7,0.5v0.7c-0.7,0-1.2-0.2-1.5-0.5c-0.8,0.3-1.5,0.5-2.3,0.5c-0.6,0-1-0.2-1.3-0.5
				s-0.5-0.8-0.5-1.3s0.2-1,0.5-1.3s0.8-0.4,1.5-0.5l2-0.2v-0.5c0-0.4-0.1-0.7-0.3-0.9c-0.2-0.2-0.4-0.3-0.8-0.3
				c-0.7,0-1.4,0-2.1,0.1h-0.4v-0.7c0.9-0.2,1.8-0.3,2.5-0.3s1.2,0.2,1.6,0.5C281.7,167.8,281.9,168.2,281.9,168.9z M277.9,171.4
				c0,0.7,0.3,1.1,1,1.1c0.6,0,1.1-0.1,1.7-0.3l0.3-0.1v-2l-1.9,0.2c-0.4,0-0.7,0.1-0.8,0.3C278,170.8,277.9,171,277.9,171.4z"/>
			<path d="M283.8,173.1v-6h0.9v0.8c0.7-0.5,1.5-0.8,2.3-0.9v0.9c-0.4,0.1-0.7,0.2-1.1,0.3s-0.7,0.3-0.9,0.4l-0.3,0.2v4.4
				L283.8,173.1L283.8,173.1z"/>
			<path d="M288.2,175.8v-8.7h0.9v0.4c0.6-0.4,1.3-0.6,1.9-0.6c0.8,0,1.4,0.2,1.8,0.7s0.5,1.3,0.5,2.4c0,1.1-0.2,1.9-0.6,2.4
				s-1.1,0.7-2.1,0.7c-0.5,0-1,0-1.4-0.1v2.7h-1V175.8z M290.9,167.8c-0.3,0-0.5,0-0.8,0.1s-0.5,0.2-0.7,0.2l-0.2,0.1v4
				c0.6,0.1,1.1,0.1,1.4,0.1c0.7,0,1.2-0.2,1.5-0.6c0.3-0.4,0.4-1,0.4-1.8s-0.1-1.4-0.4-1.8C291.8,168,291.4,167.8,290.9,167.8z"/>
			<path d="M294.9,165.7v-1h1v1H294.9z M294.9,173.1v-6h1v6H294.9z"/>
			<path d="M298.7,173.1h-1v-6h0.9v0.4c0.7-0.4,1.3-0.5,2-0.5c0.9,0,1.4,0.2,1.7,0.6c0.3,0.4,0.4,1.2,0.4,2.3v3.2h-0.9V170
				c0-0.8-0.1-1.4-0.3-1.7c-0.2-0.3-0.5-0.5-1.1-0.5c-0.3,0-0.6,0-0.9,0.1s-0.5,0.2-0.7,0.2l-0.2,0.1v4.9H298.7z"/>
			<path d="M307.8,167.9h-2v2.9c0,0.7,0.1,1.1,0.2,1.4c0.1,0.2,0.4,0.3,0.8,0.3l1.1-0.1l0.1,0.7c-0.6,0.1-1,0.1-1.3,0.1
				c-0.7,0-1.1-0.2-1.4-0.5s-0.4-0.9-0.4-1.7v-3.2H304V167h0.9v-1.8h0.9v1.8h2V167.9z"/>
			<path d="M313.4,172.4h0.4v0.7c-1,0.1-1.8,0.2-2.5,0.2c-0.9,0-1.6-0.3-2-0.8s-0.6-1.3-0.6-2.3c0-2.1,0.9-3.2,2.7-3.2
				c0.9,0,1.5,0.2,1.9,0.7s0.6,1.2,0.6,2.1l-0.1,0.7h-4.2c0,0.7,0.1,1.2,0.4,1.5s0.7,0.5,1.3,0.5S312.7,172.4,313.4,172.4z
				 M313,169.8c0-0.7-0.1-1.3-0.4-1.6s-0.7-0.5-1.2-0.5s-1,0.2-1.3,0.5s-0.4,0.8-0.4,1.5h3.3V169.8z"/>
			<path d="M315.5,173.1v-6h0.9v0.8c0.7-0.5,1.5-0.8,2.3-0.9v0.9c-0.4,0.1-0.7,0.2-1.1,0.3s-0.7,0.3-0.9,0.4l-0.3,0.2v4.4
				L315.5,173.1L315.5,173.1z"/>
			<path d="M319.5,165.4l2.8-1.2l0.3,0.8l-2.8,1L319.5,165.4z M319.9,167.1h1v6h-1V167.1z"/>
			<path d="M327.2,168.9v3.1c0,0.3,0.3,0.5,0.7,0.5v0.7c-0.7,0-1.2-0.2-1.5-0.5c-0.8,0.3-1.5,0.5-2.3,0.5c-0.6,0-1-0.2-1.3-0.5
				s-0.5-0.8-0.5-1.3s0.2-1,0.5-1.3s0.8-0.4,1.5-0.5l2-0.2v-0.5c0-0.4-0.1-0.7-0.3-0.9c-0.2-0.2-0.4-0.3-0.8-0.3
				c-0.7,0-1.4,0-2.1,0.1h-0.4v-0.7c0.9-0.2,1.8-0.3,2.5-0.3s1.2,0.2,1.6,0.5C327,167.8,327.2,168.2,327.2,168.9z M323.3,171.4
				c0,0.7,0.3,1.1,1,1.1c0.6,0,1.1-0.1,1.7-0.3l0.3-0.1v-2l-1.9,0.2c-0.4,0-0.7,0.1-0.8,0.3C323.4,170.8,323.3,171,323.3,171.4z"/>
			<path d="M331.3,167.1h1l1.5,5.2h0.5l1.5-5.2h1l-1.8,6h-1.9L331.3,167.1z"/>
			<path d="M342.3,172.4h0.4v0.7c-1,0.1-1.8,0.2-2.5,0.2c-0.9,0-1.6-0.3-2-0.8s-0.6-1.3-0.6-2.3c0-2.1,0.9-3.2,2.7-3.2
				c0.9,0,1.5,0.2,1.9,0.7s0.6,1.2,0.6,2.1l-0.1,0.7h-4.2c0,0.7,0.1,1.2,0.4,1.5s0.7,0.5,1.3,0.5S341.6,172.4,342.3,172.4z
				 M341.9,169.8c0-0.7-0.1-1.3-0.4-1.6s-0.7-0.5-1.2-0.5s-1,0.2-1.3,0.5s-0.4,0.8-0.4,1.5h3.3V169.8z"/>
			<path d="M345.3,173.1h-1v-6h0.9v0.4c0.7-0.4,1.3-0.5,2-0.5c0.9,0,1.4,0.2,1.7,0.6c0.3,0.4,0.4,1.2,0.4,2.3v3.2h-0.9V170
				c0-0.8-0.1-1.4-0.3-1.7c-0.2-0.3-0.5-0.5-1.1-0.5c-0.3,0-0.6,0-0.9,0.1s-0.5,0.2-0.7,0.2l-0.2,0.1v4.9H345.3z"/>
			<path d="M355.6,172.4h0.4v0.7c-1,0.1-1.8,0.2-2.5,0.2c-0.9,0-1.6-0.3-2-0.8s-0.6-1.3-0.6-2.3c0-2.1,0.9-3.2,2.7-3.2
				c0.9,0,1.5,0.2,1.9,0.7s0.6,1.2,0.6,2.1l-0.1,0.7h-4.2c0,0.7,0.1,1.2,0.4,1.5s0.7,0.5,1.3,0.5S354.9,172.4,355.6,172.4z
				 M355.2,169.8c0-0.7-0.1-1.3-0.4-1.6s-0.7-0.5-1.2-0.5s-1,0.2-1.3,0.5s-0.4,0.8-0.4,1.5h3.3V169.8z"/>
			<path d="M357.3,167.9v-0.8h4.7v0.8l-3.6,4.4h3.6v0.8h-4.7v-0.8l3.6-4.4H357.3z"/>
			<path d="M363.2,170.1c0-1.1,0.2-1.9,0.6-2.4s1.1-0.7,2.1-0.7s1.7,0.2,2.1,0.7s0.6,1.3,0.6,2.4c0,1.1-0.2,1.9-0.6,2.4
				s-1.1,0.7-2.1,0.7s-1.8-0.2-2.1-0.7C363.4,172,363.2,171.2,363.2,170.1z M364.2,170.1c0,0.9,0.1,1.5,0.3,1.8s0.7,0.5,1.4,0.5
				s1.2-0.2,1.4-0.5c0.2-0.3,0.3-1,0.3-1.8s-0.1-1.5-0.4-1.8s-0.7-0.5-1.4-0.5s-1.1,0.2-1.4,0.5
				C364.3,168.6,364.2,169.2,364.2,170.1z"/>
			<path d="M370.3,173.1v-8.6h1v8.6H370.3z"/>
			<path d="M377.7,168.9v3.1c0,0.3,0.3,0.5,0.7,0.5v0.7c-0.7,0-1.2-0.2-1.5-0.5c-0.8,0.3-1.5,0.5-2.3,0.5c-0.6,0-1-0.2-1.3-0.5
				s-0.5-0.8-0.5-1.3s0.2-1,0.5-1.3s0.8-0.4,1.5-0.5l2-0.2v-0.5c0-0.4-0.1-0.7-0.3-0.9c-0.2-0.2-0.4-0.3-0.8-0.3
				c-0.7,0-1.4,0-2.1,0.1h-0.4v-0.7c0.9-0.2,1.8-0.3,2.5-0.3s1.2,0.2,1.6,0.5C377.5,167.8,377.7,168.2,377.7,168.9z M373.7,171.4
				c0,0.7,0.3,1.1,1,1.1c0.6,0,1.1-0.1,1.7-0.3l0.3-0.1v-2l-1.9,0.2c-0.4,0-0.7,0.1-0.8,0.3C373.8,170.8,373.7,171,373.7,171.4z"/>
			<path d="M380.5,173.1h-1v-6h0.9v0.4c0.7-0.4,1.3-0.5,2-0.5c0.9,0,1.4,0.2,1.7,0.6c0.3,0.4,0.4,1.2,0.4,2.3v3.2h-0.9V170
				c0-0.8-0.1-1.4-0.3-1.7c-0.2-0.3-0.5-0.5-1.1-0.5c-0.3,0-0.6,0-0.9,0.1s-0.5,0.2-0.7,0.2l-0.2,0.1v4.9H380.5z"/>
			<path d="M390.9,168.9v3.1c0,0.3,0.3,0.5,0.7,0.5v0.7c-0.7,0-1.2-0.2-1.5-0.5c-0.8,0.3-1.5,0.5-2.3,0.5c-0.6,0-1-0.2-1.3-0.5
				s-0.5-0.8-0.5-1.3s0.2-1,0.5-1.3s0.8-0.4,1.5-0.5l2-0.2v-0.5c0-0.4-0.1-0.7-0.3-0.9c-0.2-0.2-0.4-0.3-0.8-0.3
				c-0.7,0-1.4,0-2.1,0.1h-0.4v-0.7c0.9-0.2,1.8-0.3,2.5-0.3s1.2,0.2,1.6,0.5C390.8,167.8,390.9,168.2,390.9,168.9z M387,171.4
				c0,0.7,0.3,1.1,1,1.1c0.6,0,1.1-0.1,1.7-0.3l0.3-0.1v-2l-1.9,0.2c-0.4,0-0.7,0.1-0.8,0.3C387.1,170.8,387,171,387,171.4z"/>
			<path d="M398,167c0.3,0,0.8,0,1.4,0.1h0.3v0.7c-0.7-0.1-1.2-0.1-1.5-0.1c-0.7,0-1.2,0.2-1.5,0.5s-0.4,0.9-0.4,1.8
				s0.1,1.5,0.4,1.8c0.2,0.3,0.7,0.5,1.5,0.5l1.5-0.1v0.7c-0.8,0.1-1.4,0.2-1.8,0.2c-1,0-1.7-0.2-2.1-0.7s-0.6-1.3-0.6-2.4
				c0-1.1,0.2-1.9,0.6-2.4C396.4,167.2,397.1,167,398,167z"/>
			<path d="M400.8,170.1c0-1.1,0.2-1.9,0.6-2.4s1.1-0.7,2.1-0.7s1.7,0.2,2.1,0.7s0.6,1.3,0.6,2.4c0,1.1-0.2,1.9-0.6,2.4
				s-1.1,0.7-2.1,0.7s-1.8-0.2-2.1-0.7C401,172,400.8,171.2,400.8,170.1z M401.8,170.1c0,0.9,0.1,1.5,0.3,1.8s0.7,0.5,1.4,0.5
				s1.2-0.2,1.4-0.5c0.2-0.3,0.3-1,0.3-1.8s-0.1-1.5-0.4-1.8s-0.7-0.5-1.4-0.5s-1.1,0.2-1.4,0.5C402,168.6,401.8,169.2,401.8,170.1z
				"/>
			<path d="M408.8,173.1h-1v-6h0.9v0.4c0.7-0.4,1.3-0.5,2-0.5c0.9,0,1.4,0.2,1.7,0.6c0.3,0.4,0.4,1.2,0.4,2.3v3.2H412V170
				c0-0.8-0.1-1.4-0.3-1.7c-0.2-0.3-0.5-0.5-1.1-0.5c-0.3,0-0.6,0-0.9,0.1s-0.5,0.2-0.7,0.2l-0.2,0.1V173.1z"/>
			<path d="M422.7,165.2v0.8h-4.1l-0.2,2.6c0.7-0.3,1.3-0.5,2-0.5c1.8,0,2.7,0.8,2.7,2.3c0,0.9-0.2,1.6-0.7,2.1s-1.2,0.7-2.1,0.7
				c-0.7,0-1.5-0.1-2.4-0.3l-0.4-0.1l0.1-0.7c1,0.2,1.8,0.3,2.5,0.3s1.2-0.2,1.5-0.5s0.5-0.8,0.5-1.4c0-0.6-0.2-1-0.5-1.2
				s-0.8-0.4-1.3-0.4c-0.3,0-0.6,0-1,0.1s-0.6,0.2-0.8,0.2l-0.3,0.1l-0.7-0.1l0.2-4.1L422.7,165.2L422.7,165.2z"/>
			<path d="M424.7,165.4c0.8-0.2,1.7-0.3,2.6-0.3s1.6,0.2,2,0.5s0.6,0.9,0.6,1.6c0,0.4-0.1,0.6-0.2,0.8s-0.2,0.3-0.3,0.4
				c-0.1,0.1-0.1,0.2-0.2,0.3c-0.2,0.1-0.3,0.2-0.4,0.3l-0.1,0.1c0.5,0.2,0.9,0.4,1.1,0.6c0.2,0.3,0.4,0.7,0.4,1.3
				c0,0.8-0.2,1.4-0.7,1.8c-0.4,0.4-1.1,0.6-2.1,0.6c-0.7,0-1.5-0.1-2.4-0.2l-0.4-0.1l0.1-0.8c0.9,0.2,1.8,0.3,2.6,0.3
				c1.2,0,1.8-0.5,1.8-1.5s-0.6-1.4-1.7-1.5h-1.7v-0.8h1.7c0.4,0,0.7-0.1,1-0.4c0.3-0.3,0.5-0.6,0.5-1.1s-0.1-0.8-0.4-1
				s-0.7-0.3-1.3-0.3c-0.7,0-1.4,0.1-2,0.2l-0.3,0.1L424.7,165.4z"/>
			<path d="M439.2,168.9v3.1c0,0.3,0.3,0.5,0.7,0.5v0.7c-0.7,0-1.2-0.2-1.5-0.5c-0.8,0.3-1.5,0.5-2.3,0.5c-0.6,0-1-0.2-1.3-0.5
				s-0.5-0.8-0.5-1.3s0.2-1,0.5-1.3s0.8-0.4,1.5-0.5l2-0.2v-0.5c0-0.4-0.1-0.7-0.3-0.9c-0.2-0.2-0.4-0.3-0.8-0.3
				c-0.7,0-1.4,0-2.1,0.1h-0.4v-0.7c0.9-0.2,1.8-0.3,2.5-0.3s1.2,0.2,1.6,0.5C439,167.8,439.2,168.2,439.2,168.9z M435.2,171.4
				c0,0.7,0.3,1.1,1,1.1c0.6,0,1.1-0.1,1.7-0.3l0.3-0.1v-2l-1.9,0.2c-0.4,0-0.7,0.1-0.8,0.3C435.3,170.8,435.2,171,435.2,171.4z"/>
			<path d="M441.1,173.1v-6h0.9v0.4l0.3-0.1c0.2-0.1,0.5-0.2,0.8-0.3s0.6-0.1,0.9-0.1c0.9,0,1.4,0.2,1.7,0.6
				c0.3,0.4,0.4,1.2,0.4,2.3v3.2h-0.9V170c0-0.8-0.1-1.4-0.3-1.7c-0.2-0.3-0.6-0.5-1.1-0.5s-1.2,0.1-1.8,0.4v4.9L441.1,173.1
				L441.1,173.1z M444.6,165.8c-0.2,0-0.5-0.1-0.9-0.3s-0.7-0.3-0.8-0.3c-0.2,0-0.5,0.1-0.8,0.4l-0.2,0.1l-0.2-0.6
				c0.4-0.4,0.8-0.6,1.2-0.6c0.2,0,0.5,0.1,0.9,0.3s0.7,0.3,0.8,0.3c0.2,0,0.4-0.1,0.8-0.3l0.2-0.1l0.2,0.6
				C445.3,165.6,444.9,165.8,444.6,165.8z"/>
			<path d="M447.6,170.1c0-1.1,0.2-1.9,0.6-2.4s1.1-0.7,2.1-0.7s1.7,0.2,2.1,0.7s0.6,1.3,0.6,2.4c0,1.1-0.2,1.9-0.6,2.4
				s-1.1,0.7-2.1,0.7s-1.8-0.2-2.1-0.7C447.8,172,447.6,171.2,447.6,170.1z M448.6,170.1c0,0.9,0.1,1.5,0.3,1.8s0.7,0.5,1.4,0.5
				s1.2-0.2,1.4-0.5c0.2-0.3,0.3-1,0.3-1.8s-0.1-1.5-0.4-1.8s-0.7-0.5-1.4-0.5s-1.1,0.2-1.4,0.5
				C448.7,168.6,448.6,169.2,448.6,170.1z"/>
			<path d="M456.7,167.8c-0.9,0-1.4,0.3-1.4,0.9c0,0.3,0.1,0.5,0.3,0.6c0.2,0.1,0.7,0.2,1.5,0.4c0.8,0.1,1.3,0.3,1.6,0.5
				c0.3,0.2,0.5,0.6,0.5,1.3s-0.2,1.1-0.6,1.4c-0.4,0.3-1,0.4-1.8,0.4c-0.5,0-1.1-0.1-1.9-0.2l-0.4-0.1l0.1-0.8
				c1,0.1,1.7,0.2,2.2,0.2s0.9-0.1,1.1-0.2s0.4-0.4,0.4-0.7s-0.1-0.6-0.3-0.7c-0.2-0.1-0.7-0.2-1.5-0.4c-0.7-0.1-1.3-0.3-1.6-0.5
				c-0.3-0.2-0.5-0.6-0.5-1.2s0.2-1,0.7-1.3c0.4-0.3,1-0.4,1.6-0.4c0.5,0,1.2,0.1,2,0.2l0.4,0.1v0.8
				C458,167.8,457.2,167.8,456.7,167.8z"/>
			<path d="M468.3,164.5v8.6h-0.9v-0.4c-0.7,0.4-1.3,0.5-1.9,0.5c-0.3,0-0.6,0-0.9-0.1s-0.5-0.2-0.7-0.4c-0.5-0.4-0.7-1.2-0.7-2.4
				s0.2-2,0.6-2.5s1.1-0.8,2.1-0.8c0.5,0,1,0.1,1.6,0.2v-2.7L468.3,164.5L468.3,164.5z M465,172.3c0.2,0.1,0.4,0.1,0.6,0.1
				s0.5,0,0.8-0.1s0.5-0.2,0.7-0.2l0.3-0.1v-4.1c-0.5-0.1-1.1-0.1-1.5-0.1c-0.6,0-1.1,0.2-1.4,0.6c-0.3,0.4-0.4,1-0.4,1.8
				c0,0.9,0.1,1.6,0.4,1.9C464.7,172.2,464.8,172.3,465,172.3z"/>
			<path d="M474.5,172.4h0.4v0.7c-1,0.1-1.8,0.2-2.5,0.2c-0.9,0-1.6-0.3-2-0.8s-0.6-1.3-0.6-2.3c0-2.1,0.9-3.2,2.7-3.2
				c0.9,0,1.5,0.2,1.9,0.7s0.6,1.2,0.6,2.1l-0.1,0.7h-4.2c0,0.7,0.1,1.2,0.4,1.5s0.7,0.5,1.3,0.5S473.9,172.4,474.5,172.4z
				 M474.2,169.8c0-0.7-0.1-1.3-0.4-1.6s-0.7-0.5-1.2-0.5s-1,0.2-1.3,0.5s-0.4,0.8-0.4,1.5h3.3V169.8z"/>
			<path d="M273.7,182.3h-2v2.9c0,0.7,0.1,1.1,0.2,1.4c0.1,0.2,0.4,0.3,0.8,0.3l1.1-0.1l0.1,0.7c-0.6,0.1-1,0.1-1.3,0.1
				c-0.7,0-1.1-0.2-1.4-0.5s-0.4-0.9-0.4-1.7v-3.2h-0.9v-0.8h0.9v-1.8h0.9v1.8h2L273.7,182.3L273.7,182.3z"/>
			<path d="M274.9,187.5v-6h0.9v0.8c0.7-0.5,1.5-0.8,2.3-0.9v0.9c-0.4,0.1-0.7,0.2-1.1,0.3s-0.7,0.3-0.9,0.4l-0.3,0.2v4.4
				L274.9,187.5L274.9,187.5z"/>
			<path d="M283.8,183.3v3.1c0,0.3,0.3,0.5,0.7,0.5v0.7c-0.7,0-1.2-0.2-1.5-0.5c-0.8,0.3-1.5,0.5-2.3,0.5c-0.6,0-1-0.2-1.3-0.5
				s-0.5-0.8-0.5-1.3s0.2-1,0.5-1.3s0.8-0.4,1.5-0.5l2-0.2v-0.5c0-0.4-0.1-0.7-0.3-0.9c-0.2-0.2-0.4-0.3-0.8-0.3
				c-0.7,0-1.4,0-2.1,0.1h-0.4v-0.7c0.9-0.2,1.8-0.3,2.5-0.3s1.2,0.2,1.6,0.5C283.7,182.2,283.8,182.6,283.8,183.3z M279.9,185.8
				c0,0.7,0.3,1.1,1,1.1c0.6,0,1.1-0.1,1.7-0.3l0.3-0.1v-2l-1.9,0.2c-0.4,0-0.7,0.1-0.8,0.3C280,185.2,279.9,185.4,279.9,185.8z"/>
			<path d="M285.1,181.5h1l1.6,5.2h0.4l1.6-5.2h1l-2.7,8.7h-1l0.8-2.7h-0.9L285.1,181.5z"/>
			<path d="M296.1,186.8h0.4v0.7c-1,0.1-1.8,0.2-2.5,0.2c-0.9,0-1.6-0.3-2-0.8s-0.6-1.3-0.6-2.3c0-2.1,0.9-3.2,2.7-3.2
				c0.9,0,1.5,0.2,1.9,0.7s0.6,1.2,0.6,2.1l-0.1,0.7h-4.2c0,0.7,0.1,1.2,0.4,1.5s0.7,0.5,1.3,0.5S295.4,186.8,296.1,186.8z
				 M295.7,184.2c0-0.7-0.1-1.3-0.4-1.6s-0.7-0.5-1.2-0.5s-1,0.2-1.3,0.5s-0.4,0.8-0.4,1.5h3.3V184.2z"/>
			<path d="M300.6,181.4c0.3,0,0.8,0,1.4,0.1h0.3v0.7c-0.7-0.1-1.2-0.1-1.5-0.1c-0.7,0-1.2,0.2-1.5,0.5s-0.4,0.9-0.4,1.8
				s0.1,1.5,0.4,1.8c0.2,0.3,0.7,0.5,1.5,0.5l1.5-0.1v0.7c-0.8,0.1-1.4,0.2-1.8,0.2c-1,0-1.7-0.2-2.1-0.7s-0.6-1.3-0.6-2.4
				c0-1.1,0.2-1.9,0.6-2.4C298.9,181.6,299.6,181.4,300.6,181.4z"/>
			<path d="M307,182.3h-2v2.9c0,0.7,0.1,1.1,0.2,1.4c0.1,0.2,0.4,0.3,0.8,0.3l1.1-0.1l0.1,0.7c-0.6,0.1-1,0.1-1.3,0.1
				c-0.7,0-1.1-0.2-1.4-0.5s-0.4-0.9-0.4-1.7v-3.2h-0.9v-0.8h0.9v-1.8h0.9v1.8h2L307,182.3L307,182.3z"/>
			<path d="M307.9,184.5c0-1.1,0.2-1.9,0.6-2.4s1.1-0.7,2.1-0.7s1.7,0.2,2.1,0.7s0.6,1.3,0.6,2.4c0,1.1-0.2,1.9-0.6,2.4
				s-1.1,0.7-2.1,0.7s-1.8-0.2-2.1-0.7C308.1,186.4,307.9,185.6,307.9,184.5z M308.9,184.5c0,0.9,0.1,1.5,0.3,1.8s0.7,0.5,1.4,0.5
				s1.2-0.2,1.4-0.5c0.2-0.3,0.3-1,0.3-1.8s-0.1-1.5-0.4-1.8s-0.7-0.5-1.4-0.5s-1.1,0.2-1.4,0.5C309,183,308.9,183.6,308.9,184.5z"
				/>
			<path d="M315,187.5v-6h0.9v0.8c0.7-0.5,1.5-0.8,2.3-0.9v0.9c-0.4,0.1-0.7,0.2-1.1,0.3s-0.7,0.3-0.9,0.4l-0.3,0.2v4.4L315,187.5
				L315,187.5z"/>
			<path d="M319.4,180.1v-1h1v1H319.4z M319.4,187.5v-6h1v6H319.4z"/>
			<path d="M326.7,183.3v3.1c0,0.3,0.3,0.5,0.7,0.5v0.7c-0.7,0-1.2-0.2-1.5-0.5c-0.8,0.3-1.5,0.5-2.3,0.5c-0.6,0-1-0.2-1.3-0.5
				s-0.5-0.8-0.5-1.3s0.2-1,0.5-1.3s0.8-0.4,1.5-0.5l2-0.2v-0.5c0-0.4-0.1-0.7-0.3-0.9c-0.2-0.2-0.4-0.3-0.8-0.3
				c-0.7,0-1.4,0-2.1,0.1h-0.4v-0.7c0.9-0.2,1.8-0.3,2.5-0.3s1.2,0.2,1.6,0.5C326.5,182.2,326.7,182.6,326.7,183.3z M322.8,185.8
				c0,0.7,0.3,1.1,1,1.1c0.6,0,1.1-0.1,1.7-0.3l0.3-0.1v-2l-1.9,0.2c-0.4,0-0.7,0.1-0.8,0.3C322.8,185.2,322.8,185.4,322.8,185.8z"
				/>
			<path d="M328.1,189l0.6-2.8h1.1l-0.9,2.8H328.1z"/>
			<path d="M336.6,181.4c0.3,0,0.8,0,1.4,0.1h0.3v0.7c-0.7-0.1-1.2-0.1-1.5-0.1c-0.7,0-1.2,0.2-1.5,0.5s-0.4,0.9-0.4,1.8
				s0.1,1.5,0.4,1.8c0.2,0.3,0.7,0.5,1.5,0.5l1.5-0.1v0.7c-0.8,0.1-1.4,0.2-1.8,0.2c-1,0-1.7-0.2-2.1-0.7s-0.6-1.3-0.6-2.4
				c0-1.1,0.2-1.9,0.6-2.4C335,181.6,335.7,181.4,336.6,181.4z"/>
			<path d="M339.8,187.5v-6h0.9v0.8c0.7-0.5,1.5-0.8,2.3-0.9v0.9c-0.4,0.1-0.7,0.2-1.1,0.3s-0.7,0.3-0.9,0.4l-0.3,0.2v4.4
				L339.8,187.5L339.8,187.5z"/>
			<path d="M348.4,186.8h0.4v0.7c-1,0.1-1.8,0.2-2.5,0.2c-0.9,0-1.6-0.3-2-0.8s-0.6-1.3-0.6-2.3c0-2.1,0.9-3.2,2.7-3.2
				c0.9,0,1.5,0.2,1.9,0.7s0.6,1.2,0.6,2.1l-0.1,0.7h-4.2c0,0.7,0.1,1.2,0.4,1.5s0.7,0.5,1.3,0.5S347.8,186.8,348.4,186.8z
				 M348.1,184.2c0-0.7-0.1-1.3-0.4-1.6s-0.7-0.5-1.2-0.5s-1,0.2-1.3,0.5s-0.4,0.8-0.4,1.5h3.3V184.2z"/>
			<path d="M355.1,183.3v3.1c0,0.3,0.3,0.5,0.7,0.5v0.7c-0.7,0-1.2-0.2-1.5-0.5c-0.8,0.3-1.5,0.5-2.3,0.5c-0.6,0-1-0.2-1.3-0.5
				s-0.5-0.8-0.5-1.3s0.2-1,0.5-1.3s0.8-0.4,1.5-0.5l2-0.2v-0.5c0-0.4-0.1-0.7-0.3-0.9c-0.2-0.2-0.4-0.3-0.8-0.3
				c-0.7,0-1.4,0-2.1,0.1h-0.4v-0.7c0.9-0.2,1.8-0.3,2.5-0.3s1.2,0.2,1.6,0.5C354.9,182.2,355.1,182.6,355.1,183.3z M351.1,185.8
				c0,0.7,0.3,1.1,1,1.1c0.6,0,1.1-0.1,1.7-0.3l0.3-0.1v-2l-1.9,0.2c-0.4,0-0.7,0.1-0.8,0.3C351.2,185.2,351.1,185.4,351.1,185.8z"
				/>
			<path d="M357.9,187.5h-1v-6h0.9v0.4c0.6-0.4,1.3-0.5,1.9-0.5c0.8,0,1.3,0.2,1.7,0.6c0.3-0.2,0.6-0.3,1.1-0.4
				c0.4-0.1,0.8-0.2,1.2-0.2c0.9,0,1.4,0.2,1.7,0.6c0.3,0.4,0.4,1.2,0.4,2.3v3.2h-1v-3.1c0-0.8-0.1-1.4-0.3-1.7s-0.5-0.5-1.1-0.5
				c-0.3,0-0.6,0-0.9,0.1s-0.5,0.2-0.7,0.2l-0.2,0.1c0.1,0.3,0.2,0.8,0.2,1.8v3.1h-1v-3.1c0-0.9-0.1-1.4-0.2-1.8
				c-0.2-0.3-0.5-0.5-1.1-0.5c-0.3,0-0.6,0-0.8,0.1c-0.3,0.1-0.5,0.2-0.7,0.2l-0.2,0.1v5H357.9z"/>
			<path d="M367.4,184.5c0-1.1,0.2-1.9,0.6-2.4s1.1-0.7,2.1-0.7s1.7,0.2,2.1,0.7s0.6,1.3,0.6,2.4c0,1.1-0.2,1.9-0.6,2.4
				s-1.1,0.7-2.1,0.7s-1.8-0.2-2.1-0.7C367.5,186.4,367.4,185.6,367.4,184.5z M368.3,184.5c0,0.9,0.1,1.5,0.3,1.8s0.7,0.5,1.4,0.5
				s1.2-0.2,1.4-0.5c0.2-0.3,0.3-1,0.3-1.8s-0.1-1.5-0.4-1.8s-0.7-0.5-1.4-0.5s-1.1,0.2-1.4,0.5C368.5,183,368.3,183.6,368.3,184.5z
				"/>
			<path d="M376.4,182.2c-0.9,0-1.4,0.3-1.4,0.9c0,0.3,0.1,0.5,0.3,0.6c0.2,0.1,0.7,0.2,1.5,0.4c0.8,0.1,1.3,0.3,1.6,0.5
				c0.3,0.2,0.5,0.6,0.5,1.3s-0.2,1.1-0.6,1.4c-0.4,0.3-1,0.4-1.8,0.4c-0.5,0-1.1-0.1-1.9-0.2l-0.4-0.1l0.1-0.8
				c1,0.1,1.7,0.2,2.2,0.2s0.9-0.1,1.1-0.2s0.4-0.4,0.4-0.7s-0.1-0.6-0.3-0.7c-0.2-0.1-0.7-0.2-1.5-0.4c-0.7-0.1-1.3-0.3-1.6-0.5
				c-0.3-0.2-0.5-0.6-0.5-1.2s0.2-1,0.7-1.3c0.4-0.3,1-0.4,1.6-0.4c0.5,0,1.2,0.1,2,0.2l0.4,0.1v0.8
				C377.7,182.2,376.9,182.2,376.4,182.2z"/>
			<path d="M382.5,181.5h1l1.6,5.2h0.4l1.6-5.2h1l-2.7,8.7h-1l0.8-2.7h-0.9L382.5,181.5z"/>
			<path d="M392.1,187.5v-6h0.9v0.8c0.7-0.5,1.5-0.8,2.3-0.9v0.9c-0.4,0.1-0.7,0.2-1.1,0.3s-0.7,0.3-0.9,0.4l-0.3,0.2v4.4
				L392.1,187.5L392.1,187.5z"/>
			<path d="M400.7,186.8h0.4v0.7c-1,0.1-1.8,0.2-2.5,0.2c-0.9,0-1.6-0.3-2-0.8s-0.6-1.3-0.6-2.3c0-2.1,0.9-3.2,2.7-3.2
				c0.9,0,1.5,0.2,1.9,0.7s0.6,1.2,0.6,2.1l-0.1,0.7h-4.2c0,0.7,0.1,1.2,0.4,1.5s0.7,0.5,1.3,0.5S400.1,186.8,400.7,186.8z
				 M400.4,184.2c0-0.7-0.1-1.3-0.4-1.6s-0.7-0.5-1.2-0.5s-1,0.2-1.3,0.5s-0.4,0.8-0.4,1.5h3.3V184.2z"/>
			<path d="M403.8,187.5h-1v-6h0.9v0.4c0.6-0.4,1.3-0.5,1.9-0.5c0.8,0,1.3,0.2,1.7,0.6c0.3-0.2,0.6-0.3,1.1-0.4
				c0.4-0.1,0.8-0.2,1.2-0.2c0.9,0,1.4,0.2,1.7,0.6c0.3,0.4,0.4,1.2,0.4,2.3v3.2h-1v-3.1c0-0.8-0.1-1.4-0.3-1.7s-0.5-0.5-1.1-0.5
				c-0.3,0-0.6,0-0.9,0.1s-0.5,0.2-0.7,0.2l-0.2,0.1c0.1,0.3,0.2,0.8,0.2,1.8v3.1h-1v-3.1c0-0.9-0.1-1.4-0.2-1.8
				c-0.2-0.3-0.5-0.5-1.1-0.5c-0.3,0-0.6,0-0.8,0.1c-0.3,0.1-0.5,0.2-0.7,0.2l-0.2,0.1v5H403.8z"/>
			<path d="M413.2,184.5c0-1.1,0.2-1.9,0.6-2.4s1.1-0.7,2.1-0.7s1.7,0.2,2.1,0.7s0.6,1.3,0.6,2.4c0,1.1-0.2,1.9-0.6,2.4
				s-1.1,0.7-2.1,0.7s-1.8-0.2-2.1-0.7C413.4,186.4,413.2,185.6,413.2,184.5z M414.2,184.5c0,0.9,0.1,1.5,0.3,1.8s0.7,0.5,1.4,0.5
				s1.2-0.2,1.4-0.5c0.2-0.3,0.3-1,0.3-1.8s-0.1-1.5-0.4-1.8s-0.7-0.5-1.4-0.5s-1.1,0.2-1.4,0.5C414.4,183,414.2,183.6,414.2,184.5z
				"/>
			<path d="M425.2,178.9v8.6h-0.9v-0.4c-0.7,0.4-1.3,0.5-1.9,0.5c-0.3,0-0.6,0-0.9-0.1s-0.5-0.2-0.7-0.4c-0.5-0.4-0.7-1.2-0.7-2.4
				s0.2-2,0.6-2.5s1.1-0.8,2.1-0.8c0.5,0,1,0.1,1.6,0.2v-2.7L425.2,178.9L425.2,178.9z M421.9,186.7c0.2,0.1,0.4,0.1,0.6,0.1
				s0.5,0,0.8-0.1s0.5-0.2,0.7-0.2l0.3-0.1v-4.1c-0.5-0.1-1.1-0.1-1.5-0.1c-0.6,0-1.1,0.2-1.4,0.6c-0.3,0.4-0.4,1-0.4,1.8
				c0,0.9,0.1,1.6,0.4,1.9C421.6,186.6,421.7,186.7,421.9,186.7z"/>
			<path d="M431.4,186.8h0.4v0.7c-1,0.1-1.8,0.2-2.5,0.2c-0.9,0-1.6-0.3-2-0.8s-0.6-1.3-0.6-2.3c0-2.1,0.9-3.2,2.7-3.2
				c0.9,0,1.5,0.2,1.9,0.7s0.6,1.2,0.6,2.1l-0.1,0.7h-4.2c0,0.7,0.1,1.2,0.4,1.5s0.7,0.5,1.3,0.5S430.7,186.8,431.4,186.8z
				 M431,184.2c0-0.7-0.1-1.3-0.4-1.6s-0.7-0.5-1.2-0.5s-1,0.2-1.3,0.5s-0.4,0.8-0.4,1.5h3.3V184.2z"/>
			<path d="M433.6,187.5v-8.6h1v8.6H433.6z"/>
			<path d="M440.9,183.3v3.1c0,0.3,0.3,0.5,0.7,0.5v0.7c-0.7,0-1.2-0.2-1.5-0.5c-0.8,0.3-1.5,0.5-2.3,0.5c-0.6,0-1-0.2-1.3-0.5
				s-0.5-0.8-0.5-1.3s0.2-1,0.5-1.3s0.8-0.4,1.5-0.5l2-0.2v-0.5c0-0.4-0.1-0.7-0.3-0.9c-0.2-0.2-0.4-0.3-0.8-0.3
				c-0.7,0-1.4,0-2.1,0.1h-0.4v-0.7c0.9-0.2,1.8-0.3,2.5-0.3s1.2,0.2,1.6,0.5C440.8,182.2,440.9,182.6,440.9,183.3z M437,185.8
				c0,0.7,0.3,1.1,1,1.1c0.6,0,1.1-0.1,1.7-0.3l0.3-0.1v-2l-1.9,0.2c-0.4,0-0.7,0.1-0.8,0.3C437.1,185.2,437,185.4,437,185.8z"/>
			<path d="M443.8,187.5h-1v-6h0.9v0.4c0.6-0.4,1.3-0.5,1.9-0.5c0.8,0,1.3,0.2,1.7,0.6c0.3-0.2,0.6-0.3,1.1-0.4
				c0.4-0.1,0.8-0.2,1.2-0.2c0.9,0,1.4,0.2,1.7,0.6c0.3,0.4,0.4,1.2,0.4,2.3v3.2h-1v-3.1c0-0.8-0.1-1.4-0.3-1.7s-0.5-0.5-1.1-0.5
				c-0.3,0-0.6,0-0.9,0.1s-0.5,0.2-0.7,0.2l-0.2,0.1c0.1,0.3,0.2,0.8,0.2,1.8v3.1h-1v-3.1c0-0.9-0.1-1.4-0.2-1.8
				c-0.2-0.3-0.5-0.5-1.1-0.5c-0.3,0-0.6,0-0.8,0.1c-0.3,0.1-0.5,0.2-0.7,0.2l-0.2,0.1v5H443.8z"/>
			<path d="M453.2,184.5c0-1.1,0.2-1.9,0.6-2.4s1.1-0.7,2.1-0.7s1.7,0.2,2.1,0.7s0.6,1.3,0.6,2.4c0,1.1-0.2,1.9-0.6,2.4
				s-1.1,0.7-2.1,0.7s-1.8-0.2-2.1-0.7C453.4,186.4,453.2,185.6,453.2,184.5z M454.2,184.5c0,0.9,0.1,1.5,0.3,1.8s0.7,0.5,1.4,0.5
				s1.2-0.2,1.4-0.5c0.2-0.3,0.3-1,0.3-1.8s-0.1-1.5-0.4-1.8s-0.7-0.5-1.4-0.5s-1.1,0.2-1.4,0.5C454.3,183,454.2,183.6,454.2,184.5z
				"/>
			<path d="M462.3,182.2c-0.9,0-1.4,0.3-1.4,0.9c0,0.3,0.1,0.5,0.3,0.6c0.2,0.1,0.7,0.2,1.5,0.4c0.8,0.1,1.3,0.3,1.6,0.5
				c0.3,0.2,0.5,0.6,0.5,1.3s-0.2,1.1-0.6,1.4c-0.4,0.3-1,0.4-1.8,0.4c-0.5,0-1.1-0.1-1.9-0.2l-0.4-0.1l0.1-0.8
				c1,0.1,1.7,0.2,2.2,0.2s0.9-0.1,1.1-0.2s0.4-0.4,0.4-0.7s-0.1-0.6-0.3-0.7c-0.2-0.1-0.7-0.2-1.5-0.4c-0.7-0.1-1.3-0.3-1.6-0.5
				c-0.3-0.2-0.5-0.6-0.5-1.2s0.2-1,0.7-1.3c0.4-0.3,1-0.4,1.6-0.4c0.5,0,1.2,0.1,2,0.2l0.4,0.1v0.8
				C463.6,182.2,462.8,182.2,462.3,182.2z"/>
			<path d="M473.9,178.9v8.6H473v-0.4c-0.7,0.4-1.3,0.5-1.9,0.5c-0.3,0-0.6,0-0.9-0.1s-0.5-0.2-0.7-0.4c-0.5-0.4-0.7-1.2-0.7-2.4
				s0.2-2,0.6-2.5s1.1-0.8,2.1-0.8c0.5,0,1,0.1,1.6,0.2v-2.7L473.9,178.9L473.9,178.9z M470.6,186.7c0.2,0.1,0.4,0.1,0.6,0.1
				s0.5,0,0.8-0.1s0.5-0.2,0.7-0.2l0.3-0.1v-4.1c-0.5-0.1-1.1-0.1-1.5-0.1c-0.6,0-1.1,0.2-1.4,0.6c-0.3,0.4-0.4,1-0.4,1.8
				c0,0.9,0.1,1.6,0.4,1.9C470.3,186.6,470.4,186.7,470.6,186.7z"/>
			<path d="M480.1,186.8h0.4v0.7c-1,0.1-1.8,0.2-2.5,0.2c-0.9,0-1.6-0.3-2-0.8s-0.6-1.3-0.6-2.3c0-2.1,0.9-3.2,2.7-3.2
				c0.9,0,1.5,0.2,1.9,0.7s0.6,1.2,0.6,2.1l-0.1,0.7h-4.2c0,0.7,0.1,1.2,0.4,1.5s0.7,0.5,1.3,0.5S479.5,186.8,480.1,186.8z
				 M479.8,184.2c0-0.7-0.1-1.3-0.4-1.6s-0.7-0.5-1.2-0.5s-1,0.2-1.3,0.5s-0.4,0.8-0.4,1.5h3.3V184.2z"/>
			<path d="M271.6,196.7v5.2h-1v-5.2h-0.8v-0.8h0.8v-0.5c0-0.8,0.1-1.4,0.4-1.7s0.7-0.5,1.3-0.5l1.3,0.1v0.7c-0.5,0-0.9,0-1.2,0
				s-0.5,0.1-0.7,0.3c-0.1,0.2-0.2,0.6-0.2,1.1v0.5h1.9v0.8L271.6,196.7L271.6,196.7z"/>
			<path d="M274.3,198.9c0-1.1,0.2-1.9,0.6-2.4s1.1-0.7,2.1-0.7s1.7,0.2,2.1,0.7s0.6,1.3,0.6,2.4c0,1.1-0.2,1.9-0.6,2.4
				S278,202,277,202s-1.8-0.2-2.1-0.7C274.4,200.8,274.3,200,274.3,198.9z M275.2,198.9c0,0.9,0.1,1.5,0.3,1.8s0.7,0.5,1.4,0.5
				s1.2-0.2,1.4-0.5c0.2-0.3,0.3-1,0.3-1.8s-0.1-1.5-0.4-1.8s-0.7-0.5-1.4-0.5s-1.1,0.2-1.4,0.5C275.4,197.4,275.2,198,275.2,198.9z
				"/>
			<path d="M281.3,201.9v-6h0.9v0.8c0.7-0.5,1.5-0.8,2.3-0.9v0.9c-0.4,0.1-0.7,0.2-1.1,0.3s-0.7,0.3-0.9,0.4l-0.3,0.2v4.4
				L281.3,201.9L281.3,201.9z"/>
			<path d="M286.7,201.9h-1v-6h0.9v0.4c0.6-0.4,1.3-0.5,1.9-0.5c0.8,0,1.3,0.2,1.7,0.6c0.3-0.2,0.6-0.3,1.1-0.4
				c0.4-0.1,0.8-0.2,1.2-0.2c0.9,0,1.4,0.2,1.7,0.6c0.3,0.4,0.4,1.2,0.4,2.3v3.2h-1v-3.1c0-0.8-0.1-1.4-0.3-1.7s-0.5-0.5-1.1-0.5
				c-0.3,0-0.6,0-0.9,0.1s-0.5,0.2-0.7,0.2l-0.2,0.1c0.1,0.3,0.2,0.8,0.2,1.8v3.1h-1v-3.1c0-0.9-0.1-1.4-0.2-1.8
				c-0.2-0.3-0.5-0.5-1.1-0.5c-0.3,0-0.6,0-0.8,0.1c-0.3,0.1-0.5,0.2-0.7,0.2l-0.2,0.1v5H286.7z"/>
			<path d="M300.9,197.7v3.1c0,0.3,0.3,0.5,0.7,0.5v0.7c-0.7,0-1.2-0.2-1.5-0.5c-0.8,0.3-1.5,0.5-2.3,0.5c-0.6,0-1-0.2-1.3-0.5
				s-0.5-0.8-0.5-1.3s0.2-1,0.5-1.3s0.8-0.4,1.5-0.5l2-0.2v-0.5c0-0.4-0.1-0.7-0.3-0.9c-0.2-0.2-0.4-0.3-0.8-0.3
				c-0.7,0-1.4,0-2.1,0.1h-0.4v-0.7c0.9-0.2,1.8-0.3,2.5-0.3s1.2,0.2,1.6,0.5C300.7,196.6,300.9,197,300.9,197.7z M297,200.2
				c0,0.7,0.3,1.1,1,1.1c0.6,0,1.1-0.1,1.7-0.3l0.3-0.1v-2l-1.9,0.2c-0.4,0-0.7,0.1-0.8,0.3C297,199.6,297,199.8,297,200.2z"/>
			<path d="M305.3,198.9c0-1.1,0.2-1.9,0.6-2.4s1.1-0.7,2.1-0.7s1.7,0.2,2.1,0.7s0.6,1.3,0.6,2.4c0,1.1-0.2,1.9-0.6,2.4
				S309,202,308,202s-1.8-0.2-2.1-0.7C305.5,200.8,305.3,200,305.3,198.9z M306.3,198.9c0,0.9,0.1,1.5,0.3,1.8s0.7,0.5,1.4,0.5
				s1.2-0.2,1.4-0.5c0.2-0.3,0.3-1,0.3-1.8s-0.1-1.5-0.4-1.8s-0.7-0.5-1.4-0.5s-1.1,0.2-1.4,0.5C306.4,197.4,306.3,198,306.3,198.9z
				"/>
			<path d="M312.3,201.9v-6h0.9v0.8c0.7-0.5,1.5-0.8,2.3-0.9v0.9c-0.4,0.1-0.7,0.2-1.1,0.3s-0.7,0.3-0.9,0.4l-0.3,0.2v4.4
				L312.3,201.9L312.3,201.9z"/>
			<path d="M316.8,194.5v-1h1v1H316.8z M316.8,201.9v-6h1v6H316.8z"/>
			<path d="M322,204.7c-1,0-1.7-0.1-2.1-0.4c-0.4-0.3-0.6-0.7-0.6-1.4c0-0.3,0.1-0.6,0.2-0.8s0.4-0.4,0.8-0.7
				c-0.2-0.2-0.4-0.4-0.4-0.8c0-0.1,0.1-0.4,0.3-0.8l0.1-0.2c-0.7-0.3-1-0.9-1-1.8c0-1.4,0.8-2.1,2.4-2.1c0.4,0,0.8,0,1.1,0.1h0.2
				h1.9v0.8h-1.2c0.3,0.3,0.4,0.7,0.4,1.2c0,0.8-0.2,1.3-0.6,1.6s-1,0.5-1.9,0.5c-0.2,0-0.4,0-0.6,0c-0.2,0.4-0.2,0.6-0.2,0.7
				c0,0.2,0.1,0.4,0.2,0.5s0.7,0.1,1.5,0.1s1.4,0.1,1.8,0.4c0.4,0.2,0.5,0.7,0.5,1.4C324.9,204.1,323.9,204.7,322,204.7z
				 M320.2,202.8c0,0.4,0.1,0.7,0.4,0.9s0.7,0.2,1.4,0.2c0.7,0,1.2-0.1,1.5-0.3s0.4-0.5,0.4-0.9s-0.1-0.7-0.3-0.8
				c-0.2-0.1-0.6-0.2-1.3-0.2l-1.4-0.1c-0.3,0.2-0.5,0.4-0.6,0.5C320.3,202.4,320.2,202.6,320.2,202.8z M320.3,197.8
				c0,0.5,0.1,0.8,0.3,1c0.2,0.2,0.6,0.3,1.1,0.3s0.9-0.1,1.1-0.3s0.3-0.5,0.3-1s-0.1-0.8-0.3-1c-0.2-0.2-0.6-0.3-1.1-0.3
				s-0.9,0.1-1.1,0.3C320.4,197,320.3,197.4,320.3,197.8z"/>
			<path d="M326.1,194.5v-1h1v1H326.1z M326.1,201.9v-6h1v6H326.1z"/>
			<path d="M329.9,201.9h-1v-6h0.9v0.4c0.7-0.4,1.3-0.5,2-0.5c0.9,0,1.4,0.2,1.7,0.6c0.3,0.4,0.4,1.2,0.4,2.3v3.2H333v-3.1
				c0-0.8-0.1-1.4-0.3-1.7c-0.2-0.3-0.5-0.5-1.1-0.5c-0.3,0-0.6,0-0.9,0.1s-0.5,0.2-0.7,0.2l-0.2,0.1v4.9H329.9z"/>
			<path d="M340.3,197.7v3.1c0,0.3,0.3,0.5,0.7,0.5v0.7c-0.7,0-1.2-0.2-1.5-0.5c-0.8,0.3-1.5,0.5-2.3,0.5c-0.6,0-1-0.2-1.3-0.5
				s-0.5-0.8-0.5-1.3s0.2-1,0.5-1.3s0.8-0.4,1.5-0.5l2-0.2v-0.5c0-0.4-0.1-0.7-0.3-0.9c-0.2-0.2-0.4-0.3-0.8-0.3
				c-0.7,0-1.4,0-2.1,0.1h-0.4v-0.7c0.9-0.2,1.8-0.3,2.5-0.3s1.2,0.2,1.6,0.5C340.1,196.6,340.3,197,340.3,197.7z M336.3,200.2
				c0,0.7,0.3,1.1,1,1.1c0.6,0,1.1-0.1,1.7-0.3l0.3-0.1v-2l-1.9,0.2c-0.4,0-0.7,0.1-0.8,0.3C336.4,199.6,336.3,199.8,336.3,200.2z"
				/>
			<path d="M342.2,201.9v-8.6h1v8.6H342.2z"/>
			<path d="M352.4,197.7v3.1c0,0.3,0.3,0.5,0.7,0.5v0.7c-0.7,0-1.2-0.2-1.5-0.5c-0.8,0.3-1.5,0.5-2.3,0.5c-0.6,0-1-0.2-1.3-0.5
				s-0.5-0.8-0.5-1.3s0.2-1,0.5-1.3s0.8-0.4,1.5-0.5l2-0.2v-0.5c0-0.4-0.1-0.7-0.3-0.9c-0.2-0.2-0.4-0.3-0.8-0.3
				c-0.7,0-1.4,0-2.1,0.1h-0.4v-0.7c0.9-0.2,1.8-0.3,2.5-0.3s1.2,0.2,1.6,0.5C352.3,196.6,352.4,197,352.4,197.7z M348.5,200.2
				c0,0.7,0.3,1.1,1,1.1c0.6,0,1.1-0.1,1.7-0.3l0.3-0.1v-2l-1.9,0.2c-0.4,0-0.7,0.1-0.8,0.3C348.6,199.6,348.5,199.8,348.5,200.2z"
				/>
			<path d="M357.2,201.9v-8.6h1v8.6H357.2z"/>
			<path d="M364.6,197.7v3.1c0,0.3,0.3,0.5,0.7,0.5v0.7c-0.7,0-1.2-0.2-1.5-0.5c-0.8,0.3-1.5,0.5-2.3,0.5c-0.6,0-1-0.2-1.3-0.5
				s-0.5-0.8-0.5-1.3s0.2-1,0.5-1.3s0.8-0.4,1.5-0.5l2-0.2v-0.5c0-0.4-0.1-0.7-0.3-0.9c-0.2-0.2-0.4-0.3-0.8-0.3
				c-0.7,0-1.4,0-2.1,0.1h-0.4v-0.7c0.9-0.2,1.8-0.3,2.5-0.3s1.2,0.2,1.6,0.5C364.4,196.6,364.6,197,364.6,197.7z M360.7,200.2
				c0,0.7,0.3,1.1,1,1.1c0.6,0,1.1-0.1,1.7-0.3l0.3-0.1v-2l-1.9,0.2c-0.4,0-0.7,0.1-0.8,0.3C360.8,199.6,360.7,199.8,360.7,200.2z"
				/>
			<path d="M370.3,201.9h-1v-6h0.9v0.4c0.6-0.4,1.3-0.5,1.9-0.5c0.8,0,1.3,0.2,1.7,0.6c0.3-0.2,0.6-0.3,1.1-0.4
				c0.4-0.1,0.8-0.2,1.2-0.2c0.9,0,1.4,0.2,1.7,0.6c0.3,0.4,0.4,1.2,0.4,2.3v3.2h-1v-3.1c0-0.8-0.1-1.4-0.3-1.7s-0.5-0.5-1.1-0.5
				c-0.3,0-0.6,0-0.9,0.1s-0.5,0.2-0.7,0.2L374,197c0.1,0.3,0.2,0.8,0.2,1.8v3.1h-1v-3.1c0-0.9-0.1-1.4-0.2-1.8
				c-0.2-0.3-0.5-0.5-1.1-0.5c-0.3,0-0.6,0-0.8,0.1c-0.3,0.1-0.5,0.2-0.7,0.2l-0.2,0.1v5H370.3z"/>
			<path d="M384.3,201.2h0.4v0.7c-1,0.1-1.8,0.2-2.5,0.2c-0.9,0-1.6-0.3-2-0.8s-0.6-1.3-0.6-2.3c0-2.1,0.9-3.2,2.7-3.2
				c0.9,0,1.5,0.2,1.9,0.7s0.6,1.2,0.6,2.1l-0.1,0.7h-4.2c0,0.7,0.1,1.2,0.4,1.5s0.7,0.5,1.3,0.5S383.7,201.2,384.3,201.2z
				 M384,198.6c0-0.7-0.1-1.3-0.4-1.6s-0.7-0.5-1.2-0.5s-1,0.2-1.3,0.5s-0.4,0.8-0.4,1.5h3.3V198.6z"/>
			<path d="M391.3,193.3v8.6h-0.9v-0.4c-0.7,0.4-1.3,0.5-1.9,0.5c-0.3,0-0.6,0-0.9-0.1s-0.5-0.2-0.7-0.4c-0.5-0.4-0.7-1.2-0.7-2.4
				s0.2-2,0.6-2.5s1.1-0.8,2.1-0.8c0.5,0,1,0.1,1.6,0.2v-2.7L391.3,193.3L391.3,193.3z M388,201.1c0.2,0.1,0.4,0.1,0.6,0.1
				s0.5,0,0.8-0.1s0.5-0.2,0.7-0.2l0.3-0.1v-4.1c-0.5-0.1-1.1-0.1-1.5-0.1c-0.6,0-1.1,0.2-1.4,0.6c-0.3,0.4-0.4,1-0.4,1.8
				c0,0.9,0.1,1.6,0.4,1.9C387.7,201,387.9,201.1,388,201.1z"/>
			<path d="M393.2,194.5v-1h1v1H393.2z M393.2,201.9v-6h1v6H393.2z"/>
			<path d="M400.9,193.3v8.6H400v-0.4c-0.7,0.4-1.3,0.5-1.9,0.5c-0.3,0-0.6,0-0.9-0.1s-0.5-0.2-0.7-0.4c-0.5-0.4-0.7-1.2-0.7-2.4
				s0.2-2,0.6-2.5s1.1-0.8,2.1-0.8c0.5,0,1,0.1,1.6,0.2v-2.7L400.9,193.3L400.9,193.3z M397.6,201.1c0.2,0.1,0.4,0.1,0.6,0.1
				s0.5,0,0.8-0.1s0.5-0.2,0.7-0.2l0.3-0.1v-4.1c-0.5-0.1-1.1-0.1-1.5-0.1c-0.6,0-1.1,0.2-1.4,0.6c-0.3,0.4-0.4,1-0.4,1.8
				c0,0.9,0.1,1.6,0.4,1.9C397.3,201,397.4,201.1,397.6,201.1z"/>
			<path d="M407.3,197.7v3.1c0,0.3,0.3,0.5,0.7,0.5v0.7c-0.7,0-1.2-0.2-1.5-0.5c-0.8,0.3-1.5,0.5-2.3,0.5c-0.6,0-1-0.2-1.3-0.5
				s-0.5-0.8-0.5-1.3s0.2-1,0.5-1.3s0.8-0.4,1.5-0.5l2-0.2v-0.5c0-0.4-0.1-0.7-0.3-0.9c-0.2-0.2-0.4-0.3-0.8-0.3
				c-0.7,0-1.4,0-2.1,0.1h-0.4v-0.7c0.9-0.2,1.8-0.3,2.5-0.3s1.2,0.2,1.6,0.5C407.1,196.6,407.3,197,407.3,197.7z M403.3,200.2
				c0,0.7,0.3,1.1,1,1.1c0.6,0,1.1-0.1,1.7-0.3l0.3-0.1v-2l-1.9,0.2c-0.4,0-0.7,0.1-0.8,0.3C403.4,199.6,403.3,199.8,403.3,200.2z"
				/>
			<path d="M414.1,202c-0.9,0-1.5-0.2-1.8-0.7s-0.6-1.3-0.6-2.4c0-1.1,0.2-1.9,0.7-2.4c0.4-0.5,1.2-0.7,2.4-0.7l2.1,0.1v8.7H416
				v-2.9C415.3,201.9,414.7,202,414.1,202z M414.7,196.6c-0.8,0-1.3,0.2-1.6,0.6c-0.3,0.4-0.4,1-0.4,1.8s0.1,1.4,0.4,1.8
				c0.2,0.4,0.6,0.5,1.2,0.5c0.5,0,1-0.1,1.5-0.3l0.2-0.1v-4.2C415.4,196.6,415,196.6,414.7,196.6z"/>
			<path d="M422.7,195.9h1v6h-1v-0.4c-0.6,0.4-1.3,0.5-1.9,0.5c-0.9,0-1.4-0.2-1.7-0.6c-0.3-0.4-0.4-1.2-0.4-2.4v-3.1h1v3.1
				c0,0.9,0.1,1.5,0.2,1.8s0.5,0.4,1.1,0.4c0.3,0,0.6,0,0.9-0.1s0.5-0.2,0.7-0.2l0.2-0.1v-4.9H422.7z"/>
			<path d="M429.8,201.2h0.4v0.7c-1,0.1-1.8,0.2-2.5,0.2c-0.9,0-1.6-0.3-2-0.8s-0.6-1.3-0.6-2.3c0-2.1,0.9-3.2,2.7-3.2
				c0.9,0,1.5,0.2,1.9,0.7s0.6,1.2,0.6,2.1l-0.1,0.7H426c0,0.7,0.1,1.2,0.4,1.5s0.7,0.5,1.3,0.5S429.1,201.2,429.8,201.2z
				 M429.5,198.6c0-0.7-0.1-1.3-0.4-1.6s-0.7-0.5-1.2-0.5s-1,0.2-1.3,0.5s-0.4,0.8-0.4,1.5h3.3V198.6z"/>
			<path d="M435.7,201.9h-1v-6h0.9v0.4c0.7-0.4,1.3-0.5,2-0.5c0.9,0,1.4,0.2,1.7,0.6c0.3,0.4,0.4,1.2,0.4,2.3v3.2h-0.9v-3.1
				c0-0.8-0.1-1.4-0.3-1.7c-0.2-0.3-0.5-0.5-1.1-0.5c-0.3,0-0.6,0-0.9,0.1s-0.5,0.2-0.7,0.2l-0.2,0.1v4.9H435.7z"/>
			<path d="M445.9,201.2h0.4v0.7c-1,0.1-1.8,0.2-2.5,0.2c-0.9,0-1.6-0.3-2-0.8s-0.6-1.3-0.6-2.3c0-2.1,0.9-3.2,2.7-3.2
				c0.9,0,1.5,0.2,1.9,0.7s0.6,1.2,0.6,2.1l-0.1,0.7h-4.2c0,0.7,0.1,1.2,0.4,1.5s0.7,0.5,1.3,0.5S445.3,201.2,445.9,201.2z
				 M445.6,198.6c0-0.7-0.1-1.3-0.4-1.6s-0.7-0.5-1.2-0.5s-1,0.2-1.3,0.5s-0.4,0.8-0.4,1.5h3.3V198.6z"/>
			<path d="M450.4,195.8c0.3,0,0.8,0,1.4,0.1h0.3v0.7c-0.7-0.1-1.2-0.1-1.5-0.1c-0.7,0-1.2,0.2-1.5,0.5s-0.4,0.9-0.4,1.8
				s0.1,1.5,0.4,1.8c0.2,0.3,0.7,0.5,1.5,0.5l1.5-0.1v0.7c-0.8,0.1-1.4,0.2-1.8,0.2c-1,0-1.7-0.2-2.1-0.7s-0.6-1.3-0.6-2.4
				c0-1.1,0.2-1.9,0.6-2.4C448.8,196,449.5,195.8,450.4,195.8z"/>
			<path d="M457.9,201.2h0.4v0.7c-1,0.1-1.8,0.2-2.5,0.2c-0.9,0-1.6-0.3-2-0.8s-0.6-1.3-0.6-2.3c0-2.1,0.9-3.2,2.7-3.2
				c0.9,0,1.5,0.2,1.9,0.7s0.6,1.2,0.6,2.1l-0.1,0.7h-4.2c0,0.7,0.1,1.2,0.4,1.5s0.7,0.5,1.3,0.5S457.2,201.2,457.9,201.2z
				 M457.5,198.6c0-0.7-0.1-1.3-0.4-1.6s-0.7-0.5-1.2-0.5s-1,0.2-1.3,0.5s-0.4,0.8-0.4,1.5h3.3V198.6z"/>
			<path d="M462,196.6c-0.9,0-1.4,0.3-1.4,0.9c0,0.3,0.1,0.5,0.3,0.6c0.2,0.1,0.7,0.2,1.5,0.4c0.8,0.1,1.3,0.3,1.6,0.5
				c0.3,0.2,0.5,0.6,0.5,1.3s-0.2,1.1-0.6,1.4c-0.4,0.3-1,0.4-1.8,0.4c-0.5,0-1.1-0.1-1.9-0.2l-0.4-0.1l0.1-0.8
				c1,0.1,1.7,0.2,2.2,0.2s0.9-0.1,1.1-0.2s0.4-0.4,0.4-0.7s-0.1-0.6-0.3-0.7c-0.2-0.1-0.7-0.2-1.5-0.4c-0.7-0.1-1.3-0.3-1.6-0.5
				c-0.3-0.2-0.5-0.6-0.5-1.2s0.2-1,0.7-1.3c0.4-0.3,1-0.4,1.6-0.4c0.5,0,1.2,0.1,2,0.2l0.4,0.1v0.8
				C463.3,196.6,462.5,196.6,462,196.6z"/>
			<path d="M465.9,194.5v-1h1v1H465.9z M465.9,201.9v-6h1v6H465.9z"/>
			<path d="M472,196.7h-2v2.9c0,0.7,0.1,1.1,0.2,1.4c0.1,0.2,0.4,0.3,0.8,0.3l1.1-0.1l0.1,0.7c-0.6,0.1-1,0.1-1.3,0.1
				c-0.7,0-1.1-0.2-1.4-0.5s-0.4-0.9-0.4-1.7v-3.2h-0.9v-0.8h0.9V194h0.9v1.8h2L472,196.7L472,196.7z"/>
			<path d="M477.5,201.2h0.4v0.7c-1,0.1-1.8,0.2-2.5,0.2c-0.9,0-1.6-0.3-2-0.8s-0.6-1.3-0.6-2.3c0-2.1,0.9-3.2,2.7-3.2
				c0.9,0,1.5,0.2,1.9,0.7s0.6,1.2,0.6,2.1l-0.1,0.7h-4.2c0,0.7,0.1,1.2,0.4,1.5s0.7,0.5,1.3,0.5S476.9,201.2,477.5,201.2z
				 M477.2,198.6c0-0.7-0.1-1.3-0.4-1.6s-0.7-0.5-1.2-0.5s-1,0.2-1.3,0.5s-0.4,0.8-0.4,1.5h3.3V198.6z"/>
			<path d="M274.8,215.6h0.4v0.7c-1,0.1-1.8,0.2-2.5,0.2c-0.9,0-1.6-0.3-2-0.8s-0.6-1.3-0.6-2.3c0-2.1,0.9-3.2,2.7-3.2
				c0.9,0,1.5,0.2,1.9,0.7s0.6,1.2,0.6,2.1l-0.1,0.7H271c0,0.7,0.1,1.2,0.4,1.5s0.7,0.5,1.3,0.5S274.1,215.6,274.8,215.6z
				 M274.4,213c0-0.7-0.1-1.3-0.4-1.6s-0.7-0.5-1.2-0.5s-1,0.2-1.3,0.5s-0.4,0.8-0.4,1.5h3.3V213z"/>
			<path d="M276.9,216.3v-8.6h1v8.6H276.9z"/>
			<path d="M285,210.2c0.3,0,0.8,0,1.4,0.1h0.3v0.7c-0.7-0.1-1.2-0.1-1.5-0.1c-0.7,0-1.2,0.2-1.5,0.5s-0.4,0.9-0.4,1.8
				s0.1,1.5,0.4,1.8c0.2,0.3,0.7,0.5,1.5,0.5l1.5-0.1v0.7c-0.8,0.1-1.4,0.2-1.8,0.2c-1,0-1.7-0.2-2.1-0.7s-0.6-1.3-0.6-2.4
				c0-1.1,0.2-1.9,0.6-2.4C283.4,210.4,284.1,210.2,285,210.2z"/>
			<path d="M288.3,216.3v-8.6h1v8.6H288.3z"/>
			<path d="M291.2,208.9v-1h1v1H291.2z M291.2,216.3v-6h1v6H291.2z"/>
			<path d="M298.3,215.6h0.4v0.7c-1,0.1-1.8,0.2-2.5,0.2c-0.9,0-1.6-0.3-2-0.8s-0.6-1.3-0.6-2.3c0-2.1,0.9-3.2,2.7-3.2
				c0.9,0,1.5,0.2,1.9,0.7s0.6,1.2,0.6,2.1l-0.1,0.7h-4.2c0,0.7,0.1,1.2,0.4,1.5s0.7,0.5,1.3,0.5S297.6,215.6,298.3,215.6z
				 M297.9,213c0-0.7-0.1-1.3-0.4-1.6s-0.7-0.5-1.2-0.5s-1,0.2-1.3,0.5s-0.4,0.8-0.4,1.5h3.3V213z"/>
			<path d="M301.4,216.3h-1v-6h0.9v0.4c0.7-0.4,1.3-0.5,2-0.5c0.9,0,1.4,0.2,1.7,0.6c0.3,0.4,0.4,1.2,0.4,2.3v3.2h-0.9v-3.1
				c0-0.8-0.1-1.4-0.3-1.7c-0.2-0.3-0.5-0.5-1.1-0.5c-0.3,0-0.6,0-0.9,0.1s-0.5,0.2-0.7,0.2l-0.2,0.1v4.9H301.4z"/>
			<path d="M310.5,211.1h-2v2.9c0,0.7,0.1,1.1,0.2,1.4c0.1,0.2,0.4,0.3,0.8,0.3l1.1-0.1l0.1,0.7c-0.6,0.1-1,0.1-1.3,0.1
				c-0.7,0-1.1-0.2-1.4-0.5s-0.4-0.9-0.4-1.7V211h-0.9v-0.8h0.9v-1.8h0.9v1.8h2L310.5,211.1L310.5,211.1z"/>
			<path d="M316,215.6h0.4v0.7c-1,0.1-1.8,0.2-2.5,0.2c-0.9,0-1.6-0.3-2-0.8s-0.6-1.3-0.6-2.3c0-2.1,0.9-3.2,2.7-3.2
				c0.9,0,1.5,0.2,1.9,0.7s0.6,1.2,0.6,2.1l-0.1,0.7h-4.2c0,0.7,0.1,1.2,0.4,1.5s0.7,0.5,1.3,0.5S315.4,215.6,316,215.6z M315.7,213
				c0-0.7-0.1-1.3-0.4-1.6s-0.7-0.5-1.2-0.5s-1,0.2-1.3,0.5s-0.4,0.8-0.4,1.5h3.3V213z"/>
			<path d="M318.1,216.3v-1.4h1v1.4H318.1z"/>
		</g>
	</g>
</g>
</svg>
